<svg xmlns="http://www.w3.org/2000/svg" width="512" height="512" viewBox="0 0 512 512">
    <defs>
        <style>
            .cls-1{fill:#c9f3ff}.cls-2{fill:#72d8ff}.cls-3{fill:#fcc69d}.cls-4{fill:#ffb954}.cls-5{fill:#fff}.cls-6{fill:#ff5d5d}.cls-7{fill:#4dbaf6}.cls-8{fill:#5b4016}
        </style>
    </defs>
    <g id="pic_landing_page_2" data-name="pic_landing page_2" transform="translate(-1168 -1257)">
        <path id="Path_2" d="M452 17.191a84 84 0 0 0 0 153.617 84 84 0 0 0 0-153.617zm0 0" class="cls-1" data-name="Path 2" transform="translate(1168 1257)"/>
        <path id="Path_3" d="M128 17.191a84 84 0 0 0 0 153.617 84 84 0 0 0 0-153.617zm0 0" class="cls-1" data-name="Path 3" transform="translate(1168 1257)"/>
        <path id="Path_4" d="M431.137 226.641a25.148 25.148 0 0 0-25.43 25.148v.227a119.451 119.451 0 0 1-119.449 119.449h-60.516A119.445 119.445 0 0 1 118.82 305.3a170.537 170.537 0 0 0 108.254 106.48v88.508h111.52v-86.8C406.656 391.379 456 327.355 456 252.012v-.227a25.147 25.147 0 0 0-24.863-25.144zm0 0" class="cls-2" data-name="Path 4" transform="translate(1168 1257)"/>
        <path id="Path_5" d="M274.25 367.7A47.01 47.01 0 0 0 303 324.379v-35.774h-57.5v35.773a47.01 47.01 0 0 0 28.75 43.322zm0 0" class="cls-3" data-name="Path 5" transform="translate(1168 1257)"/>
        <path id="Path_6" d="M303 256.441v-29.336h-26.855a33.381 33.381 0 0 0-33.379 33.383v28.117h28.07A32.167 32.167 0 0 0 303 256.441zm0 0" class="cls-4" data-name="Path 6" transform="translate(1168 1257)"/>
        <path id="Path_7" d="M256 419.309l-33.766-47.93h67.531zm0 0" class="cls-5" data-name="Path 7" transform="translate(1168 1257)"/>
        <path id="Path_8" d="M477.82 152.953v-5.766a26.128 26.128 0 0 0-21.336-25.68l-15.164-2.827h-6.4l-15.16 2.828a26.128 26.128 0 0 0-21.332 25.68v5.762a83.924 83.924 0 0 0 39.7 22.6 83.9 83.9 0 0 0 39.692-22.597zm0 0" class="cls-6" data-name="Path 8" transform="translate(1168 1257)"/>
        <path id="Path_9" d="M153.82 152.953v-5.766a26.128 26.128 0 0 0-21.336-25.68l-15.164-2.827h-6.652l-15.16 2.828a26.128 26.128 0 0 0-21.332 25.68v5.762A83.919 83.919 0 0 0 114 175.578a83.886 83.886 0 0 0 39.82-22.625zm0 0" class="cls-7" data-name="Path 9" transform="translate(1168 1257)"/>
        <path id="Path_10" d="M414.262 101.3v-8.917a28.491 28.491 0 0 1 16.109-25.664 28.492 28.492 0 0 0-40.859 25.664v8.91a28.492 28.492 0 0 0 40.859 25.664 28.481 28.481 0 0 1-16.109-25.657zm0 0" class="cls-5" data-name="Path 10" transform="translate(1168 1257)"/>
        <path id="Path_11" d="M446.484 101.3v-8.917a28.488 28.488 0 0 0-16.113-25.664 28.491 28.491 0 0 0-16.109 25.664v8.917a28.491 28.491 0 0 0 16.109 25.664 28.488 28.488 0 0 0 16.113-25.664zm0 0" class="cls-3" data-name="Path 11" transform="translate(1168 1257)"/>
        <path id="Path_12" d="M90.262 101.3v-8.917a28.491 28.491 0 0 1 16.109-25.664 28.492 28.492 0 0 0-40.859 25.664v8.91a28.492 28.492 0 0 0 40.859 25.664A28.481 28.481 0 0 1 90.262 101.3zm0 0" class="cls-5" data-name="Path 12" transform="translate(1168 1257)"/>
        <path id="Path_13" d="M122.484 101.3v-8.917a28.488 28.488 0 0 0-16.113-25.664 28.491 28.491 0 0 0-16.109 25.664v8.917a28.491 28.491 0 0 0 16.109 25.664 28.488 28.488 0 0 0 16.113-25.664zm0 0" class="cls-3" data-name="Path 13" transform="translate(1168 1257)"/>
        <path id="Path_14" d="M431.246 216.645h-.406a35.154 35.154 0 0 0-35.14 35.14v.23a109.608 109.608 0 0 1-95.727 108.59A56.74 56.74 0 0 0 313 324.379V262.09a9.994 9.994 0 0 0-.18-1.855c.113-1.25.18-2.516.18-3.793v-29.333a10 10 0 0 0-10-10h-60.617A43.43 43.43 0 0 0 199 260.488v63.891a56.74 56.74 0 0 0 13.023 36.227 109.612 109.612 0 0 1-95.73-108.59v-.23a35.146 35.146 0 0 0-70.293 0v.23a180.065 180.065 0 0 0 117.406 168.59V502a10 10 0 0 0 20 0v-88.508a9.993 9.993 0 0 0-6.91-9.508A159.434 159.434 0 0 1 66 252.016v-.23a15.146 15.146 0 0 1 30.293 0v.23c0 68.4 53.332 124.574 120.6 129.137l29.238 41.5v30.6a10 10 0 0 0 20 0V422.3l28.98-41.145c67.266-4.566 120.6-60.738 120.6-129.137v-.23a15.143 15.143 0 0 1 15.141-15.145h.176A15.2 15.2 0 0 1 446 251.785v.227A159.425 159.425 0 0 1 335.5 403.98a10 10 0 0 0-6.91 9.512v52.176a10 10 0 0 0 20 0v-45.063A180.051 180.051 0 0 0 466 252.016v-.23a35.268 35.268 0 0 0-34.754-35.141zM256 401.945l-14.43-20.48h28.86zm-37-103.34h51.836A41.9 41.9 0 0 0 293 292.289v32.09a37 37 0 0 1-74 0zm0-38.117a23.407 23.407 0 0 1 23.383-23.379H293v19.332a22.19 22.19 0 0 1-22.164 22.164H219zm0 0" class="cls-8" data-name="Path 14" transform="translate(1168 1257)"/>
        <path id="Path_15" d="M338.59 492a10 10 0 1 0 7.07 2.93 10.1 10.1 0 0 0-7.07-2.93zm0 0" class="cls-8" data-name="Path 15" transform="translate(1168 1257)"/>
        <path id="Path_16" d="M418 0a94 94 0 1 0 94 94 94.106 94.106 0 0 0-94-94zm0 20a73.982 73.982 0 0 1 65.051 109.254 36.119 36.119 0 0 0-24.73-17.574l-3.105-.582a38.44 38.44 0 0 0 1.27-9.8v-8.91a38.486 38.486 0 1 0-76.973 0v8.91a38.44 38.44 0 0 0 1.27 9.8l-3.105.578a36.112 36.112 0 0 0-24.727 17.574A73.979 73.979 0 0 1 418 20zm-18.488 81.3v-8.917a18.486 18.486 0 0 1 36.973 0v8.917a18.486 18.486 0 0 1-36.973 0zm-31.336 47.367v-1.477a16.129 16.129 0 0 1 13.168-15.848l10.4-1.941a38.384 38.384 0 0 0 52.508 0l10.4 1.941a16.126 16.126 0 0 1 13.164 15.848v1.48a73.856 73.856 0 0 1-99.641 0zm0 0" class="cls-8" data-name="Path 16" transform="translate(1168 1257)"/>
        <path id="Path_17" d="M188 94a94 94 0 1 0-94 94 94.106 94.106 0 0 0 94-94zM44.176 148.664v-1.477a16.129 16.129 0 0 1 13.168-15.847l10.4-1.941a38.384 38.384 0 0 0 52.508 0l10.4 1.941a16.126 16.126 0 0 1 13.164 15.848v1.48a73.856 73.856 0 0 1-99.641 0zm68.308-47.364a18.486 18.486 0 0 1-36.973 0v-8.917a18.486 18.486 0 0 1 36.973 0zM94 20a73.982 73.982 0 0 1 65.051 109.254 36.119 36.119 0 0 0-24.73-17.574l-3.105-.582a38.44 38.44 0 0 0 1.27-9.8v-8.91a38.486 38.486 0 1 0-76.973 0v8.912a38.26 38.26 0 0 0 1.27 9.8l-3.105.582a36.107 36.107 0 0 0-24.727 17.57A73.979 73.979 0 0 1 94 20zm0 0" class="cls-8" data-name="Path 17" transform="translate(1168 1257)"/>
    </g>
</svg>
