<svg xmlns="http://www.w3.org/2000/svg" width="71.946" height="46.196" viewBox="0 0 71.946 46.196">
  <g id="btn_footer_icon_mail_normal" transform="translate(0 -91.626)">
    <path id="Path_174" data-name="Path 174" d="M177.311,115.923a3.215,3.215,0,0,1-1.9,4.136L135.373,134.87a3.22,3.22,0,0,1-4.136-1.9l-8.211-22.193a3.222,3.222,0,0,1,1.9-4.136l40.037-14.811a3.219,3.219,0,0,1,4.135,1.9Zm-3.6-.451-7.125-19.253-9.761,13.957Zm-36.551,15.3,34.222-12.661-16.493-5.173-2.548,3.645a1.613,1.613,0,0,1-1.32.687,1.644,1.644,0,0,1-.4-.051l-4.305-1.107Zm13.182-16.948,12.418-17.753-33.4,12.357Zm-16.67,16.456,9.373-15.009-16.495-4.242Z" transform="translate(-105.565 0)" fill="#5b4016"/>
    <g id="Group_72" data-name="Group 72" transform="translate(31.597 96.219)">
      <path id="Path_175" data-name="Path 175" d="M374.566,124.312l7.125,19.253-16.886-5.3Z" transform="translate(-345.14 -124.312)" fill="#fff"/>
      <path id="Path_176" data-name="Path 176" d="M259.082,248.5,224.86,261.156l9.156-14.66,4.305,1.107a1.636,1.636,0,0,0,.4.052,1.613,1.613,0,0,0,1.32-.687l2.548-3.645Z" transform="translate(-224.86 -226.6)" fill="#fff"/>
    </g>
    <path id="Path_177" data-name="Path 177" d="M202.748,123.282,190.33,141.035l-20.983-5.4Z" transform="translate(-145.55 -27.208)" fill="#fff"/>
    <path id="Path_178" data-name="Path 178" d="M165.856,233.969l-9.373,15.009-7.122-19.251Z" transform="translate(-128.373 -118.695)" fill="#fff"/>
    <g id="Group_73" data-name="Group 73" transform="translate(0 117.416)">
      <path id="Path_179" data-name="Path 179" d="M77.268,382.541a1.609,1.609,0,0,1-.951,2.068l-6.064,2.244a1.627,1.627,0,0,1-.558.1,1.61,1.61,0,0,1-.558-3.121L75.2,381.59A1.611,1.611,0,0,1,77.268,382.541Z" transform="translate(-58.517 -366.549)" fill="#fad493"/>
      <path id="Path_180" data-name="Path 180" d="M33.045,276.211a1.609,1.609,0,0,1-.949,2.068l-3.745,1.386a1.61,1.61,0,1,1-1.117-3.019l3.745-1.386A1.609,1.609,0,0,1,33.045,276.211Z" transform="translate(-22.503 -275.16)" fill="#fad493"/>
      <path id="Path_181" data-name="Path 181" d="M5.9,362.975a1.608,1.608,0,0,1-.951,2.066l-2.783,1.03a1.61,1.61,0,0,1-1.117-3.019l2.783-1.028A1.61,1.61,0,0,1,5.9,362.975Z" transform="translate(0 -349.731)" fill="#fad493"/>
    </g>
  </g>
</svg>
