<svg xmlns="http://www.w3.org/2000/svg" width="512" height="404" viewBox="0 0 512 404">
    <defs>
        <style>
            .cls-1{fill:#fcc69d}.cls-2{fill:#5b4016}
        </style>
    </defs>
    <g id="pic_landing_page_3" data-name="pic_landing page_3" transform="translate(-243 -1953)">
        <path id="Path_19" d="M444.219 372.457l12.066-15.906H502V274.07h-44.719l-12.066-15.906a54.452 54.452 0 0 0-43.383-21.543h-70.57a29.705 29.705 0 0 0-29.676 28.426h-21.34a23.245 23.245 0 0 0-23.031 20.141 23.249 23.249 0 0 0 22.031 15.836A23.253 23.253 0 0 0 257 317.512v13.508a23.256 23.256 0 0 0 22.246 16.492A23.253 23.253 0 0 0 257 364v13.508A23.253 23.253 0 0 0 279.246 394h121.59a54.448 54.448 0 0 0 43.383-21.543zm0 0" class="cls-1" data-name="Path 19" transform="translate(243 1953)"/>
        <path id="Path_20" d="M232.758 301.023a23.245 23.245 0 0 0 22.637-17.988 23.242 23.242 0 0 0-22.637-17.984h-21.34a29.708 29.708 0 0 0-29.676-28.426h-70.574a54.452 54.452 0 0 0-43.383 21.543l-12.066 15.906H10v82.477h45.719l12.066 15.906A54.452 54.452 0 0 0 111.168 394h121.59a23.244 23.244 0 0 0 0-46.488 23.244 23.244 0 0 0 0-46.488zm0 0" class="cls-1" data-name="Path 20" transform="translate(243 1953)"/>
        <path id="Path_21" d="M74.77 284.4a36.82 36.82 0 0 0 34.011-22.6 10 10 0 1 0-18.434-7.754A16.865 16.865 0 0 1 74.77 264.4h-7.036a10 10 0 0 0 0 20zm0 0" class="cls-2" data-name="Path 21" transform="translate(243 1953)"/>
        <path id="Path_22" d="M502 346.551h-45.715a10 10 0 0 0-7.969 3.957l-12.066 15.906A44.7 44.7 0 0 1 400.832 384h-22.664a33.157 33.157 0 0 0-6.746-36.488 33.167 33.167 0 0 0 0-46.488 33.214 33.214 0 0 0-21.207-56.383 40.577 40.577 0 0 0 1.723-5.3H384a10 10 0 0 0 0-20h-40.836a10 10 0 0 0-10 10 21.232 21.232 0 0 1-21.207 21.211h-1.406v-41.22a19.735 19.735 0 0 1 19.711-19.711h70.574a44.69 44.69 0 0 1 35.414 17.59l12.066 15.9a10.009 10.009 0 0 0 7.969 3.957H502a10 10 0 0 0 0-20h-40.75l-9.066-11.949a64.81 64.81 0 0 0-51.348-25.5h-70.574a39.775 39.775 0 0 0-38.062 28.428h-12.958A33.131 33.131 0 0 0 256 207.555a33.131 33.131 0 0 0-23.242-9.508H219.8a39.775 39.775 0 0 0-38.066-28.426h-70.57a64.81 64.81 0 0 0-51.348 25.5L50.75 207.07H10a10 10 0 0 0 0 20h45.715a10 10 0 0 0 7.969-3.957l12.066-15.9a44.692 44.692 0 0 1 35.418-17.59h70.574a19.732 19.732 0 0 1 19.707 19.711v41.219h-1.4a21.236 21.236 0 0 1-21.211-21.211 10 10 0 0 0-10-10H128a10 10 0 0 0 0 20h32.063a40.577 40.577 0 0 0 1.723 5.3 33.214 33.214 0 0 0-21.207 56.383 33.167 33.167 0 0 0 0 46.488A33.157 33.157 0 0 0 133.832 384h-22.664a44.7 44.7 0 0 1-35.418-17.586l-12.066-15.906a10 10 0 0 0-7.969-3.957H10a10 10 0 0 0 0 20h40.75l9.066 11.949a64.8 64.8 0 0 0 51.352 25.5h121.59A33.131 33.131 0 0 0 256 394.492 33.131 33.131 0 0 0 279.242 404h121.59a64.8 64.8 0 0 0 51.352-25.5l9.066-11.949H502a10 10 0 0 0 0-20zM151.07 324.27a13.26 13.26 0 0 1 13.246-13.246h68.441a13.244 13.244 0 0 1 0 26.488h-68.441a13.259 13.259 0 0 1-13.246-13.242zm114.93 0a13.259 13.259 0 0 1 13.242-13.246h68.441a13.244 13.244 0 1 1 0 26.488h-68.441A13.258 13.258 0 0 1 266 324.27zm45.953-53.719a40.981 40.981 0 0 0 21.418-6.016h14.313a13.244 13.244 0 1 1 0 26.488h-68.442a13.244 13.244 0 0 1 0-26.488h12.141a10 10 0 0 0 9.168 6.016zm-32.711-52.5h11.309v26.488h-11.309a13.244 13.244 0 0 1 0-26.488zM246 231.289a13.259 13.259 0 0 1-13.242 13.246h-11.309v-26.488h11.309A13.258 13.258 0 0 1 246 231.289zm-81.684 33.246h14.313a40.981 40.981 0 0 0 21.418 6.016h11.4a10 10 0 0 0 9.168-6.016h12.141a13.244 13.244 0 0 1 0 26.488h-68.44a13.244 13.244 0 1 1 0-26.488zM232.758 384h-68.442a13.244 13.244 0 1 1 0-26.488h68.441a13.244 13.244 0 0 1 0 26.488zm46.484 0a13.244 13.244 0 0 1 0-26.488h68.441a13.244 13.244 0 1 1 0 26.488zm0 0" class="cls-2" data-name="Path 22" transform="translate(243 1953)"/>
        <path id="Path_23" d="M437.188 264.4a16.87 16.87 0 0 1-15.582-10.348 10 10 0 0 0-18.434 7.754 36.821 36.821 0 0 0 34.016 22.594h7.035a10 10 0 0 0 0-20zm0 0" class="cls-2" data-name="Path 23" transform="translate(243 1953)"/>
        <path id="Path_24" d="M255.988 96a10 10 0 0 0 10-10V10a10 10 0 0 0-20 0v76a10 10 0 0 0 10 10zm0 0" class="cls-2" data-name="Path 24" transform="translate(243 1953)"/>
        <path id="Path_25" d="M255.988 113.5a10 10 0 1 0 7.07 2.93 10.07 10.07 0 0 0-7.07-2.93zm0 0" class="cls-2" data-name="Path 25" transform="translate(243 1953)"/>
        <path id="Path_26" d="M175.016 106.527a10 10 0 1 0 14.137-14.145l-52.188-52.148a10 10 0 0 0-14.137 14.148zm0 0" class="cls-2" data-name="Path 26" transform="translate(243 1953)"/>
        <path id="Path_27" d="M334.16 107.879a9.974 9.974 0 0 0 7.074-2.934l47.941-47.98a10 10 0 1 0-14.148-14.137l-47.941 47.98a10 10 0 0 0 7.074 17.07zm0 0" class="cls-2" data-name="Path 27" transform="translate(243 1953)"/>
    </g>
</svg>
