<svg id="组_83" data-name="组 83" xmlns="http://www.w3.org/2000/svg" width="100" height="100" viewBox="0 0 391.979 391.964">
  <path id="路径_28" data-name="路径 28" d="M152.648,368.7c-.526.428-53.235,42.472-88.332,7.375-12.557-12.557-13.072-32.478-1.142-44.4a29.638,29.638,0,0,1,22.549-8.6,17.905,17.905,0,0,0,15.536-28.046A65.757,65.757,0,0,0,59.095,314c-18.219,18.219-23.362,44.73-15.575,68.086a24.255,24.255,0,0,1-5.766,24.881l41.228,40.16a127.477,127.477,0,0,1,47.433-25.42q2.306-.673,4.632-1.444a154.947,154.947,0,0,0,44.174-23.748,18.762,18.762,0,0,0,1.4-1.256A17.911,17.911,0,0,0,152.648,368.7Zm0,0" transform="translate(-8.85 -69.158)" fill="#fcc69d"/>
  <path id="路径_29" data-name="路径 29" d="M409.211,37.754a24.255,24.255,0,0,1-24.881,5.766c-23.356-7.79-49.868-2.644-68.086,15.575a65.794,65.794,0,0,0-19.032,43.181A17.91,17.91,0,0,0,323.6,85.72a29.614,29.614,0,0,1,8.6-22.546c11.929-11.929,31.847-11.418,44.4,1.139,35.1,35.1-6.947,87.806-7.375,88.335a17.911,17.911,0,0,0,26.556,23.966,16.994,16.994,0,0,0,1.256-1.394,154.868,154.868,0,0,0,23.748-44.174q.776-2.324,1.447-4.632A127.362,127.362,0,0,1,448.45,78.04Zm0,0" transform="translate(-69.671 -8.851)" fill="#fcc69d"/>
  <path id="路径_30" data-name="路径 30" d="M144.081,258.47a3.852,3.852,0,0,0-1.681-6.445,15.7,15.7,0,0,1-7.031-4.076l-.464-.464a15.783,15.783,0,0,1,22.322-22.319l.464.464a15.693,15.693,0,0,1,4.073,7.031,3.854,3.854,0,0,0,6.445,1.681l16.876-16.876a7.945,7.945,0,0,1,11.239,0l16.484,16.484a3.852,3.852,0,0,1-1.465,6.376,15.717,15.717,0,0,0-6.146,3.807l-.464.464a15.783,15.783,0,0,0,22.319,22.322l.464-.464a15.7,15.7,0,0,0,3.81-6.149,3.851,3.851,0,0,1,6.376-1.462l16.5,16.5a7.945,7.945,0,0,1,0,11.239L237.327,303.46a3.854,3.854,0,0,0,1.681,6.445,15.693,15.693,0,0,1,7.031,4.073l.464.464a15.784,15.784,0,0,1-22.322,22.322l-.461-.464a15.672,15.672,0,0,1-4.076-7.031,3.852,3.852,0,0,0-6.445-1.681l-16.876,16.876a7.951,7.951,0,0,1-11.239,0l-16.912-16.915a3.855,3.855,0,0,0-6.451,1.7,15.67,15.67,0,0,1-4.091,7.091l-.464.464a15.783,15.783,0,0,1-22.319-22.322l.461-.464a15.733,15.733,0,0,1,7.094-4.091,3.853,3.853,0,0,0,1.7-6.448l-16.894-16.894a7.949,7.949,0,0,1,0-11.242l16.493-16.49Zm0,0" transform="translate(-29.273 -50.432)" fill="#fff"/>
  <path id="路径_31" data-name="路径 31" d="M258.451,237.268l16.915,16.915a7.945,7.945,0,0,0,11.239,0l16.876-16.876a3.853,3.853,0,0,0-1.681-6.445,15.7,15.7,0,0,1-7.031-4.076l-.464-.464A15.783,15.783,0,0,1,316.627,204l.461.464a15.672,15.672,0,0,1,4.076,7.031,3.854,3.854,0,0,0,6.445,1.681L344.484,196.3a7.945,7.945,0,0,0,0-11.239l-16.5-16.5a3.855,3.855,0,0,1,1.462-6.379,15.672,15.672,0,0,0,6.149-3.807l.464-.464A15.783,15.783,0,1,0,313.735,135.6l-.464.461a15.749,15.749,0,0,0-3.807,6.149,3.853,3.853,0,0,1-6.376,1.465L286.6,127.186a7.945,7.945,0,0,0-11.239,0l-16.493,16.49-.383.386a3.854,3.854,0,0,1-6.445-1.681,15.693,15.693,0,0,0-4.073-7.031l-.464-.464A15.783,15.783,0,1,0,225.187,157.2l.464.464a15.7,15.7,0,0,0,7.031,4.076,3.854,3.854,0,0,1,1.681,6.445l-16.876,16.876a7.945,7.945,0,0,0,0,11.239L234.38,213.2" transform="translate(-50.436 -29.269)" fill="#fff"/>
  <path id="路径_32" data-name="路径 32" d="M249.543,262.91a3.852,3.852,0,0,0-6.376,1.462,15.714,15.714,0,0,1-3.81,6.149l-.464.464a15.783,15.783,0,1,1-22.319-22.322l.461-.464a15.749,15.749,0,0,1,6.149-3.807,3.853,3.853,0,0,0,1.465-6.376l-5.533-5.533-34.84,34.843a30.318,30.318,0,0,0,0,42.876l31.1,31.108,9.66-9.66a3.854,3.854,0,0,1,6.445,1.684,15.693,15.693,0,0,0,4.073,7.031l.464.464a15.784,15.784,0,0,0,22.322-22.322l-.464-.464a15.693,15.693,0,0,0-7.031-4.073,3.853,3.853,0,0,1-1.681-6.445l16.876-16.876a7.949,7.949,0,0,0,0-11.242Zm0,0" transform="translate(-41.116 -54.498)" fill="#a0e557"/>
  <path id="路径_33" data-name="路径 33" d="M337.555,170.435a3.852,3.852,0,0,1,1.462-6.376,15.679,15.679,0,0,0,6.149-3.81l.464-.461a15.784,15.784,0,1,0-22.322-22.322l-.464.464a15.683,15.683,0,0,0-3.807,6.146,3.854,3.854,0,0,1-6.379,1.465L302.44,135.32l-37.561,37.558a30.318,30.318,0,0,0,0,42.876l35.8,35.8,12.375-12.375a3.854,3.854,0,0,0-1.681-6.445,15.677,15.677,0,0,1-7.031-4.073l-.464-.464A15.783,15.783,0,0,1,326.2,205.877l.464.464a15.727,15.727,0,0,1,4.076,7.031,3.853,3.853,0,0,0,6.445,1.681l16.876-16.876a7.951,7.951,0,0,0,0-11.239Zm0,0" transform="translate(-60.01 -31.141)" fill="#ff5d5d"/>
  <path id="路径_34" data-name="路径 34" d="M389.736,57.84a7.653,7.653,0,0,0-10.826,0,134.5,134.5,0,0,0-33.7,57.586c-.416,1.426-.873,2.892-1.358,4.351a146.25,146.25,0,0,1-22.429,41.769c-.23.281-.473.553-.724.8a10.244,10.244,0,0,1-17.247-5.084c-.015-.054-.024-.111-.039-.161a10.238,10.238,0,0,1,2.09-8.487,125.933,125.933,0,0,0,18.287-33.491c9.1-25.982,5.147-48.486-11.445-65.078A40.483,40.483,0,0,0,284.69,38.058a37.156,37.156,0,0,0-38.411,39.149,10.254,10.254,0,1,1-20.488.9,58.248,58.248,0,0,1,16.822-43.7c15.644-15.644,38.731-20.9,60.248-13.724a31.765,31.765,0,0,0,32.717-7.614A7.655,7.655,0,0,0,324.751,2.243a16.537,16.537,0,0,1-17.046,3.915c-27.059-9.026-56.151-2.351-75.921,17.42a73.612,73.612,0,0,0-21.293,55.2,25.43,25.43,0,0,0,6.663,16.086l-10.545,10.545a23.475,23.475,0,0,0-3.66-4.743l-.464-.464a23.439,23.439,0,0,0-33.147,33.147l.464.464a23.392,23.392,0,0,0,4.743,3.66l-12.907,12.907a15.482,15.482,0,0,0-4.064,7.174,15.452,15.452,0,0,0-7.174,4.064l-12.907,12.907a23.391,23.391,0,0,0-3.66-4.743l-.464-.464A23.439,23.439,0,0,0,100.22,202.47l.464.464a23.392,23.392,0,0,0,4.743,3.66L94.879,217.142a25.464,25.464,0,0,0-16.1-6.666,73.6,73.6,0,0,0-55.2,21.293C3.81,251.539-2.868,280.631,6.158,307.69a16.538,16.538,0,0,1-3.915,17.046,7.655,7.655,0,0,0,10.826,10.826,31.759,31.759,0,0,0,7.614-32.717c-7.177-21.52-1.917-44.607,13.727-60.248a58.238,58.238,0,0,1,43.7-16.825,10.256,10.256,0,0,1-.9,20.491,37.21,37.21,0,0,0-28.3,10.832C34,272.01,34.511,296.786,50.05,312.328a53.215,53.215,0,0,0,38.9,16.221c30.758,0,59.267-22.734,59.674-23.063a10.254,10.254,0,0,1,13.733,15.192,9.808,9.808,0,0,1-.81.73,146.3,146.3,0,0,1-41.769,22.429c-1.438.481-2.9.936-4.348,1.358A134.537,134.537,0,0,0,57.84,378.9a7.657,7.657,0,0,0,10.829,10.829A119.178,119.178,0,0,1,119.7,359.9c1.639-.475,3.293-.993,4.916-1.534A163.484,163.484,0,0,0,171.195,333.3a26.012,26.012,0,0,0,1.986-1.788,25.5,25.5,0,0,0,1.755-34.173c-.054-.066-.114-.129-.167-.194l10.6-10.6a23.475,23.475,0,0,0,3.66,4.743l.464.461A23.439,23.439,0,1,0,222.641,258.6l-.464-.464a23.474,23.474,0,0,0-4.743-3.66l12.907-12.907a15.452,15.452,0,0,0,4.064-7.174,15.482,15.482,0,0,0,7.174-4.064l16.876-16.876a11.51,11.51,0,0,0-5.1-19.25,7.977,7.977,0,0,1-3.613-2.093l-.461-.464a8.128,8.128,0,0,1,11.493-11.5l.464.464a7.982,7.982,0,0,1,2.1,3.613,11.509,11.509,0,0,0,19.25,5.1l14.561-14.564c.069.057.135.117.2.173a25.495,25.495,0,0,0,34.176-1.755c.622-.625,1.223-1.292,1.785-1.983a163.445,163.445,0,0,0,25.067-46.584c.55-1.648,1.065-3.3,1.534-4.913a119.207,119.207,0,0,1,29.825-51.034A7.653,7.653,0,0,0,389.736,57.84ZM261.576,76.534a21.842,21.842,0,0,1,22.719-23.171,25.221,25.221,0,0,1,17.22,7.512c30,30-7.539,77.641-7.9,78.1a25.721,25.721,0,0,0-2.27,3.293l-4.629-4.629a23.526,23.526,0,0,0,3.858-3.11l.464-.464a23.44,23.44,0,0,0-33.144-33.153l-.467.467a23.39,23.39,0,0,0-3.113,3.858l-5.464-5.464A25.586,25.586,0,0,0,261.576,76.534ZM60.879,301.5c-9.573-9.57-10.084-24.633-1.142-33.575a22.1,22.1,0,0,1,16.8-6.364,25.547,25.547,0,0,0,23.24-12.737l5.652,5.652a23.552,23.552,0,0,0-4.809,3.7l-.458.461a23.438,23.438,0,1,0,33.15,33.141l.458-.458a23.479,23.479,0,0,0,3.7-4.806l4.8,4.806A25.569,25.569,0,0,0,139,293.578C138.517,293.96,90.883,331.507,60.879,301.5Zm158.637-70.763-16.876,16.876a11.509,11.509,0,0,0,5.1,19.25,7.988,7.988,0,0,1,3.61,2.1l.464.464a8.128,8.128,0,0,1-11.493,11.5l-.464-.467a7.957,7.957,0,0,1-2.1-3.61,11.509,11.509,0,0,0-19.25-5.1l-16.876,16.876a.281.281,0,0,1-.188.078c-.036-.009-.069-.021-.1-.03a.247.247,0,0,1-.12-.048L144.313,271.7a11.51,11.51,0,0,0-19.262,5.147,8.116,8.116,0,0,1-2.108,3.646l-.458.461a8.128,8.128,0,1,1-11.49-11.5l.455-.461a8,8,0,0,1,3.645-2.1,11.51,11.51,0,0,0,5.147-19.262l-16.9-16.9a.289.289,0,0,1,0-.41l16.873-16.87a.01.01,0,0,1,0-.006,11.509,11.509,0,0,0-5.1-19.25,7.988,7.988,0,0,1-3.61-2.1l-.464-.464a8.127,8.127,0,1,1,11.493-11.493l.464.464a7.973,7.973,0,0,1,2.1,3.61,11.509,11.509,0,0,0,19.25,5.1l16.876-16.876a.289.289,0,0,1,.41,0l12.728,12.728a23.649,23.649,0,0,0-3.855,3.113l-.464.464A23.439,23.439,0,1,0,203.191,221.9l.464-.464a23.4,23.4,0,0,0,3.119-3.849l12.74,12.74A.286.286,0,0,1,219.516,230.737Zm56.211-56.208a23.392,23.392,0,0,0-3.66-4.743l-.464-.464a23.439,23.439,0,0,0-33.147,33.147l.464.464a23.475,23.475,0,0,0,4.743,3.66L230.755,219.5a.3.3,0,0,1-.413,0L213.84,203a11.511,11.511,0,0,0-19.053,4.456,8.013,8.013,0,0,1-1.959,3.158l-.464.461a8.127,8.127,0,1,1-11.493-11.493l.464-.464a8.013,8.013,0,0,1,3.158-1.959,11.509,11.509,0,0,0,4.453-19.053l-16.484-16.481a.292.292,0,0,1,0-.413l16.876-16.876a11.509,11.509,0,0,0-5.1-19.25,7.988,7.988,0,0,1-3.61-2.1l-.464-.464a8.127,8.127,0,1,1,11.493-11.493l.464.464a7.988,7.988,0,0,1,2.1,3.61,11.509,11.509,0,0,0,19.25,5.1l16.876-16.876a.289.289,0,0,1,.41,0l16.484,16.484a11.508,11.508,0,0,0,19.053-4.453,8.009,8.009,0,0,1,1.956-3.155l.467-.467a8.128,8.128,0,0,1,11.493,11.5l-.461.461a8.065,8.065,0,0,1-3.161,1.962,11.508,11.508,0,0,0-4.453,19.053l16.5,16.5a.283.283,0,0,1,.048.111c.009.039.021.078.03.117a.287.287,0,0,1-.078.182Zm0,0" fill="#5b4016"/>
  <path id="路径_35" data-name="路径 35" d="M104.094,114.924A7.656,7.656,0,1,0,114.92,104.1L86.384,75.559A7.656,7.656,0,0,0,75.555,86.385Zm0,0" transform="translate(-17.186 -17.187)" fill="#5b4016"/>
  <path id="路径_36" data-name="路径 36" d="M143.394,151.05a7.658,7.658,0,1,0-5.413-2.243A7.686,7.686,0,0,0,143.394,151.05Zm0,0" transform="translate(-31.819 -31.819)" fill="#5b4016"/>
  <path id="路径_37" data-name="路径 37" d="M62.73,180.235h0l22.947-.009a7.656,7.656,0,0,0,0-15.312h0l-22.947.009a7.656,7.656,0,0,0,0,15.312Zm0,0" transform="translate(-12.91 -38.659)" fill="#5b4016"/>
  <path id="路径_38" data-name="路径 38" d="M172.621,94.8h0a7.661,7.661,0,0,0,7.653-7.659l-.012-24.415a7.655,7.655,0,0,0-7.656-7.653h0a7.659,7.659,0,0,0-7.653,7.659l.012,24.415A7.655,7.655,0,0,0,172.621,94.8Zm0,0" transform="translate(-38.668 -12.911)" fill="#5b4016"/>
  <path id="路径_39" data-name="路径 39" d="M394.479,383.61a7.656,7.656,0,1,0-10.829,10.826l28.539,28.539a7.656,7.656,0,1,0,10.826-10.829Zm0,0" transform="translate(-89.408 -89.398)" fill="#5b4016"/>
  <path id="路径_40" data-name="路径 40" d="M362.664,354.969a7.658,7.658,0,1,0,5.413,2.243A7.71,7.71,0,0,0,362.664,354.969Zm0,0" transform="translate(-83.219 -83.211)" fill="#5b4016"/>
  <path id="路径_41" data-name="路径 41" d="M437.553,327.035h0l-22.944.009a7.656,7.656,0,0,0,0,15.312h0l22.947-.009a7.656,7.656,0,0,0-.006-15.312Zm0,0" transform="translate(-95.396 -76.663)" fill="#5b4016"/>
  <path id="路径_42" data-name="路径 42" d="M334.687,404.992h0a7.657,7.657,0,0,0-7.653,7.659l.009,24.415a7.658,7.658,0,0,0,7.656,7.653h0a7.655,7.655,0,0,0,7.653-7.659l-.009-24.415A7.655,7.655,0,0,0,334.687,404.992Zm0,0" transform="translate(-76.661 -94.937)" fill="#5b4016"/>
</svg>
