<svg id="组_84" data-name="组 84" xmlns="http://www.w3.org/2000/svg" width="100" height="100" viewBox="0 0 391.979 309.296">
  <path id="路径_19" data-name="路径 19" d="M400.332,340.615l9.238-12.178h35V265.292H410.332l-9.238-12.178a41.688,41.688,0,0,0-33.213-16.493H313.854a22.742,22.742,0,0,0-22.719,21.762H274.8A17.8,17.8,0,0,0,257.164,273.8a17.8,17.8,0,0,0,16.867,12.124A17.8,17.8,0,0,0,257,298.55v10.341a17.8,17.8,0,0,0,17.031,12.626A17.8,17.8,0,0,0,257,334.14v10.341A17.8,17.8,0,0,0,274.031,357.1h93.087A41.685,41.685,0,0,0,400.332,340.615Zm0,0" transform="translate(-60.245 -55.468)" fill="#fcc69d"/>
  <path id="路径_20" data-name="路径 20" d="M180.54,285.927a17.8,17.8,0,0,0,17.33-13.772,17.793,17.793,0,0,0-17.33-13.769H164.2a22.744,22.744,0,0,0-22.719-21.762H87.453a41.688,41.688,0,0,0-33.213,16.493L45,265.3H10v63.143H45l9.238,12.178a41.688,41.688,0,0,0,33.213,16.493H180.54a17.8,17.8,0,0,0,0-35.591,17.8,17.8,0,0,0,0-35.591Zm0,0" transform="translate(-2.344 -55.469)" fill="#fcc69d"/>
  <path id="路径_21" data-name="路径 21" d="M70.776,275.849a28.189,28.189,0,0,0,26.039-17.3A7.655,7.655,0,1,0,82.7,252.615a12.911,12.911,0,0,1-11.926,7.922H65.39a7.656,7.656,0,1,0,0,15.312Zm0,0" transform="translate(-13.534 -58.118)" fill="#5b4016"/>
  <path id="路径_22" data-name="路径 22" d="M384.323,305.076h-35a7.659,7.659,0,0,0-6.1,3.029l-9.238,12.178a34.221,34.221,0,0,1-27.115,13.464H289.519a25.385,25.385,0,0,0-5.165-27.935,25.392,25.392,0,0,0,0-35.591,25.428,25.428,0,0,0-16.236-43.166A31.059,31.059,0,0,0,269.438,223h24.547a7.656,7.656,0,1,0,0-15.312H262.721a7.657,7.657,0,0,0-7.656,7.656,16.255,16.255,0,0,1-16.236,16.239h-1.077V200.023a15.109,15.109,0,0,1,15.09-15.09h54.031A34.214,34.214,0,0,1,333.986,198.4l9.238,12.175a7.663,7.663,0,0,0,6.1,3.029h35a7.656,7.656,0,1,0,0-15.312h-31.2l-6.941-9.148a49.618,49.618,0,0,0-39.311-19.522H252.843A30.451,30.451,0,0,0,223.7,191.383h-9.917a25.365,25.365,0,0,0-17.794,7.279,25.365,25.365,0,0,0-17.794-7.279h-9.917a30.451,30.451,0,0,0-29.143-21.762H85.105a49.618,49.618,0,0,0-39.311,19.522l-6.941,9.148H7.656a7.656,7.656,0,1,0,0,15.312h35a7.659,7.659,0,0,0,6.1-3.029L57.993,198.4a34.215,34.215,0,0,1,27.115-13.467h54.031a15.106,15.106,0,0,1,15.087,15.09V231.58h-1.074a16.258,16.258,0,0,1-16.239-16.239,7.655,7.655,0,0,0-7.656-7.656H97.995a7.656,7.656,0,0,0,0,15.312h24.547a31.066,31.066,0,0,0,1.319,4.058,25.428,25.428,0,0,0-16.236,43.166,25.392,25.392,0,0,0,0,35.591,25.384,25.384,0,0,0-5.165,27.935H85.108a34.221,34.221,0,0,1-27.115-13.464l-9.238-12.178a7.659,7.659,0,0,0-6.1-3.029h-35a7.656,7.656,0,0,0,0,15.312h31.2l6.941,9.148a49.61,49.61,0,0,0,39.314,19.522H178.2a25.365,25.365,0,0,0,17.794-7.279,25.365,25.365,0,0,0,17.794,7.279h93.087a49.61,49.61,0,0,0,39.314-19.522l6.941-9.148h31.2a7.656,7.656,0,1,0,0-15.312ZM115.657,288.017A10.152,10.152,0,0,1,125.8,277.876h52.4a10.139,10.139,0,0,1,0,20.279H125.8A10.151,10.151,0,0,1,115.657,288.017Zm87.988,0a10.151,10.151,0,0,1,10.138-10.141h52.4a10.139,10.139,0,1,1,0,20.279h-52.4A10.15,10.15,0,0,1,203.645,288.017Zm35.181-41.126a31.374,31.374,0,0,0,16.4-4.605h10.957a10.139,10.139,0,1,1,0,20.279h-52.4a10.139,10.139,0,0,1,0-20.279h9.295a7.652,7.652,0,0,0,7.019,4.605Zm-25.043-40.2h8.658v20.279h-8.658a10.14,10.14,0,0,1,0-20.279Zm-25.45,10.138A10.151,10.151,0,0,1,178.2,226.974h-8.658V206.7H178.2A10.15,10.15,0,0,1,188.334,216.833ZM125.8,242.286h10.957a31.374,31.374,0,0,0,16.4,4.605h8.729a7.652,7.652,0,0,0,7.019-4.605H178.2a10.139,10.139,0,0,1,0,20.279H125.8a10.139,10.139,0,1,1,0-20.279Zm52.4,91.46H125.8a10.139,10.139,0,1,1,0-20.279h52.4a10.139,10.139,0,0,1,0,20.279Zm35.588,0a10.139,10.139,0,0,1,0-20.279h52.4a10.139,10.139,0,1,1,0,20.279Zm0,0" transform="translate(0 -39.762)" fill="#5b4016"/>
  <path id="路径_23" data-name="路径 23" d="M429.03,260.537a12.916,12.916,0,0,1-11.929-7.922,7.655,7.655,0,1,0-14.112,5.936,28.19,28.19,0,0,0,26.042,17.3h5.386a7.656,7.656,0,0,0,0-15.312Zm0,0" transform="translate(-94.326 -58.118)" fill="#5b4016"/>
  <path id="路径_24" data-name="路径 24" d="M253.644,73.5A7.655,7.655,0,0,0,261.3,65.84V7.656a7.656,7.656,0,1,0-15.312,0V65.84A7.655,7.655,0,0,0,253.644,73.5Zm0,0" transform="translate(-57.664)" fill="#5b4016"/>
  <path id="路径_25" data-name="路径 25" d="M253.644,113.5a7.658,7.658,0,1,0,5.413,2.243A7.71,7.71,0,0,0,253.644,113.5Zm0,0" transform="translate(-57.664 -26.606)" fill="#5b4016"/>
  <path id="路径_26" data-name="路径 26" d="M162.1,90.3a7.655,7.655,0,0,0,10.823-10.829L132.964,39.548A7.656,7.656,0,0,0,122.141,50.38Zm0,0" transform="translate(-28.106 -8.746)" fill="#5b4016"/>
  <path id="路径_27" data-name="路径 27" d="M331.816,91.943a7.636,7.636,0,0,0,5.416-2.246l36.7-36.733A7.656,7.656,0,1,0,363.1,42.141L326.4,78.874a7.657,7.657,0,0,0,5.416,13.069Zm0,0" transform="translate(-75.989 -9.353)" fill="#5b4016"/>
</svg>
