<svg xmlns="http://www.w3.org/2000/svg" width="100" height="100" viewBox="0 0 490.841 490.841">
  <g id="pic_landing_page_1" data-name="pic_landing page_1" transform="translate(-715 -607)">
    <g id="组_62" data-name="组 62" transform="translate(869.41 635.632)">
      <path id="路径_43" data-name="路径 43" d="M201.592,208.584c.651.259,1.316.488,1.967.732-.118-.044-.229-.1-.348-.14C202.679,208.976,202.124,208.8,201.592,208.584Z" transform="translate(-140.968 -23.192)" fill="#d45b5b"/>
      <path id="路径_44" data-name="路径 44" d="M177.961,195.326c-.1-.074-.192-.14-.281-.214C177.776,195.186,177.865,195.26,177.961,195.326Z" transform="translate(-139.157 -22.172)" fill="#d45b5b"/>
      <path id="路径_45" data-name="路径 45" d="M185.967,200.737c-.266-.163-.532-.318-.791-.481C185.435,200.419,185.7,200.574,185.967,200.737Z" transform="translate(-139.725 -22.562)" fill="#d45b5b"/>
      <path id="路径_46" data-name="路径 46" d="M294.767,200.256c-.266.163-.532.318-.791.481C294.235,200.574,294.5,200.419,294.767,200.256Z" transform="translate(-147.965 -22.562)" fill="#d45b5b"/>
      <path id="路径_47" data-name="路径 47" d="M302.3,195.12l-.281.214C302.112,195.26,302.2,195.187,302.3,195.12Z" transform="translate(-148.574 -22.173)" fill="#d45b5b"/>
      <path id="路径_48" data-name="路径 48" d="M194.659,205.484c-.51-.244-1.02-.481-1.531-.732C193.638,205.011,194.156,205.24,194.659,205.484Z" transform="translate(-140.327 -22.902)" fill="#d45b5b"/>
      <path id="路径_49" data-name="路径 49" d="M286.739,204.752c-.5.259-1.02.488-1.531.732C285.718,205.24,286.236,205.011,286.739,204.752Z" transform="translate(-147.301 -22.902)" fill="#d45b5b"/>
      <path id="路径_50" data-name="路径 50" d="M249.448,215.547c.237-.022.481-.037.717-.067-.118.015-.244.007-.362.022S249.566,215.539,249.448,215.547Z" transform="translate(-144.593 -23.715)" fill="#d45b5b"/>
      <path id="路径_51" data-name="路径 51" d="M267.608,212.169c.569-.155,1.146-.3,1.715-.473-.355.1-.725.177-1.08.281C268.029,212.036,267.822,212.11,267.608,212.169Z" transform="translate(-145.968 -23.428)" fill="#d45b5b"/>
      <path id="路径_52" data-name="路径 52" d="M276.272,209.316c.658-.244,1.324-.473,1.967-.732-.532.214-1.087.392-1.627.592A2.34,2.34,0,0,1,276.272,209.316Z" transform="translate(-146.624 -23.192)" fill="#d45b5b"/>
      <path id="路径_53" data-name="路径 53" d="M258.656,214.261c.436-.081.865-.148,1.3-.237-.237.044-.481.067-.71.111C259.048,214.172,258.856,214.224,258.656,214.261Z" transform="translate(-145.29 -23.604)" fill="#d45b5b"/>
      <path id="路径_54" data-name="路径 54" d="M229.776,215.48l.717.067c-.118-.007-.237-.037-.355-.044S229.894,215.495,229.776,215.48Z" transform="translate(-143.103 -23.715)" fill="#d45b5b"/>
      <path id="路径_55" data-name="路径 55" d="M210.536,211.7c.569.17,1.146.318,1.715.473-.214-.059-.421-.133-.636-.192C211.253,211.873,210.891,211.807,210.536,211.7Z" transform="translate(-141.645 -23.428)" fill="#d45b5b"/>
      <path id="路径_56" data-name="路径 56" d="M219.936,214.024c.429.089.865.155,1.3.237-.2-.037-.392-.089-.592-.126C220.409,214.091,220.173,214.068,219.936,214.024Z" transform="translate(-142.357 -23.604)" fill="#d45b5b"/>
      <path id="路径_57" data-name="路径 57" d="M253.336,214.99c1.649-.214,3.3-.414,4.917-.71-1.272.237-2.581.37-3.874.555C254.031,214.879,253.691,214.945,253.336,214.99Z" transform="translate(-144.887 -23.624)" fill="#d45b5b"/>
      <path id="路径_58" data-name="路径 58" d="M211.7,212c.214.059.421.133.636.192.614.17,1.25.288,1.871.451C213.375,212.429,212.532,212.237,211.7,212Z" transform="translate(-141.734 -23.451)" fill="#d45b5b"/>
      <path id="路径_59" data-name="路径 59" d="M254.472,214.824c1.294-.185,2.6-.318,3.874-.555.2-.037.392-.089.592-.126C257.459,214.418,255.958,214.617,254.472,214.824Z" transform="translate(-144.973 -23.614)" fill="#d45b5b"/>
      <path id="路径_60" data-name="路径 60" d="M221.344,214.28c1.619.3,3.268.5,4.917.71-.348-.044-.7-.111-1.043-.163C223.925,214.65,222.616,214.509,221.344,214.28Z" transform="translate(-142.464 -23.624)" fill="#d45b5b"/>
      <path id="路径_61" data-name="路径 61" d="M265.584,212.643c.621-.155,1.257-.281,1.871-.451.214-.059.421-.133.636-.192C267.262,212.237,266.42,212.429,265.584,212.643Z" transform="translate(-145.815 -23.451)" fill="#d45b5b"/>
      <path id="路径_62" data-name="路径 62" d="M240,215.962c2.95,0,5.856-.155,8.732-.414.118-.007.237-.037.355-.044C246.093,215.785,243.069,215.962,240,215.962Z" transform="translate(-143.877 -23.717)" fill="#d45b5b"/>
      <path id="路径_63" data-name="路径 63" d="M263.624,213.125c1.235-.288,2.462-.577,3.682-.917-.614.17-1.25.288-1.871.451S264.238,212.984,263.624,213.125Z" transform="translate(-145.666 -23.467)" fill="#d45b5b"/>
      <path id="路径_64" data-name="路径 64" d="M212.392,212.208c1.213.34,2.447.628,3.682.917-.606-.14-1.205-.311-1.812-.466S213.006,212.378,212.392,212.208Z" transform="translate(-141.786 -23.467)" fill="#d45b5b"/>
      <path id="路径_65" data-name="路径 65" d="M275.76,209.527c.155-.059.318-.1.473-.163.118-.044.229-.1.348-.14C276.307,209.335,276.034,209.431,275.76,209.527Z" transform="translate(-146.586 -23.241)" fill="#d45b5b"/>
      <path id="路径_66" data-name="路径 66" d="M197.783,206.99c-.436-.192-.85-.421-1.279-.614C196.933,206.576,197.347,206.8,197.783,206.99Z" transform="translate(-140.583 -23.025)" fill="#d45b5b"/>
      <path id="路径_67" data-name="路径 67" d="M273.144,210.426c.976-.333,1.937-.688,2.891-1.05-.155.059-.318.1-.473.163C274.756,209.834,273.957,210.152,273.144,210.426Z" transform="translate(-146.387 -23.252)" fill="#d45b5b"/>
      <path id="路径_68" data-name="路径 68" d="M230.523,215.548c2.876.259,5.782.414,8.732.414-3.069,0-6.093-.177-9.087-.458C230.286,215.511,230.4,215.541,230.523,215.548Z" transform="translate(-143.132 -23.717)" fill="#d45b5b"/>
      <path id="路径_69" data-name="路径 69" d="M283.4,206.376c-.429.2-.85.421-1.279.614C282.549,206.8,282.963,206.576,283.4,206.376Z" transform="translate(-147.067 -23.025)" fill="#d45b5b"/>
      <path id="路径_70" data-name="路径 70" d="M220.7,214.144c.2.037.392.089.592.126,1.272.237,2.581.37,3.874.555C223.676,214.617,222.175,214.418,220.7,214.144Z" transform="translate(-142.416 -23.614)" fill="#d45b5b"/>
      <path id="路径_71" data-name="路径 71" d="M203.728,209.376c.961.362,1.922.717,2.891,1.05-.813-.274-1.612-.592-2.418-.887C204.046,209.487,203.883,209.435,203.728,209.376Z" transform="translate(-141.13 -23.252)" fill="#d45b5b"/>
      <path id="路径_72" data-name="路径 72" d="M248.732,215.552c-2.876.259-5.782.414-8.732.414C242.95,215.966,245.856,215.811,248.732,215.552Z" transform="translate(-143.877 -23.72)" fill="#d45b5b"/>
      <path id="路径_73" data-name="路径 73" d="M203.352,209.232c.118.044.229.1.348.14.155.059.318.1.473.163C203.9,209.432,203.626,209.336,203.352,209.232Z" transform="translate(-141.101 -23.242)" fill="#d45b5b"/>
      <path id="路径_74" data-name="路径 74" d="M239.284,215.966c-2.95,0-5.856-.155-8.732-.414C233.428,215.811,236.334,215.966,239.284,215.966Z" transform="translate(-143.161 -23.72)" fill="#d45b5b"/>
      <path id="路径_75" data-name="路径 75" d="M200.264,207.992c.414.17.806.377,1.227.547.532.214,1.087.392,1.627.592C202.157,208.768,201.21,208.384,200.264,207.992Z" transform="translate(-140.867 -23.148)" fill="#d45b5b"/>
      <path id="路径_76" data-name="路径 76" d="M276.648,209.139c.54-.2,1.087-.384,1.627-.592.414-.17.813-.377,1.227-.547C278.556,208.384,277.609,208.769,276.648,209.139Z" transform="translate(-146.653 -23.148)" fill="#d45b5b"/>
      <path id="路径_77" data-name="路径 77" d="M278.408,208.467c1.154-.458,2.3-.924,3.423-1.427-.717.318-1.471.577-2.2.88C279.221,208.1,278.822,208.3,278.408,208.467Z" transform="translate(-146.786 -23.075)" fill="#d45b5b"/>
      <path id="路径_78" data-name="路径 78" d="M227.48,215.152c.71.089,1.4.229,2.122.3.118.015.244.007.362.022C229.129,215.4,228.308,215.256,227.48,215.152Z" transform="translate(-142.929 -23.69)" fill="#d45b5b"/>
      <path id="路径_79" data-name="路径 79" d="M197.888,207.04c1.131.5,2.277.969,3.423,1.427-.414-.17-.813-.377-1.227-.547C199.359,207.617,198.605,207.365,197.888,207.04Z" transform="translate(-140.687 -23.075)" fill="#d45b5b"/>
      <path id="路径_80" data-name="路径 80" d="M175.595,193.522v-.111c-1.678-1.316-3.357-2.632-4.947-4.059h0q3.128,2.806,6.492,5.331c-.148-.111-.274-.237-.421-.348C176.356,194.055,175.957,193.8,175.595,193.522Z" transform="translate(-138.624 -21.736)" fill="#d45b5b"/>
      <path id="路径_81" data-name="路径 81" d="M269.464,211.606c1.146-.34,2.27-.717,3.4-1.094-.592.2-1.205.362-1.8.555C270.521,211.237,270,211.451,269.464,211.606Z" transform="translate(-146.109 -23.338)" fill="#d45b5b"/>
      <path id="路径_82" data-name="路径 82" d="M206.856,210.512c1.131.377,2.255.762,3.4,1.094-.54-.163-1.057-.37-1.59-.54C208.061,210.874,207.448,210.712,206.856,210.512Z" transform="translate(-141.367 -23.338)" fill="#d45b5b"/>
      <path id="路径_83" data-name="路径 83" d="M232.123,8a96.028,96.028,0,0,0-64.1,167.616h0c1.59,1.427,3.268,2.743,4.947,4.059V158.122a31.82,31.82,0,0,1,31.817-31.817h27.336c-15.683,0-44.364-19.86-44.364-44.364s7.394-51.759,44.364-51.759,44.364,27.255,44.364,51.759-28.682,44.364-44.364,44.364h27.336a31.82,31.82,0,0,1,31.817,31.817v21.554c1.678-1.316,3.357-2.632,4.947-4.059h0a95.774,95.774,0,0,0,7.394-135.592h0A95.816,95.816,0,0,0,232.123,8Z" transform="translate(-136 -8)" fill="#d45b5b"/>
      <path id="路径_84" data-name="路径 84" d="M303.873,193.4v.111c-.362.288-.762.532-1.131.813-.148.111-.274.237-.421.348q3.372-2.529,6.492-5.331h0C307.23,190.771,305.551,192.087,303.873,193.4Z" transform="translate(-148.597 -21.735)" fill="#d45b5b"/>
      <path id="路径_85" data-name="路径 85" d="M300.576,196.207c.436-.311.9-.584,1.331-.909.1-.074.192-.141.281-.214.148-.111.274-.237.422-.348C301.944,195.246,301.256,195.719,300.576,196.207Z" transform="translate(-148.465 -22.144)" fill="#d45b5b"/>
      <path id="路径_86" data-name="路径 86" d="M295.475,199.441c-.222.14-.421.3-.643.444,2.285-1.42,4.488-2.935,6.64-4.533-.429.318-.895.592-1.331.909C298.61,197.356,297.072,198.428,295.475,199.441Z" transform="translate(-148.03 -22.19)" fill="#d45b5b"/>
      <path id="路径_87" data-name="路径 87" d="M268.3,211.933c.355-.1.725-.17,1.079-.281.54-.163,1.057-.37,1.59-.54C270.085,211.393,269.2,211.674,268.3,211.933Z" transform="translate(-146.02 -23.384)" fill="#d45b5b"/>
      <path id="路径_88" data-name="路径 88" d="M283.5,206.314c.532-.244,1.057-.51,1.582-.762-.17.081-.355.155-.525.237C284.2,205.951,283.859,206.144,283.5,206.314Z" transform="translate(-147.172 -22.963)" fill="#d45b5b"/>
      <path id="路径_89" data-name="路径 89" d="M284.64,205.679c.17-.081.355-.148.525-.237.51-.244,1.02-.481,1.531-.732.311-.155.6-.348.909-.51C286.629,204.71,285.638,205.206,284.64,205.679Z" transform="translate(-147.258 -22.86)" fill="#d45b5b"/>
      <path id="路径_90" data-name="路径 90" d="M292.728,201.344c.377-.222.776-.414,1.146-.643.266-.163.532-.318.791-.481.222-.14.429-.3.643-.444C294.466,200.316,293.6,200.826,292.728,201.344Z" transform="translate(-147.871 -22.525)" fill="#d45b5b"/>
      <path id="路径_91" data-name="路径 91" d="M287.773,203.941c-.311.163-.6.348-.909.51,2.248-1.139,4.429-2.373,6.566-3.675-.37.229-.769.421-1.146.643C290.805,202.292,289.3,203.142,287.773,203.941Z" transform="translate(-147.427 -22.601)" fill="#d45b5b"/>
      <path id="路径_92" data-name="路径 92" d="M260.064,213.962c1.109-.214,2.2-.5,3.29-.762-.436.1-.88.192-1.316.288C261.373,213.629,260.729,213.829,260.064,213.962Z" transform="translate(-145.397 -23.542)" fill="#d45b5b"/>
      <path id="路径_93" data-name="路径 93" d="M250.224,215.447c.969-.1,1.915-.274,2.876-.4-.251.03-.5.067-.754.1C251.636,215.233,250.941,215.381,250.224,215.447Z" transform="translate(-144.651 -23.682)" fill="#d45b5b"/>
      <path id="路径_94" data-name="路径 94" d="M208.808,211.112c.54.17,1.05.384,1.59.54.355.1.725.177,1.08.281C210.583,211.674,209.7,211.393,208.808,211.112Z" transform="translate(-141.515 -23.384)" fill="#d45b5b"/>
      <path id="路径_95" data-name="路径 95" d="M249.832,215.477c.118-.015.244-.007.362-.022.717-.074,1.4-.214,2.122-.3C251.488,215.256,250.668,215.4,249.832,215.477Z" transform="translate(-144.622 -23.69)" fill="#d45b5b"/>
      <path id="路径_96" data-name="路径 96" d="M194.784,205.544c.525.251,1.05.518,1.582.762-.355-.163-.7-.355-1.057-.525C195.139,205.7,194.961,205.633,194.784,205.544Z" transform="translate(-140.452 -22.962)" fill="#d45b5b"/>
      <path id="路径_97" data-name="路径 97" d="M216.376,213.2c1.094.259,2.181.54,3.29.762-.665-.133-1.309-.325-1.974-.473C217.256,213.392,216.812,213.3,216.376,213.2Z" transform="translate(-142.088 -23.542)" fill="#d45b5b"/>
      <path id="路径_98" data-name="路径 98" d="M192.152,204.2c.311.163.6.348.909.51.5.259,1.02.488,1.531.732.17.081.355.155.525.237C194.119,205.206,193.128,204.71,192.152,204.2Z" transform="translate(-140.253 -22.86)" fill="#d45b5b"/>
      <path id="路径_99" data-name="路径 99" d="M187.178,201.419c-.377-.222-.776-.414-1.146-.643,2.137,1.3,4.318,2.536,6.566,3.675-.311-.155-.6-.348-.909-.51C190.158,203.142,188.657,202.292,187.178,201.419Z" transform="translate(-139.789 -22.601)" fill="#d45b5b"/>
      <path id="路径_100" data-name="路径 100" d="M226.664,215.048c.961.126,1.908.3,2.876.4-.717-.074-1.4-.214-2.122-.3C227.167,215.115,226.915,215.085,226.664,215.048Z" transform="translate(-142.867 -23.682)" fill="#d45b5b"/>
      <path id="路径_101" data-name="路径 101" d="M217.8,213.512c.665.148,1.309.34,1.974.473.237.044.481.067.71.111C219.582,213.926,218.695,213.7,217.8,213.512Z" transform="translate(-142.196 -23.566)" fill="#d45b5b"/>
      <path id="路径_102" data-name="路径 102" d="M179.315,196.253c-.436-.311-.9-.584-1.331-.909,2.152,1.6,4.355,3.113,6.64,4.533-.222-.14-.429-.3-.643-.444C182.383,198.427,180.845,197.355,179.315,196.253Z" transform="translate(-139.18 -22.19)" fill="#d45b5b"/>
      <path id="路径_103" data-name="路径 103" d="M177.224,194.744c.148.111.274.237.421.348l.281.214c.429.318.895.592,1.331.909C178.577,195.72,177.889,195.247,177.224,194.744Z" transform="translate(-139.122 -22.144)" fill="#d45b5b"/>
      <path id="路径_104" data-name="路径 104" d="M259.3,214.1c.237-.044.481-.059.71-.111.665-.133,1.309-.325,1.974-.473C261.085,213.7,260.2,213.926,259.3,214.1Z" transform="translate(-145.339 -23.566)" fill="#d45b5b"/>
      <path id="路径_105" data-name="路径 105" d="M184.472,199.776c.222.14.421.3.643.444.266.163.532.318.791.481.37.229.769.421,1.146.643C186.187,200.826,185.322,200.316,184.472,199.776Z" transform="translate(-139.671 -22.525)" fill="#d45b5b"/>
      <path id="路径_106" data-name="路径 106" d="M303.907,193.855v-.111c-.384.3-.739.636-1.131.932C303.146,194.387,303.545,194.136,303.907,193.855Z" transform="translate(-148.632 -22.068)" fill="#d45b5b"/>
      <path id="路径_107" data-name="路径 107" d="M225.528,214.88c.348.052.7.111,1.043.163.251.03.5.067.754.1C226.726,215.065,226.134,214.961,225.528,214.88Z" transform="translate(-142.781 -23.669)" fill="#d45b5b"/>
      <path id="路径_108" data-name="路径 108" d="M214.416,212.7c.606.155,1.2.325,1.812.466.436.1.88.192,1.316.288C216.494,213.221,215.451,212.962,214.416,212.7Z" transform="translate(-141.939 -23.504)" fill="#d45b5b"/>
      <path id="路径_109" data-name="路径 109" d="M300.194,196.328c-1.523,1.1-3.076,2.174-4.666,3.187C297.125,198.5,298.663,197.43,300.194,196.328Z" transform="translate(-148.083 -22.264)" fill="#d45b5b"/>
      <path id="路径_110" data-name="路径 110" d="M204.24,209.552c.806.3,1.6.614,2.418.887.592.2,1.205.362,1.8.555C207.042,210.543,205.63,210.07,204.24,209.552Z" transform="translate(-141.169 -23.266)" fill="#d45b5b"/>
      <path id="路径_111" data-name="路径 111" d="M252.52,215.131c.251-.03.5-.067.754-.1.348-.044.7-.111,1.043-.163C253.718,214.961,253.126,215.064,252.52,215.131Z" transform="translate(-144.825 -23.669)" fill="#d45b5b"/>
      <path id="路径_112" data-name="路径 112" d="M187.272,201.472q2.218,1.32,4.51,2.521Q189.487,202.8,187.272,201.472Z" transform="translate(-139.883 -22.654)" fill="#d45b5b"/>
      <path id="路径_113" data-name="路径 113" d="M262.2,213.45c.436-.1.88-.185,1.316-.288.606-.14,1.205-.311,1.812-.466C264.293,212.962,263.25,213.221,262.2,213.45Z" transform="translate(-145.559 -23.504)" fill="#d45b5b"/>
      <path id="路径_114" data-name="路径 114" d="M292.358,201.472q-2.218,1.32-4.51,2.521C289.379,203.195,290.88,202.344,292.358,201.472Z" transform="translate(-147.501 -22.654)" fill="#d45b5b"/>
    </g>
    <path id="路径_163" data-name="路径 163" d="M244.467,206.822c.587-.072,1.16-.165,1.739-.251,1.446-.2,2.892-.394,4.316-.659.873-.165,1.732-.372,2.6-.565,1.016-.222,2.026-.472,3.028-.73.809-.208,1.625-.4,2.427-.623.873-.251,1.732-.523,2.591-.795,1.374-.437,2.742-.895,4.087-1.4.265-.1.53-.193.795-.293.931-.351,1.847-.723,2.756-1.1q2.223-.923,4.4-1.961c.966-.465,1.926-.938,2.87-1.432,1.482-.773,2.935-1.6,4.366-2.441.837-.5,1.682-.995,2.505-1.518,1.539-.981,3.035-2.019,4.517-3.085.659-.472,1.324-.931,1.968-1.417.379-.286.723-.608,1.1-.9V166.787A30.774,30.774,0,0,0,259.727,136H233.264l14.316,35.79-14.316,14.316L218.948,171.79,233.264,136H206.8A30.8,30.8,0,0,0,176,166.8v20.866c.372.293.716.616,1.1.9.644.487,1.31.945,1.968,1.417,1.475,1.067,2.978,2.1,4.517,3.085.823.523,1.668,1.016,2.505,1.518q2.147,1.278,4.366,2.441c.945.494,1.9.966,2.87,1.432,1.446.694,2.906,1.346,4.4,1.961.916.379,1.832.752,2.756,1.1.265.1.53.193.795.293,1.346.5,2.713.959,4.087,1.4.859.272,1.718.544,2.591.795.8.229,1.618.415,2.427.623q1.5.387,3.028.73c.866.193,1.725.4,2.6.565,1.424.265,2.87.458,4.316.659.58.079,1.16.179,1.739.251.8.1,1.6.236,2.405.308,2.906.265,5.834.437,8.8.437s5.9-.172,8.8-.444C242.87,207.058,243.665,206.922,244.467,206.822Z" transform="translate(724.088 617.23)" fill="#fff"/>
    <path id="路径_115" data-name="路径 115" d="M244.467,206.822c.587-.072,1.16-.165,1.739-.251,1.446-.2,2.892-.394,4.316-.659.873-.165,1.732-.372,2.6-.565,1.016-.222,2.026-.472,3.028-.73.809-.208,1.625-.4,2.427-.623.873-.251,1.732-.523,2.591-.795,1.374-.437,2.742-.895,4.087-1.4.265-.1.53-.193.795-.293.931-.351,1.847-.723,2.756-1.1q2.223-.923,4.4-1.961c.966-.465,1.926-.938,2.87-1.432,1.482-.773,2.935-1.6,4.366-2.441.837-.5,1.682-.995,2.505-1.518,1.539-.981,3.035-2.019,4.517-3.085.659-.472,1.324-.931,1.968-1.417.379-.286.723-.608,1.1-.9V166.787A30.774,30.774,0,0,0,259.727,136H233.264l14.316,35.79-14.316,14.316L218.948,171.79,233.264,136H206.8A30.8,30.8,0,0,0,176,166.8v20.866c.372.293.716.616,1.1.9.644.487,1.31.945,1.968,1.417,1.475,1.067,2.978,2.1,4.517,3.085.823.523,1.668,1.016,2.505,1.518q2.147,1.278,4.366,2.441c.945.494,1.9.966,2.87,1.432,1.446.694,2.906,1.346,4.4,1.961.916.379,1.832.752,2.756,1.1.265.1.53.193.795.293,1.346.5,2.713.959,4.087,1.4.859.272,1.718.544,2.591.795.8.229,1.618.415,2.427.623q1.5.387,3.028.73c.866.193,1.725.4,2.6.565,1.424.265,2.87.458,4.316.659.58.079,1.16.179,1.739.251.8.1,1.6.236,2.405.308,2.906.265,5.834.437,8.8.437s5.9-.172,8.8-.444C242.87,207.058,243.665,206.922,244.467,206.822Z" transform="translate(735.336 620.298)" fill="#b3d5e4"/>
    <g id="组_63" data-name="组 63" transform="translate(894.975 805.111)">
      <path id="路径_116" data-name="路径 116" d="M195.36,205.8c.393.188.769.4,1.17.581.475.221.941.466,1.415.679.794.352,1.628.638,2.438.973Q197.831,206.99,195.36,205.8Z" transform="translate(-175.563 -193.464)" fill="#d45b5b"/>
      <path id="路径_117" data-name="路径 117" d="M179.424,196.328c1.693,1.219,3.395,2.405,5.162,3.526C182.827,198.733,181.109,197.547,179.424,196.328Z" transform="translate(-175.923 -193.677)" fill="#d45b5b"/>
      <path id="路径_118" data-name="路径 118" d="M279.736,208.041c.81-.335,1.636-.622,2.438-.974.483-.213.941-.466,1.415-.679.393-.18.777-.393,1.17-.581Q282.28,206.986,279.736,208.041Z" transform="translate(-173.657 -193.463)" fill="#d45b5b"/>
      <path id="路径_119" data-name="路径 119" d="M271.192,211.147c.663-.213,1.342-.393,2-.614.9-.3,1.783-.654,2.675-.982C274.325,210.125,272.763,210.648,271.192,211.147Z" transform="translate(-173.85 -193.379)" fill="#d45b5b"/>
      <path id="路径_120" data-name="路径 120" d="M177.252,194.767c-.434-.327-.826-.7-1.252-1.031v.123C176.4,194.178,176.843,194.456,177.252,194.767Z" transform="translate(-176 -193.736)" fill="#d45b5b"/>
    </g>
    <path id="路径_162" data-name="路径 162" d="M238.558,58.6l33.256,19.953c0-22.042-6.651-46.558-39.907-46.558S192,56.516,192,78.558C192,78.558,231.907,78.558,238.558,58.6Z" transform="translate(720.307 610.249)" fill="#fff"/>
    <path id="路径_121" data-name="路径 121" d="M290.168,88.542,249.265,64C241.084,88.542,192,88.542,192,88.542c0,27.111,31.733,49.084,49.084,49.084S290.168,115.653,290.168,88.542Z" transform="translate(719.336 608.445)" fill="#fff"/>
    <path id="路径_122" data-name="路径 122" d="M238.558,58.6l33.256,19.953c0-22.042-6.651-46.558-39.907-46.558S192,56.516,192,78.558C192,78.558,231.907,78.558,238.558,58.6Z" transform="translate(737.691 618.43)" fill="#b3d5e4"/>
    <path id="路径_164" data-name="路径 164" d="M233.717,170.008l9.717-9.717L233.717,136,224,160.292Z" transform="translate(726.19 631.283)" fill="#fff"/>
    <path id="路径_123" data-name="路径 123" d="M233.717,170.008l9.717-9.717L233.717,136,224,160.292Z" transform="translate(733.348 633.328)" fill="#d45b5b"/>
    <path id="路径_124" data-name="路径 124" d="M387.431,470.144c-2,.376-4.041.671-6.095.933C383.381,470.807,385.418,470.52,387.431,470.144Z" transform="translate(723.612 617.618)" fill="#d45b5b"/>
    <path id="路径_125" data-name="路径 125" d="M325.919,463.055c-.483-.213-.941-.466-1.415-.679C324.978,462.6,325.437,462.842,325.919,463.055Z" transform="translate(722.329 617.443)" fill="#d45b5b"/>
    <path id="路径_126" data-name="路径 126" d="M354.8,471.069c-2.045-.262-4.082-.556-6.095-.933C350.716,470.521,352.753,470.807,354.8,471.069Z" transform="translate(722.875 617.618)" fill="#d45b5b"/>
    <path id="路径_127" data-name="路径 127" d="M378.054,471.5c-3.313.311-6.659.507-10.054.507C371.4,472.011,374.741,471.815,378.054,471.5Z" transform="translate(723.311 617.649)" fill="#d45b5b"/>
    <path id="路径_128" data-name="路径 128" d="M396.4,468c-1.579.442-3.166.851-4.777,1.227C393.236,468.851,394.823,468.45,396.4,468Z" transform="translate(723.845 617.57)" fill="#d45b5b"/>
    <path id="路径_129" data-name="路径 129" d="M368.222,472.011c-3.4,0-6.741-.2-10.054-.507C361.481,471.815,364.827,472.011,368.222,472.011Z" transform="translate(723.089 617.649)" fill="#d45b5b"/>
    <path id="路径_130" data-name="路径 130" d="M404.727,465.232c-1.194.45-2.372.908-3.583,1.309C402.355,466.132,403.541,465.682,404.727,465.232Z" transform="translate(724.06 617.507)" fill="#d45b5b"/>
    <path id="路径_131" data-name="路径 131" d="M334.935,466.541c-1.211-.409-2.4-.867-3.583-1.309C332.538,465.682,333.724,466.132,334.935,466.541Z" transform="translate(722.483 617.507)" fill="#d45b5b"/>
    <path id="路径_132" data-name="路径 132" d="M344.482,469.227q-2.405-.564-4.778-1.227C341.283,468.45,342.87,468.851,344.482,469.227Z" transform="translate(722.672 617.57)" fill="#d45b5b"/>
    <path id="路径_133" data-name="路径 133" d="M411.535,462.376c-.474.221-.941.466-1.415.679C410.595,462.842,411.053,462.6,411.535,462.376Z" transform="translate(724.262 617.443)" fill="#d45b5b"/>
    <path id="路径_134" data-name="路径 134" d="M358.247,471.514c-1.211-.115-2.389-.311-3.583-.466C355.858,471.2,357.036,471.4,358.247,471.514Z" transform="translate(723.01 617.638)" fill="#d45b5b"/>
    <path id="路径_135" data-name="路径 135" d="M381.415,471.048c-1.194.155-2.381.352-3.583.466C379.043,471.4,380.221,471.2,381.415,471.048Z" transform="translate(723.533 617.638)" fill="#d45b5b"/>
    <path id="路径_136" data-name="路径 136" d="M410.235,463.04c-1.824.818-3.706,1.522-5.587,2.241C406.53,464.57,408.411,463.85,410.235,463.04Z" transform="translate(724.139 617.458)" fill="#d45b5b"/>
    <path id="路径_137" data-name="路径 137" d="M401.254,466.512c-1.628.556-3.289,1.047-4.957,1.522C397.965,467.559,399.617,467.06,401.254,466.512Z" transform="translate(723.95 617.536)" fill="#d45b5b"/>
    <path id="路径_138" data-name="路径 138" d="M391.722,469.2c-1.473.344-2.937.679-4.434.957C388.785,469.879,390.258,469.544,391.722,469.2Z" transform="translate(723.747 617.597)" fill="#d45b5b"/>
    <path id="路径_139" data-name="路径 139" d="M339.814,468.034c-1.669-.474-3.321-.965-4.957-1.522C336.492,467.06,338.145,467.559,339.814,468.034Z" transform="translate(722.563 617.536)" fill="#d45b5b"/>
    <path id="路径_140" data-name="路径 140" d="M348.8,470.165c-1.489-.278-2.961-.614-4.434-.957C345.841,469.543,347.313,469.879,348.8,470.165Z" transform="translate(722.777 617.597)" fill="#d45b5b"/>
    <path id="路径_141" data-name="路径 141" d="M331.475,465.281c-1.882-.712-3.763-1.423-5.587-2.241C327.712,463.85,329.594,464.57,331.475,465.281Z" transform="translate(722.36 617.458)" fill="#d45b5b"/>
    <path id="路径_147" data-name="路径 147" d="M110.3,401.344a72.277,72.277,0,0,1-9.031,3.534A74.081,74.081,0,0,0,110.3,401.344Z" transform="translate(717.287 616.064)" fill="#d45b5b"/>
    <path id="路径_148" data-name="路径 148" d="M37.11,365.885A36.392,36.392,0,0,1,73.5,329.5,21.833,21.833,0,1,1,95.33,307.665,21.831,21.831,0,0,1,73.5,329.5a36.392,36.392,0,0,1,36.388,36.388v18.063a66.9,66.9,0,0,1-7.343,4.192,65.5,65.5,0,1,0-58.089,0,65.735,65.735,0,0,1-7.343-4.192Z" transform="translate(727.428 633.079)" fill="#aad45b"/>
    <path id="路径_149" data-name="路径 149" d="M58.927,404.878a73.055,73.055,0,0,1-9.031-3.534A74.081,74.081,0,0,0,58.927,404.878Z" transform="translate(716.127 616.064)" fill="#d45b5b"/>
    <path id="路径_150" data-name="路径 150" d="M101.431,404.808a74.148,74.148,0,0,1-9.367,2.152A72.448,72.448,0,0,0,101.431,404.808Z" transform="translate(717.079 616.142)" fill="#d45b5b"/>
    <path id="路径_151" data-name="路径 151" d="M80,408.017a73.941,73.941,0,0,0,9.948-.753A73.941,73.941,0,0,1,80,408.017Z" transform="translate(716.807 616.198)" fill="#d45b5b"/>
    <path id="路径_152" data-name="路径 152" d="M80.22,408.017a73.941,73.941,0,0,1-9.948-.753A73.941,73.941,0,0,0,80.22,408.017Z" transform="translate(716.587 616.198)" fill="#d45b5b"/>
    <path id="路径_153" data-name="路径 153" d="M68.143,406.96a72.443,72.443,0,0,1-9.367-2.152A72.443,72.443,0,0,0,68.143,406.96Z" transform="translate(716.327 616.142)" fill="#d45b5b"/>
    <ellipse id="椭圆_10" data-name="椭圆 10" cx="18.752" cy="18.752" rx="18.752" ry="18.752" transform="translate(774.191 900.482)" fill="#fff"/>
    <path id="路径_165" data-name="路径 165" d="M83.945,395.855a59.8,59.8,0,0,0,7.732-1.776.074.074,0,0,1,.034-.007,60.3,60.3,0,0,0,7.455-2.917c.52-.236,1.033-.486,1.54-.743a61,61,0,0,0,6.813-3.889v-16.76a33.763,33.763,0,0,0-67.526,0v16.76a62.078,62.078,0,0,0,6.813,3.889c.513.257,1.02.5,1.54.743a59.664,59.664,0,0,0,7.455,2.917.073.073,0,0,0,.034.007,61.209,61.209,0,0,0,7.732,1.776c.655.108,1.31.209,1.972.3a62.523,62.523,0,0,0,8.225.615,61.019,61.019,0,0,0,8.211-.621C82.635,396.064,83.29,395.963,83.945,395.855Z" transform="translate(721.818 620.635)" fill="#fff"/>
    <circle id="椭圆_5" data-name="椭圆 5" cx="17.384" cy="17.384" r="17.384" transform="translate(786.581 915.821)" fill="#e4d9b3"/>
    <g id="组_67" data-name="组 67" transform="translate(764.158 1016.508)">
      <path id="路径_154" data-name="路径 154" d="M101.273,404.8a.089.089,0,0,1-.041.008A.088.088,0,0,0,101.273,404.8Z" transform="translate(-46.871 -400.366)" fill="#d45b5b"/>
      <path id="路径_155" data-name="路径 155" d="M92.117,406.912c-.794.131-1.587.254-2.389.368C90.53,407.166,91.323,407.043,92.117,406.912Z" transform="translate(-47.131 -400.318)" fill="#d45b5b"/>
      <path id="路径_156" data-name="路径 156" d="M111.969,400.464c-.622.311-1.235.605-1.865.9C110.734,401.069,111.347,400.767,111.969,400.464Z" transform="translate(-46.671 -400.464)" fill="#d45b5b"/>
      <path id="路径_157" data-name="路径 157" d="M70.325,407.272c-.8-.106-1.6-.229-2.389-.368C68.73,407.043,69.523,407.166,70.325,407.272Z" transform="translate(-47.623 -400.319)" fill="#d45b5b"/>
      <path id="路径_158" data-name="路径 158" d="M49.937,401.364c-.63-.286-1.252-.589-1.865-.9C48.694,400.767,49.307,401.069,49.937,401.364Z" transform="translate(-48.072 -400.464)" fill="#d45b5b"/>
      <path id="路径_159" data-name="路径 159" d="M58.777,404.808a.089.089,0,0,0-.041-.008A.061.061,0,0,0,58.777,404.808Z" transform="translate(-47.831 -400.366)" fill="#d45b5b"/>
    </g>
    <path id="路径_160" data-name="路径 160" d="M80.737,391.487a55.438,55.438,0,0,0,7.168-1.646.068.068,0,0,1,.031-.006,55.91,55.91,0,0,0,6.911-2.7c.482-.219.958-.451,1.427-.689a56.555,56.555,0,0,0,6.316-3.606V367.3a31.3,31.3,0,0,0-62.6,0v15.537a57.547,57.547,0,0,0,6.316,3.606c.476.238.945.463,1.427.689a55.314,55.314,0,0,0,6.911,2.7.068.068,0,0,0,.031.006,56.737,56.737,0,0,0,7.168,1.646c.607.1,1.214.194,1.828.282a57.965,57.965,0,0,0,7.625.57,56.575,56.575,0,0,0,7.612-.576C79.523,391.681,80.13,391.587,80.737,391.487Z" transform="translate(735.111 631.876)" fill="#e4d9b3"/>
    <g id="组_68" data-name="组 68" transform="translate(736.474 622.339)">
      <circle id="椭圆_6" data-name="椭圆 6" cx="11.248" cy="11.248" r="11.248" transform="translate(149.297 441.757)" fill="#b9dce5"/>
      <circle id="椭圆_7" data-name="椭圆 7" cx="8.181" cy="8.181" r="8.181" transform="translate(0 6.136)" fill="#f0b7b7"/>
      <circle id="椭圆_8" data-name="椭圆 8" cx="23.519" cy="23.519" r="23.519" transform="translate(411.079 139.072)" fill="#f7ca7b"/>
      <circle id="椭圆_9" data-name="椭圆 9" cx="11.248" cy="11.248" r="11.248" transform="translate(435.621 0)" fill="#b8d45b"/>
    </g>
    <g id="组_70" data-name="组 70" transform="translate(1000.301 896.391)">
      <g id="组_69" data-name="组 69">
        <path id="路径_43-2" data-name="路径 43" d="M201.592,208.584c.651.259,1.316.488,1.967.732-.118-.044-.229-.1-.348-.14C202.679,208.976,202.124,208.8,201.592,208.584Z" transform="translate(-140.968 -23.192)" fill="#bad7ff"/>
        <path id="路径_44-2" data-name="路径 44" d="M177.961,195.326c-.1-.074-.192-.14-.281-.214C177.776,195.186,177.865,195.26,177.961,195.326Z" transform="translate(-139.157 -22.172)" fill="#bad7ff"/>
        <path id="路径_45-2" data-name="路径 45" d="M185.967,200.737c-.266-.163-.532-.318-.791-.481C185.435,200.419,185.7,200.574,185.967,200.737Z" transform="translate(-139.725 -22.562)" fill="#bad7ff"/>
        <path id="路径_46-2" data-name="路径 46" d="M294.767,200.256c-.266.163-.532.318-.791.481C294.235,200.574,294.5,200.419,294.767,200.256Z" transform="translate(-147.965 -22.562)" fill="#bad7ff"/>
        <path id="路径_47-2" data-name="路径 47" d="M302.3,195.12l-.281.214C302.112,195.26,302.2,195.187,302.3,195.12Z" transform="translate(-148.574 -22.173)" fill="#bad7ff"/>
        <path id="路径_48-2" data-name="路径 48" d="M194.659,205.484c-.51-.244-1.02-.481-1.531-.732C193.638,205.011,194.156,205.24,194.659,205.484Z" transform="translate(-140.327 -22.902)" fill="#bad7ff"/>
        <path id="路径_49-2" data-name="路径 49" d="M286.739,204.752c-.5.259-1.02.488-1.531.732C285.718,205.24,286.236,205.011,286.739,204.752Z" transform="translate(-147.301 -22.902)" fill="#bad7ff"/>
        <path id="路径_50-2" data-name="路径 50" d="M249.448,215.547c.237-.022.481-.037.717-.067-.118.015-.244.007-.362.022S249.566,215.539,249.448,215.547Z" transform="translate(-144.593 -23.715)" fill="#bad7ff"/>
        <path id="路径_51-2" data-name="路径 51" d="M267.608,212.169c.569-.155,1.146-.3,1.715-.473-.355.1-.725.177-1.08.281C268.029,212.036,267.822,212.11,267.608,212.169Z" transform="translate(-145.968 -23.428)" fill="#bad7ff"/>
        <path id="路径_52-2" data-name="路径 52" d="M276.272,209.316c.658-.244,1.324-.473,1.967-.732-.532.214-1.087.392-1.627.592A2.34,2.34,0,0,1,276.272,209.316Z" transform="translate(-146.624 -23.192)" fill="#bad7ff"/>
        <path id="路径_53-2" data-name="路径 53" d="M258.656,214.261c.436-.081.865-.148,1.3-.237-.237.044-.481.067-.71.111C259.048,214.172,258.856,214.224,258.656,214.261Z" transform="translate(-145.29 -23.604)" fill="#bad7ff"/>
        <path id="路径_54-2" data-name="路径 54" d="M229.776,215.48l.717.067c-.118-.007-.237-.037-.355-.044S229.894,215.495,229.776,215.48Z" transform="translate(-143.103 -23.715)" fill="#bad7ff"/>
        <path id="路径_55-2" data-name="路径 55" d="M210.536,211.7c.569.17,1.146.318,1.715.473-.214-.059-.421-.133-.636-.192C211.253,211.873,210.891,211.807,210.536,211.7Z" transform="translate(-141.645 -23.428)" fill="#bad7ff"/>
        <path id="路径_56-2" data-name="路径 56" d="M219.936,214.024c.429.089.865.155,1.3.237-.2-.037-.392-.089-.592-.126C220.409,214.091,220.173,214.068,219.936,214.024Z" transform="translate(-142.357 -23.604)" fill="#bad7ff"/>
        <path id="路径_57-2" data-name="路径 57" d="M253.336,214.99c1.649-.214,3.3-.414,4.917-.71-1.272.237-2.581.37-3.874.555C254.031,214.879,253.691,214.945,253.336,214.99Z" transform="translate(-144.887 -23.624)" fill="#bad7ff"/>
        <path id="路径_58-2" data-name="路径 58" d="M211.7,212c.214.059.421.133.636.192.614.17,1.25.288,1.871.451C213.375,212.429,212.532,212.237,211.7,212Z" transform="translate(-141.734 -23.451)" fill="#bad7ff"/>
        <path id="路径_59-2" data-name="路径 59" d="M254.472,214.824c1.294-.185,2.6-.318,3.874-.555.2-.037.392-.089.592-.126C257.459,214.418,255.958,214.617,254.472,214.824Z" transform="translate(-144.973 -23.614)" fill="#bad7ff"/>
        <path id="路径_60-2" data-name="路径 60" d="M221.344,214.28c1.619.3,3.268.5,4.917.71-.348-.044-.7-.111-1.043-.163C223.925,214.65,222.616,214.509,221.344,214.28Z" transform="translate(-142.464 -23.624)" fill="#bad7ff"/>
        <path id="路径_61-2" data-name="路径 61" d="M265.584,212.643c.621-.155,1.257-.281,1.871-.451.214-.059.421-.133.636-.192C267.262,212.237,266.42,212.429,265.584,212.643Z" transform="translate(-145.815 -23.451)" fill="#bad7ff"/>
        <path id="路径_62-2" data-name="路径 62" d="M240,215.962c2.95,0,5.856-.155,8.732-.414.118-.007.237-.037.355-.044C246.093,215.785,243.069,215.962,240,215.962Z" transform="translate(-143.877 -23.717)" fill="#bad7ff"/>
        <path id="路径_63-2" data-name="路径 63" d="M263.624,213.125c1.235-.288,2.462-.577,3.682-.917-.614.17-1.25.288-1.871.451S264.238,212.984,263.624,213.125Z" transform="translate(-145.666 -23.467)" fill="#bad7ff"/>
        <path id="路径_64-2" data-name="路径 64" d="M212.392,212.208c1.213.34,2.447.628,3.682.917-.606-.14-1.205-.311-1.812-.466S213.006,212.378,212.392,212.208Z" transform="translate(-141.786 -23.467)" fill="#bad7ff"/>
        <path id="路径_65-2" data-name="路径 65" d="M275.76,209.527c.155-.059.318-.1.473-.163.118-.044.229-.1.348-.14C276.307,209.335,276.034,209.431,275.76,209.527Z" transform="translate(-146.586 -23.241)" fill="#bad7ff"/>
        <path id="路径_66-2" data-name="路径 66" d="M197.783,206.99c-.436-.192-.85-.421-1.279-.614C196.933,206.576,197.347,206.8,197.783,206.99Z" transform="translate(-140.583 -23.025)" fill="#bad7ff"/>
        <path id="路径_67-2" data-name="路径 67" d="M273.144,210.426c.976-.333,1.937-.688,2.891-1.05-.155.059-.318.1-.473.163C274.756,209.834,273.957,210.152,273.144,210.426Z" transform="translate(-146.387 -23.252)" fill="#bad7ff"/>
        <path id="路径_68-2" data-name="路径 68" d="M230.523,215.548c2.876.259,5.782.414,8.732.414-3.069,0-6.093-.177-9.087-.458C230.286,215.511,230.4,215.541,230.523,215.548Z" transform="translate(-143.132 -23.717)" fill="#bad7ff"/>
        <path id="路径_69-2" data-name="路径 69" d="M283.4,206.376c-.429.2-.85.421-1.279.614C282.549,206.8,282.963,206.576,283.4,206.376Z" transform="translate(-147.067 -23.025)" fill="#bad7ff"/>
        <path id="路径_70-2" data-name="路径 70" d="M220.7,214.144c.2.037.392.089.592.126,1.272.237,2.581.37,3.874.555C223.676,214.617,222.175,214.418,220.7,214.144Z" transform="translate(-142.416 -23.614)" fill="#bad7ff"/>
        <path id="路径_71-2" data-name="路径 71" d="M203.728,209.376c.961.362,1.922.717,2.891,1.05-.813-.274-1.612-.592-2.418-.887C204.046,209.487,203.883,209.435,203.728,209.376Z" transform="translate(-141.13 -23.252)" fill="#bad7ff"/>
        <path id="路径_72-2" data-name="路径 72" d="M248.732,215.552c-2.876.259-5.782.414-8.732.414C242.95,215.966,245.856,215.811,248.732,215.552Z" transform="translate(-143.877 -23.72)" fill="#bad7ff"/>
        <path id="路径_73-2" data-name="路径 73" d="M203.352,209.232c.118.044.229.1.348.14.155.059.318.1.473.163C203.9,209.432,203.626,209.336,203.352,209.232Z" transform="translate(-141.101 -23.242)" fill="#bad7ff"/>
        <path id="路径_74-2" data-name="路径 74" d="M239.284,215.966c-2.95,0-5.856-.155-8.732-.414C233.428,215.811,236.334,215.966,239.284,215.966Z" transform="translate(-143.161 -23.72)" fill="#bad7ff"/>
        <path id="路径_75-2" data-name="路径 75" d="M200.264,207.992c.414.17.806.377,1.227.547.532.214,1.087.392,1.627.592C202.157,208.768,201.21,208.384,200.264,207.992Z" transform="translate(-140.867 -23.148)" fill="#bad7ff"/>
        <path id="路径_76-2" data-name="路径 76" d="M276.648,209.139c.54-.2,1.087-.384,1.627-.592.414-.17.813-.377,1.227-.547C278.556,208.384,277.609,208.769,276.648,209.139Z" transform="translate(-146.653 -23.148)" fill="#bad7ff"/>
        <path id="路径_77-2" data-name="路径 77" d="M278.408,208.467c1.154-.458,2.3-.924,3.423-1.427-.717.318-1.471.577-2.2.88C279.221,208.1,278.822,208.3,278.408,208.467Z" transform="translate(-146.786 -23.075)" fill="#bad7ff"/>
        <path id="路径_78-2" data-name="路径 78" d="M227.48,215.152c.71.089,1.4.229,2.122.3.118.015.244.007.362.022C229.129,215.4,228.308,215.256,227.48,215.152Z" transform="translate(-142.929 -23.69)" fill="#bad7ff"/>
        <path id="路径_79-2" data-name="路径 79" d="M197.888,207.04c1.131.5,2.277.969,3.423,1.427-.414-.17-.813-.377-1.227-.547C199.359,207.617,198.605,207.365,197.888,207.04Z" transform="translate(-140.687 -23.075)" fill="#bad7ff"/>
        <path id="路径_80-2" data-name="路径 80" d="M175.595,193.522v-.111c-1.678-1.316-3.357-2.632-4.947-4.059h0q3.128,2.806,6.492,5.331c-.148-.111-.274-.237-.421-.348C176.356,194.055,175.957,193.8,175.595,193.522Z" transform="translate(-138.624 -21.736)" fill="#bad7ff"/>
        <path id="路径_81-2" data-name="路径 81" d="M269.464,211.606c1.146-.34,2.27-.717,3.4-1.094-.592.2-1.205.362-1.8.555C270.521,211.237,270,211.451,269.464,211.606Z" transform="translate(-146.109 -23.338)" fill="#bad7ff"/>
        <path id="路径_82-2" data-name="路径 82" d="M206.856,210.512c1.131.377,2.255.762,3.4,1.094-.54-.163-1.057-.37-1.59-.54C208.061,210.874,207.448,210.712,206.856,210.512Z" transform="translate(-141.367 -23.338)" fill="#bad7ff"/>
        <path id="路径_83-2" data-name="路径 83" d="M232.123,8a96.028,96.028,0,0,0-64.1,167.616h0c1.59,1.427,3.268,2.743,4.947,4.059V158.122a31.82,31.82,0,0,1,31.817-31.817h27.336c-15.683,0-44.364-19.86-44.364-44.364s7.394-51.759,44.364-51.759,44.364,27.255,44.364,51.759-28.682,44.364-44.364,44.364h27.336a31.82,31.82,0,0,1,31.817,31.817v21.554c1.678-1.316,3.357-2.632,4.947-4.059h0a95.774,95.774,0,0,0,7.394-135.592h0A95.816,95.816,0,0,0,232.123,8Z" transform="translate(-136 -8)" fill="#bad7ff"/>
        <path id="路径_84-2" data-name="路径 84" d="M303.873,193.4v.111c-.362.288-.762.532-1.131.813-.148.111-.274.237-.421.348q3.372-2.529,6.492-5.331h0C307.23,190.771,305.551,192.087,303.873,193.4Z" transform="translate(-148.597 -21.735)" fill="#bad7ff"/>
        <path id="路径_85-2" data-name="路径 85" d="M300.576,196.207c.436-.311.9-.584,1.331-.909.1-.074.192-.141.281-.214.148-.111.274-.237.422-.348C301.944,195.246,301.256,195.719,300.576,196.207Z" transform="translate(-148.465 -22.144)" fill="#bad7ff"/>
        <path id="路径_86-2" data-name="路径 86" d="M295.475,199.441c-.222.14-.421.3-.643.444,2.285-1.42,4.488-2.935,6.64-4.533-.429.318-.895.592-1.331.909C298.61,197.356,297.072,198.428,295.475,199.441Z" transform="translate(-148.03 -22.19)" fill="#bad7ff"/>
        <path id="路径_87-2" data-name="路径 87" d="M268.3,211.933c.355-.1.725-.17,1.079-.281.54-.163,1.057-.37,1.59-.54C270.085,211.393,269.2,211.674,268.3,211.933Z" transform="translate(-146.02 -23.384)" fill="#bad7ff"/>
        <path id="路径_88-2" data-name="路径 88" d="M283.5,206.314c.532-.244,1.057-.51,1.582-.762-.17.081-.355.155-.525.237C284.2,205.951,283.859,206.144,283.5,206.314Z" transform="translate(-147.172 -22.963)" fill="#bad7ff"/>
        <path id="路径_89-2" data-name="路径 89" d="M284.64,205.679c.17-.081.355-.148.525-.237.51-.244,1.02-.481,1.531-.732.311-.155.6-.348.909-.51C286.629,204.71,285.638,205.206,284.64,205.679Z" transform="translate(-147.258 -22.86)" fill="#bad7ff"/>
        <path id="路径_90-2" data-name="路径 90" d="M292.728,201.344c.377-.222.776-.414,1.146-.643.266-.163.532-.318.791-.481.222-.14.429-.3.643-.444C294.466,200.316,293.6,200.826,292.728,201.344Z" transform="translate(-147.871 -22.525)" fill="#bad7ff"/>
        <path id="路径_91-2" data-name="路径 91" d="M287.773,203.941c-.311.163-.6.348-.909.51,2.248-1.139,4.429-2.373,6.566-3.675-.37.229-.769.421-1.146.643C290.805,202.292,289.3,203.142,287.773,203.941Z" transform="translate(-147.427 -22.601)" fill="#bad7ff"/>
        <path id="路径_92-2" data-name="路径 92" d="M260.064,213.962c1.109-.214,2.2-.5,3.29-.762-.436.1-.88.192-1.316.288C261.373,213.629,260.729,213.829,260.064,213.962Z" transform="translate(-145.397 -23.542)" fill="#bad7ff"/>
        <path id="路径_93-2" data-name="路径 93" d="M250.224,215.447c.969-.1,1.915-.274,2.876-.4-.251.03-.5.067-.754.1C251.636,215.233,250.941,215.381,250.224,215.447Z" transform="translate(-144.651 -23.682)" fill="#bad7ff"/>
        <path id="路径_94-2" data-name="路径 94" d="M208.808,211.112c.54.17,1.05.384,1.59.54.355.1.725.177,1.08.281C210.583,211.674,209.7,211.393,208.808,211.112Z" transform="translate(-141.515 -23.384)" fill="#bad7ff"/>
        <path id="路径_95-2" data-name="路径 95" d="M249.832,215.477c.118-.015.244-.007.362-.022.717-.074,1.4-.214,2.122-.3C251.488,215.256,250.668,215.4,249.832,215.477Z" transform="translate(-144.622 -23.69)" fill="#bad7ff"/>
        <path id="路径_96-2" data-name="路径 96" d="M194.784,205.544c.525.251,1.05.518,1.582.762-.355-.163-.7-.355-1.057-.525C195.139,205.7,194.961,205.633,194.784,205.544Z" transform="translate(-140.452 -22.962)" fill="#bad7ff"/>
        <path id="路径_97-2" data-name="路径 97" d="M216.376,213.2c1.094.259,2.181.54,3.29.762-.665-.133-1.309-.325-1.974-.473C217.256,213.392,216.812,213.3,216.376,213.2Z" transform="translate(-142.088 -23.542)" fill="#bad7ff"/>
        <path id="路径_98-2" data-name="路径 98" d="M192.152,204.2c.311.163.6.348.909.51.5.259,1.02.488,1.531.732.17.081.355.155.525.237C194.119,205.206,193.128,204.71,192.152,204.2Z" transform="translate(-140.253 -22.86)" fill="#bad7ff"/>
        <path id="路径_99-2" data-name="路径 99" d="M187.178,201.419c-.377-.222-.776-.414-1.146-.643,2.137,1.3,4.318,2.536,6.566,3.675-.311-.155-.6-.348-.909-.51C190.158,203.142,188.657,202.292,187.178,201.419Z" transform="translate(-139.789 -22.601)" fill="#bad7ff"/>
        <path id="路径_100-2" data-name="路径 100" d="M226.664,215.048c.961.126,1.908.3,2.876.4-.717-.074-1.4-.214-2.122-.3C227.167,215.115,226.915,215.085,226.664,215.048Z" transform="translate(-142.867 -23.682)" fill="#bad7ff"/>
        <path id="路径_101-2" data-name="路径 101" d="M217.8,213.512c.665.148,1.309.34,1.974.473.237.044.481.067.71.111C219.582,213.926,218.695,213.7,217.8,213.512Z" transform="translate(-142.196 -23.566)" fill="#bad7ff"/>
        <path id="路径_102-2" data-name="路径 102" d="M179.315,196.253c-.436-.311-.9-.584-1.331-.909,2.152,1.6,4.355,3.113,6.64,4.533-.222-.14-.429-.3-.643-.444C182.383,198.427,180.845,197.355,179.315,196.253Z" transform="translate(-139.18 -22.19)" fill="#bad7ff"/>
        <path id="路径_103-2" data-name="路径 103" d="M177.224,194.744c.148.111.274.237.421.348l.281.214c.429.318.895.592,1.331.909C178.577,195.72,177.889,195.247,177.224,194.744Z" transform="translate(-139.122 -22.144)" fill="#bad7ff"/>
        <path id="路径_104-2" data-name="路径 104" d="M259.3,214.1c.237-.044.481-.059.71-.111.665-.133,1.309-.325,1.974-.473C261.085,213.7,260.2,213.926,259.3,214.1Z" transform="translate(-145.339 -23.566)" fill="#bad7ff"/>
        <path id="路径_105-2" data-name="路径 105" d="M184.472,199.776c.222.14.421.3.643.444.266.163.532.318.791.481.37.229.769.421,1.146.643C186.187,200.826,185.322,200.316,184.472,199.776Z" transform="translate(-139.671 -22.525)" fill="#bad7ff"/>
        <path id="路径_106-2" data-name="路径 106" d="M303.907,193.855v-.111c-.384.3-.739.636-1.131.932C303.146,194.387,303.545,194.136,303.907,193.855Z" transform="translate(-148.632 -22.068)" fill="#bad7ff"/>
        <path id="路径_107-2" data-name="路径 107" d="M225.528,214.88c.348.052.7.111,1.043.163.251.03.5.067.754.1C226.726,215.065,226.134,214.961,225.528,214.88Z" transform="translate(-142.781 -23.669)" fill="#bad7ff"/>
        <path id="路径_108-2" data-name="路径 108" d="M214.416,212.7c.606.155,1.2.325,1.812.466.436.1.88.192,1.316.288C216.494,213.221,215.451,212.962,214.416,212.7Z" transform="translate(-141.939 -23.504)" fill="#bad7ff"/>
        <path id="路径_109-2" data-name="路径 109" d="M300.194,196.328c-1.523,1.1-3.076,2.174-4.666,3.187C297.125,198.5,298.663,197.43,300.194,196.328Z" transform="translate(-148.083 -22.264)" fill="#bad7ff"/>
        <path id="路径_110-2" data-name="路径 110" d="M204.24,209.552c.806.3,1.6.614,2.418.887.592.2,1.205.362,1.8.555C207.042,210.543,205.63,210.07,204.24,209.552Z" transform="translate(-141.169 -23.266)" fill="#bad7ff"/>
        <path id="路径_111-2" data-name="路径 111" d="M252.52,215.131c.251-.03.5-.067.754-.1.348-.044.7-.111,1.043-.163C253.718,214.961,253.126,215.064,252.52,215.131Z" transform="translate(-144.825 -23.669)" fill="#bad7ff"/>
        <path id="路径_112-2" data-name="路径 112" d="M187.272,201.472q2.218,1.32,4.51,2.521Q189.487,202.8,187.272,201.472Z" transform="translate(-139.883 -22.654)" fill="#bad7ff"/>
        <path id="路径_113-2" data-name="路径 113" d="M262.2,213.45c.436-.1.88-.185,1.316-.288.606-.14,1.205-.311,1.812-.466C264.293,212.962,263.25,213.221,262.2,213.45Z" transform="translate(-145.559 -23.504)" fill="#bad7ff"/>
        <path id="路径_114-2" data-name="路径 114" d="M292.358,201.472q-2.218,1.32-4.51,2.521C289.379,203.195,290.88,202.344,292.358,201.472Z" transform="translate(-147.501 -22.654)" fill="#bad7ff"/>
      </g>
      <path id="路径_166" data-name="路径 166" d="M244.467,206.822c.587-.072,1.16-.165,1.739-.251,1.446-.2,2.892-.394,4.316-.659.873-.165,1.732-.372,2.6-.565,1.016-.222,2.026-.472,3.028-.73.809-.208,1.625-.4,2.427-.623.873-.251,1.732-.523,2.591-.795,1.374-.437,2.742-.895,4.087-1.4.265-.1.53-.193.795-.293.931-.351,1.847-.723,2.756-1.1q2.223-.923,4.4-1.961c.966-.465,1.926-.938,2.87-1.432,1.482-.773,2.935-1.6,4.366-2.441.837-.5,1.682-.995,2.505-1.518,1.539-.981,3.035-2.019,4.517-3.085.659-.472,1.324-.931,1.968-1.417.379-.286.723-.608,1.1-.9V166.787A30.774,30.774,0,0,0,259.727,136H233.264l14.316,35.79-14.316,14.316L218.948,171.79,233.264,136H206.8A30.8,30.8,0,0,0,176,166.8v20.866c.372.293.716.616,1.1.9.644.487,1.31.945,1.968,1.417,1.475,1.067,2.978,2.1,4.517,3.085.823.523,1.668,1.016,2.505,1.518q2.147,1.278,4.366,2.441c.945.494,1.9.966,2.87,1.432,1.446.694,2.906,1.346,4.4,1.961.916.379,1.832.752,2.756,1.1.265.1.53.193.795.293,1.346.5,2.713.959,4.087,1.4.859.272,1.718.544,2.591.795.8.229,1.618.415,2.427.623q1.5.387,3.028.73c.866.193,1.725.4,2.6.565,1.424.265,2.87.458,4.316.659.58.079,1.16.179,1.739.251.8.1,1.6.236,2.405.308,2.906.265,5.834.437,8.8.437s5.9-.172,8.8-.444C242.87,207.058,243.665,206.922,244.467,206.822Z" transform="translate(-146.345 -18.402)" fill="#fff"/>
      <path id="路径_167" data-name="路径 167" d="M244.467,206.822c.587-.072,1.16-.165,1.739-.251,1.446-.2,2.892-.394,4.316-.659.873-.165,1.732-.372,2.6-.565,1.016-.222,2.026-.472,3.028-.73.809-.208,1.625-.4,2.427-.623.873-.251,1.732-.523,2.591-.795,1.374-.437,2.742-.895,4.087-1.4.265-.1.53-.193.795-.293.931-.351,1.847-.723,2.756-1.1q2.223-.923,4.4-1.961c.966-.465,1.926-.938,2.87-1.432,1.482-.773,2.935-1.6,4.366-2.441.837-.5,1.682-.995,2.505-1.518,1.539-.981,3.035-2.019,4.517-3.085.659-.472,1.324-.931,1.968-1.417.379-.286.723-.608,1.1-.9V166.787A30.774,30.774,0,0,0,259.727,136H233.264l14.316,35.79-14.316,14.316L218.948,171.79,233.264,136H206.8A30.8,30.8,0,0,0,176,166.8v20.866c.372.293.716.616,1.1.9.644.487,1.31.945,1.968,1.417,1.475,1.067,2.978,2.1,4.517,3.085.823.523,1.668,1.016,2.505,1.518q2.147,1.278,4.366,2.441c.945.494,1.9.966,2.87,1.432,1.446.694,2.906,1.346,4.4,1.961.916.379,1.832.752,2.756,1.1.265.1.53.193.795.293,1.346.5,2.713.959,4.087,1.4.859.272,1.718.544,2.591.795.8.229,1.618.415,2.427.623q1.5.387,3.028.73c.866.193,1.725.4,2.6.565,1.424.265,2.87.458,4.316.659.58.079,1.16.179,1.739.251.8.1,1.6.236,2.405.308,2.906.265,5.834.437,8.8.437s5.9-.172,8.8-.444C242.87,207.058,243.665,206.922,244.467,206.822Z" transform="translate(-135.097 -15.334)" fill="#e4ccb3"/>
      <path id="路径_168" data-name="路径 168" d="M238.558,58.6l33.256,19.953c0-22.042-6.651-46.558-39.907-46.558S192,56.516,192,78.558C192,78.558,231.907,78.558,238.558,58.6Z" transform="translate(-150.126 -25.384)" fill="#fff"/>
      <path id="路径_169" data-name="路径 169" d="M290.168,88.542,249.265,64C241.084,88.542,192,88.542,192,88.542c0,27.111,31.733,49.084,49.084,49.084S290.168,115.653,290.168,88.542Z" transform="translate(-151.097 -27.187)" fill="#fff"/>
      <path id="路径_170" data-name="路径 170" d="M238.558,58.6l33.256,19.953c0-22.042-6.651-46.558-39.907-46.558S192,56.516,192,78.558C192,78.558,231.907,78.558,238.558,58.6Z" transform="translate(-132.742 -17.203)" fill="#c98263"/>
      <path id="路径_171" data-name="路径 171" d="M233.717,170.008l9.717-9.717L233.717,136,224,160.292Z" transform="translate(-144.243 -4.349)" fill="#fff"/>
      <path id="路径_172" data-name="路径 172" d="M233.717,170.008l9.717-9.717L233.717,136,224,160.292Z" transform="translate(-135.039 -1.282)" fill="#5b8ed4"/>
    </g>
    <path id="路径_161" data-name="路径 161" d="M443.262,32.723a24.542,24.542,0,1,0,0-16.361H343.588a8.145,8.145,0,0,0-5.784,2.4L324.593,31.97A114.055,114.055,0,0,0,245.42,0c-60.39,0-109.891,47.014-114.112,106.349H62.574L35.848,46.2a24.467,24.467,0,1,0-16.942,2.168l30.882,69.487a8.183,8.183,0,0,0,7.477,4.859h74.043A114.055,114.055,0,0,0,162.861,193.7L93.8,262.763A81.728,81.728,0,0,0,36.183,411.455c.057.041.106.1.164.139.327.221.7.368,1.031.589a80.863,80.863,0,0,0,8.083,4.581c.875.434,1.742.867,2.634,1.268a81.056,81.056,0,0,0,9.694,3.747c.4.123.818.2,1.227.319a80.96,80.96,0,0,0,9.269,2.078c.924.155,1.841.3,2.765.425.859.115,1.7.286,2.569.376V466.3a8.178,8.178,0,0,0,8.181,8.181H156.93a24.542,24.542,0,1,0,0-16.361H89.987v-33.14c.867-.09,1.71-.262,2.569-.376.933-.123,1.849-.27,2.765-.425a82.713,82.713,0,0,0,9.269-2.078c.409-.115.818-.188,1.227-.319a81.713,81.713,0,0,0,9.7-3.747c.884-.4,1.759-.834,2.634-1.268a82.57,82.57,0,0,0,8.082-4.589c.335-.213.7-.36,1.031-.589.057-.041.106-.1.164-.139a81.713,81.713,0,0,0-15.38-143.8l62.926-62.926c.81.63,1.661,1.178,2.479,1.783,1.653,1.219,3.28,2.462,5,3.591,1.685,1.121,3.428,2.111,5.162,3.133,1.6.941,3.19,1.882,4.835,2.741,2.569,1.35,5.162,2.626,7.813,3.771.884.384,1.792.7,2.691,1.055,2.4.965,4.818,1.873,7.281,2.667,1.006.327,2.029.614,3.051.916,2.413.7,4.843,1.333,7.305,1.882,1.088.245,2.176.474,3.272.687,2.528.483,5.08.859,7.657,1.17,1.031.123,2.045.286,3.076.385,3.575.344,7.183.556,10.823.556s7.248-.213,10.831-.548c1.039-.1,2.045-.254,3.076-.385,2.569-.311,5.129-.687,7.657-1.17q1.644-.319,3.264-.687c2.462-.548,4.892-1.178,7.305-1.882,1.023-.3,2.045-.589,3.051-.916,2.462-.8,4.884-1.7,7.281-2.667.892-.36,1.808-.679,2.691-1.055,2.659-1.145,5.26-2.421,7.829-3.779,1.628-.859,3.207-1.783,4.786-2.716,1.742-1.031,3.493-2.029,5.187-3.15,1.718-1.137,3.346-2.372,5-3.591.818-.605,1.677-1.153,2.479-1.783l57.224,57.232c-61.65,1.71-111.3,52.283-111.3,114.349a114.285,114.285,0,0,0,43.9,89.971c.065.049.082.131.147.18.826.646,1.693,1.194,2.528,1.816,1.652,1.219,3.28,2.462,5,3.591,1.685,1.121,3.428,2.111,5.162,3.133,1.6.941,3.19,1.882,4.835,2.741,2.569,1.35,5.162,2.626,7.813,3.771.884.384,1.792.7,2.691,1.055,2.4.965,4.818,1.873,7.281,2.667,1.006.327,2.029.614,3.051.916,2.413.7,4.843,1.333,7.305,1.882,1.088.245,2.176.474,3.272.687,2.528.483,5.08.859,7.657,1.17,1.031.123,2.045.286,3.076.385,3.567.352,7.174.564,10.815.564s7.248-.213,10.831-.548c1.039-.1,2.045-.254,3.076-.385,2.569-.311,5.129-.687,7.657-1.17q1.644-.319,3.264-.687c2.462-.548,4.892-1.178,7.305-1.882,1.023-.3,2.045-.589,3.051-.916,2.462-.8,4.884-1.7,7.281-2.667.892-.36,1.808-.679,2.691-1.055,2.659-1.145,5.26-2.421,7.829-3.779,1.628-.859,3.207-1.783,4.786-2.716,1.743-1.031,3.493-2.029,5.187-3.15,1.718-1.137,3.346-2.372,5-3.591.834-.622,1.7-1.17,2.528-1.816.065-.049.09-.131.147-.18a114.372,114.372,0,0,0-48.732-202.365L327.98,193.694A114.035,114.035,0,0,0,359.533,122.7h82.224v9.007a40.9,40.9,0,1,0,16.361,0V114.529a8.178,8.178,0,0,0-8.181-8.181h-90.4a113.741,113.741,0,0,0-23.969-62.214l11.412-11.412ZM466.3,16.361a8.181,8.181,0,1,1-8.181,8.181A8.189,8.189,0,0,1,466.3,16.361Zm-441.757,0a8.181,8.181,0,1,1-8.181,8.181A8.189,8.189,0,0,1,24.542,16.361ZM179.975,458.118a8.181,8.181,0,1,1-8.181,8.181A8.189,8.189,0,0,1,179.975,458.118ZM65.445,319.046a16.361,16.361,0,1,1,16.361,16.361A16.378,16.378,0,0,1,65.445,319.046Zm16.361,32.723a32.756,32.756,0,0,1,32.723,32.723v15.691c-.254.147-.491.311-.736.45a66.361,66.361,0,0,1-63.965,0c-.254-.147-.491-.311-.744-.45V384.492A32.756,32.756,0,0,1,81.807,351.769Zm65.445-8.181a65.1,65.1,0,0,1-16.361,43.145v-2.242a49.093,49.093,0,0,0-25.417-42.973,32.723,32.723,0,1,0-47.333,0,49.093,49.093,0,0,0-25.417,42.973v2.241a65.406,65.406,0,1,1,114.529-43.145ZM474.479,171.794a24.542,24.542,0,1,1-24.542-24.542A24.572,24.572,0,0,1,474.479,171.794ZM256.7,76.849,285.939,94.4c-3.28,20.026-27.962,36.494-40.519,36.494-11.854,0-34.49-14.66-39.766-33.148C219.659,96.589,244.946,92.343,256.7,76.849Zm-51.735,4.483C207.159,53.919,220.093,40.9,245.42,40.9c23.217,0,35.97,10.978,39.652,33.884L257.814,58.435a8.174,8.174,0,0,0-11.968,4.426C241.706,75.279,219.357,79.966,204.967,81.332Zm40.453,79.762L252.178,178l-6.757,6.765L238.663,178Zm-12.083-13.842-11.87,29.679a8.179,8.179,0,0,0,1.816,8.827l16.361,16.361a8.167,8.167,0,0,0,11.559,0l16.361-16.361a8.194,8.194,0,0,0,1.816-8.827L257.5,147.252h18.161a27.027,27.027,0,0,1,27.021,27.021v19.8c-1.792,1.293-3.608,2.536-5.465,3.7-.589.368-1.178.72-1.767,1.08-1.972,1.17-3.968,2.282-6,3.313-.72.36-1.456.7-2.184,1.055-1.963.933-3.951,1.816-5.972,2.618-.892.352-1.8.663-2.708.99-1.914.7-3.837,1.358-5.784,1.931-1.145.335-2.323.605-3.485.9-1.661.417-3.33.843-5.015,1.178-.18.033-.368.074-.548.106-1.522.286-3.076.491-4.622.7-1.1.155-2.192.344-3.3.458-.425.041-.851.106-1.276.147-3.019.27-6.054.45-9.138.45s-6.119-.18-9.13-.466c-.425-.041-.851-.106-1.276-.147-1.1-.123-2.2-.3-3.3-.458-1.546-.221-3.1-.417-4.622-.7-.18-.033-.368-.074-.548-.106-1.685-.335-3.354-.753-5.015-1.178-1.17-.295-2.34-.564-3.485-.9-1.955-.573-3.878-1.235-5.784-1.931-.908-.327-1.816-.638-2.708-.99q-3.031-1.2-5.972-2.618c-.728-.344-1.464-.687-2.184-1.055q-3.056-1.546-6-3.313-.9-.528-1.767-1.08c-1.865-1.162-3.681-2.405-5.465-3.7v-19.8a26.992,26.992,0,0,1,27.013-27h18.161ZM387.592,338.631l29.238,17.548c-3.281,20.026-27.962,36.494-40.519,36.494-11.854,0-34.49-14.66-39.766-33.148C350.55,358.371,375.837,354.125,387.592,338.631Zm-51.735,4.483c2.192-27.413,15.126-40.429,40.453-40.429,23.217,0,35.97,10.978,39.652,33.884L388.7,320.216a8.174,8.174,0,0,0-11.968,4.426C372.6,337.06,350.247,341.748,335.858,343.114Zm40.453,79.762,6.757,16.909-6.757,6.765-6.757-6.765Zm-12.083-13.842-11.87,29.68a8.179,8.179,0,0,0,1.816,8.827L370.536,463.9a8.167,8.167,0,0,0,11.559,0l16.361-16.361a8.194,8.194,0,0,0,1.816-8.827l-11.878-29.68h18.161a27.027,27.027,0,0,1,27.021,27.021v19.83c-.237.172-.458.352-.7.515-1.374.974-2.773,1.89-4.18,2.79-1.113.7-2.233,1.391-3.379,2.053-1.227.712-2.454,1.415-3.706,2.07-1.685.884-3.411,1.7-5.154,2.487-.818.368-1.62.777-2.438,1.121-2.683,1.121-5.432,2.135-8.23,3.019-.5.155-1.006.278-1.505.425q-3.522,1.055-7.15,1.841c-.834.18-1.669.335-2.5.491q-3.289.626-6.651,1.014c-.843.1-1.685.221-2.536.294-3.019.295-6.054.474-9.138.474s-6.119-.18-9.13-.466c-.851-.082-1.693-.2-2.536-.294q-3.362-.4-6.651-1.014c-.834-.155-1.669-.311-2.5-.491-2.422-.524-4.8-1.145-7.15-1.841-.5-.147-1.014-.262-1.505-.425-2.8-.884-5.538-1.9-8.23-3.019-.826-.344-1.628-.753-2.438-1.121-1.743-.785-3.469-1.6-5.154-2.487-1.252-.654-2.479-1.358-3.706-2.07q-1.706-.994-3.379-2.053c-1.407-.9-2.814-1.808-4.18-2.79-.237-.164-.458-.352-.7-.515v-19.83a27.045,27.045,0,0,1,27.013-27.029Zm110.251-32.723a97.659,97.659,0,0,1-24.542,64.717v-4.974A43.219,43.219,0,0,0,412,393.073c12.14-10.512,21.572-25.246,21.572-41.3,0-54.091-31.144-65.445-57.265-65.445s-57.265,11.355-57.265,65.445c0,16.059,9.432,30.792,21.572,41.3a43.219,43.219,0,0,0-37.934,42.981v4.974a98.109,98.109,0,1,1,171.794-64.717ZM319.046,179.247v-4.974a43.219,43.219,0,0,0-37.934-42.981c12.14-10.512,21.572-25.246,21.572-41.3,0-54.091-31.144-65.445-57.265-65.445S188.156,35.9,188.156,89.987c0,16.059,9.432,30.792,21.572,41.3a43.219,43.219,0,0,0-37.934,42.981v4.974a98.168,98.168,0,1,1,147.252,0Z" transform="translate(715 607)" fill="#5b4016"/>
  </g>
</svg>
