<svg id="组_85" data-name="组 85" xmlns="http://www.w3.org/2000/svg" width="100" height="100" viewBox="0 0 391.979 391.979">
  <path id="路径_2" data-name="路径 2" d="M440.279,17.191a64.306,64.306,0,0,0,0,117.607,64.306,64.306,0,0,0,0-117.607Zm0,0" transform="translate(-94.235 -4.03)" fill="#c9f3ff"/>
  <path id="路径_3" data-name="路径 3" d="M116.279,17.191a64.306,64.306,0,0,0,0,117.607,64.306,64.306,0,0,0,0-117.607Zm0,0" transform="translate(-18.284 -4.03)" fill="#c9f3ff"/>
  <path id="路径_4" data-name="路径 4" d="M357.925,226.64a19.253,19.253,0,0,0-19.469,19.253v.173a91.45,91.45,0,0,1-91.448,91.448h-46.33a91.445,91.445,0,0,1-81.858-50.654,130.56,130.56,0,0,0,82.877,81.52v67.76h85.378v-66.45A130.18,130.18,0,0,0,376.96,246.064v-.173A19.252,19.252,0,0,0,357.925,226.64Zm0,0" transform="translate(-27.853 -53.128)" fill="#72d8ff"/>
  <path id="路径_5" data-name="路径 5" d="M267.511,349.161a35.99,35.99,0,0,0,22.011-33.168V288.605H245.5v27.388A35.99,35.99,0,0,0,267.511,349.161Zm0,0" transform="translate(-57.549 -67.654)" fill="#fcc69d"/>
  <path id="路径_6" data-name="路径 6" d="M288.88,249.565V227.105H268.32a25.556,25.556,0,0,0-25.554,25.557v21.526h21.49A24.626,24.626,0,0,0,288.88,249.565Zm0,0" transform="translate(-56.908 -53.237)" fill="#ffb954"/>
  <path id="路径_7" data-name="路径 7" d="M248.085,408.073l-25.85-36.694h51.7Zm0,0" transform="translate(-52.095 -87.057)" fill="#fff"/>
  <path id="路径_8" data-name="路径 8" d="M459.209,144.919V140.5a20,20,0,0,0-16.334-19.66l-11.609-2.165h-4.9l-11.606,2.165a20,20,0,0,0-16.331,19.66v4.411a64.251,64.251,0,0,0,30.393,17.3A64.236,64.236,0,0,0,459.209,144.919Zm0,0" transform="translate(-93.397 -27.82)" fill="#ff5d5d"/>
  <path id="路径_9" data-name="路径 9" d="M135.15,144.919V140.5a20,20,0,0,0-16.334-19.66l-11.609-2.165h-5.093l-11.606,2.165A20,20,0,0,0,74.176,140.5v4.411a64.247,64.247,0,0,0,30.489,17.324A64.222,64.222,0,0,0,135.15,144.919Zm0,0" transform="translate(-17.388 -27.82)" fill="#4dbaf6"/>
  <path id="路径_10" data-name="路径 10" d="M408.46,92.529V85.7a21.812,21.812,0,0,1,12.333-19.648A21.813,21.813,0,0,0,389.512,85.7v6.821a21.813,21.813,0,0,0,31.281,19.648A21.8,21.8,0,0,1,408.46,92.529Zm0,0" transform="translate(-91.308 -14.978)" fill="#fff"/>
  <path id="路径_11" data-name="路径 11" d="M438.931,93.191V86.367a21.81,21.81,0,0,0-12.336-19.648,21.812,21.812,0,0,0-12.333,19.648v6.824a21.812,21.812,0,0,0,12.333,19.648A21.81,21.81,0,0,0,438.931,93.191Zm0,0" transform="translate(-97.109 -15.64)" fill="#fcc69d"/>
  <path id="路径_12" data-name="路径 12" d="M84.46,92.529V85.7A21.812,21.812,0,0,1,96.793,66.057,21.813,21.813,0,0,0,65.512,85.7v6.821a21.813,21.813,0,0,0,31.281,19.648A21.8,21.8,0,0,1,84.46,92.529Zm0,0" transform="translate(-15.357 -14.978)" fill="#fff"/>
  <path id="路径_13" data-name="路径 13" d="M114.931,93.191V86.367a21.81,21.81,0,0,0-12.336-19.648A21.812,21.812,0,0,0,90.262,86.367v6.824a21.812,21.812,0,0,0,12.333,19.648A21.81,21.81,0,0,0,114.931,93.191Zm0,0" transform="translate(-21.159 -15.64)" fill="#fcc69d"/>
  <path id="路径_14" data-name="路径 14" d="M340.938,216.644c-.1,0-.206,0-.311,0a26.914,26.914,0,0,0-26.9,26.906v.176a83.914,83.914,0,0,1-73.287,83.135,43.439,43.439,0,0,0,9.971-27.734V251.436a7.651,7.651,0,0,0-.138-1.421c.087-.957.138-1.926.138-2.9V224.655A7.655,7.655,0,0,0,242.755,217H196.348a33.25,33.25,0,0,0-33.213,33.21v48.914a43.439,43.439,0,0,0,9.971,27.734,83.917,83.917,0,0,1-73.29-83.135v-.176a26.908,26.908,0,0,0-53.815,0v.176a137.855,137.855,0,0,0,89.884,129.07v62.314a7.656,7.656,0,1,0,15.312,0v-67.76a7.651,7.651,0,0,0-5.29-7.279A122.06,122.06,0,0,1,61.312,243.723v-.176a11.6,11.6,0,0,1,23.192,0v.176a99.228,99.228,0,0,0,92.328,98.865l22.384,31.775v23.428a7.656,7.656,0,0,0,15.312,0v-23.7l22.187-31.5a99.23,99.23,0,0,0,92.328-98.865v-.176a11.593,11.593,0,0,1,11.591-11.594h.135a11.637,11.637,0,0,1,11.466,11.594v.173A122.053,122.053,0,0,1,267.64,360.065a7.657,7.657,0,0,0-5.29,7.282v39.945a7.656,7.656,0,0,0,15.312,0v-34.5a137.844,137.844,0,0,0,89.884-129.07v-.176A27,27,0,0,0,340.938,216.644ZM206.773,358.507l-11.047-15.68H217.82Zm-28.327-79.115h39.685a32.079,32.079,0,0,0,16.968-4.836v24.567a28.327,28.327,0,1,1-56.653,0Zm0-29.182a17.92,17.92,0,0,1,17.9-17.9H235.1v14.8a16.988,16.988,0,0,1-16.968,16.968H178.446Zm0,0" transform="translate(-10.783 -50.784)" fill="#5b4016"/>
  <path id="路径_15" data-name="路径 15" d="M336.246,492a7.658,7.658,0,1,0,5.413,2.243A7.733,7.733,0,0,0,336.246,492Zm0,0" transform="translate(-77.027 -115.333)" fill="#5b4016"/>
  <path id="路径_16" data-name="路径 16" d="M395.965,0A71.965,71.965,0,1,0,467.93,71.965,72.046,72.046,0,0,0,395.965,0Zm0,15.312a56.64,56.64,0,0,1,49.8,83.643A27.652,27.652,0,0,0,426.833,85.5l-2.378-.446a29.429,29.429,0,0,0,.972-7.506V70.727a29.465,29.465,0,1,0-58.929,0v6.821a29.429,29.429,0,0,0,.972,7.506l-2.378.443a27.647,27.647,0,0,0-18.93,13.455,56.637,56.637,0,0,1,49.8-83.64Zm-14.154,62.24V70.727a14.153,14.153,0,0,1,28.306,0v6.824a14.153,14.153,0,0,1-28.306,0Zm-23.99,36.264v-1.13A12.349,12.349,0,0,1,367.9,100.552l7.961-1.486a29.386,29.386,0,0,0,40.2,0l7.964,1.486A12.346,12.346,0,0,1,434.1,112.684v1.133a56.543,56.543,0,0,1-76.283,0Zm0,0" transform="translate(-75.951)" fill="#5b4016"/>
  <path id="路径_17" data-name="路径 17" d="M143.93,71.965A71.965,71.965,0,1,0,71.965,143.93,72.046,72.046,0,0,0,143.93,71.965ZM33.82,113.815v-1.13A12.348,12.348,0,0,1,43.9,100.552l7.961-1.486a29.386,29.386,0,0,0,40.2,0l7.964,1.486A12.346,12.346,0,0,1,110.1,112.684v1.133a56.543,56.543,0,0,1-76.283,0Zm52.3-36.264a14.153,14.153,0,0,1-28.306,0V70.727a14.153,14.153,0,0,1,28.306,0ZM71.965,15.312a56.64,56.64,0,0,1,49.8,83.643A27.652,27.652,0,0,0,102.834,85.5l-2.377-.446a29.429,29.429,0,0,0,.972-7.506V70.727a29.465,29.465,0,1,0-58.929,0v6.824a29.291,29.291,0,0,0,.972,7.5l-2.377.446a27.643,27.643,0,0,0-18.93,13.452,56.637,56.637,0,0,1,49.8-83.64Zm0,0" fill="#5b4016"/>
</svg>
