<svg xmlns="http://www.w3.org/2000/svg" width="512" height="511.98" viewBox="0 0 512 511.98">
    <defs>
        <style>
            .cls-1{fill:#fcc69d}.cls-2{fill:#fff}.cls-3{fill:#a0e557}.cls-4{fill:#ff5d5d}.cls-5{fill:#5b4016}
        </style>
    </defs>
    <g id="pic_landing_page_4" data-name="pic_landing page_4" transform="translate(-1168 -2541)">
        <path id="Path_28" d="M187.828 391.258c-.687.559-69.535 55.477-115.379 9.633-16.4-16.4-17.074-42.422-1.492-58a38.713 38.713 0 0 1 29.453-11.234 23.388 23.388 0 0 0 20.29-36.634A85.892 85.892 0 0 0 65.629 319.8c-23.8 23.8-30.516 58.426-20.344 88.934a31.681 31.681 0 0 1-7.531 32.5L91.605 493.7a166.51 166.51 0 0 1 61.957-33.2q3.012-.879 6.051-1.887a202.393 202.393 0 0 0 57.7-31.02 24.522 24.522 0 0 0 1.824-1.641 23.4 23.4 0 0 0-31.309-34.687zm0 0" class="cls-1" data-name="Path 28" transform="translate(1168 2541)"/>
        <path id="Path_29" d="M443.5 37.754a31.681 31.681 0 0 1-32.5 7.531c-30.5-10.176-65.133-3.453-88.93 20.344a85.939 85.939 0 0 0-24.859 56.4 23.394 23.394 0 0 0 34.469-21.625 38.681 38.681 0 0 1 11.23-29.449c15.582-15.582 41.6-14.914 58 1.488 45.844 45.844-9.074 114.691-9.633 115.383a23.395 23.395 0 0 0 34.688 31.3 22.181 22.181 0 0 0 1.641-1.82 202.284 202.284 0 0 0 31.02-57.7q1.014-3.035 1.891-6.051a166.361 166.361 0 0 1 34.242-63.187zm0 0" class="cls-1" data-name="Path 29" transform="translate(1168 2541)"/>
        <path id="Path_30" d="M149.961 271.738a5.032 5.032 0 0 0-2.2-8.418 20.507 20.507 0 0 1-9.179-5.32l-.605-.605a20.615 20.615 0 0 1 29.156-29.152l.605.605a20.5 20.5 0 0 1 5.32 9.184 5.034 5.034 0 0 0 8.418 2.2l22.044-22.052a10.378 10.378 0 0 1 14.68 0l21.531 21.531a5.031 5.031 0 0 1-1.914 8.328 20.53 20.53 0 0 0-8.027 4.973l-.605.605a20.615 20.615 0 0 0 29.152 29.156l.605-.605a20.508 20.508 0 0 0 4.977-8.031 5.03 5.03 0 0 1 8.328-1.91l21.553 21.554a10.378 10.378 0 0 1 0 14.68L271.758 330.5a5.034 5.034 0 0 0 2.2 8.418 20.5 20.5 0 0 1 9.184 5.32l.605.605A20.617 20.617 0 0 1 254.586 374l-.6-.605a20.471 20.471 0 0 1-5.324-9.184 5.031 5.031 0 0 0-8.418-2.2L218.2 384.063a10.385 10.385 0 0 1-14.68 0l-22.09-22.094a5.035 5.035 0 0 0-8.43 2.219 20.468 20.468 0 0 1-5.344 9.262l-.605.605A20.615 20.615 0 0 1 137.9 344.9l.6-.605a20.551 20.551 0 0 1 9.266-5.344 5.032 5.032 0 0 0 2.215-8.422l-22.066-22.066a10.383 10.383 0 0 1 0-14.684l21.543-21.539zm0 0" class="cls-2" data-name="Path 30" transform="translate(1168 2541)"/>
        <path id="Path_31" d="M271.707 271.688l22.093 22.093a10.378 10.378 0 0 0 14.68 0l22.043-22.043a5.033 5.033 0 0 0-2.2-8.418 20.507 20.507 0 0 1-9.178-5.32l-.605-.605a20.615 20.615 0 0 1 29.16-29.157l.6.605a20.471 20.471 0 0 1 5.324 9.184 5.034 5.034 0 0 0 8.418 2.2l22.043-22.043a10.378 10.378 0 0 0 0-14.68l-21.555-21.555a5.035 5.035 0 0 1 1.91-8.332 20.47 20.47 0 0 0 8.031-4.973l.605-.605a20.615 20.615 0 0 0-29.156-29.152l-.605.6a20.571 20.571 0 0 0-4.973 8.031 5.032 5.032 0 0 1-8.328 1.914L308.48 127.9a10.378 10.378 0 0 0-14.68 0l-21.543 21.539-.5.5a5.034 5.034 0 0 1-8.418-2.2 20.5 20.5 0 0 0-5.32-9.184l-.605-.605a20.615 20.615 0 0 0-29.156 29.152l.605.605a20.507 20.507 0 0 0 9.184 5.324 5.034 5.034 0 0 1 2.2 8.418L218.2 203.5a10.378 10.378 0 0 0 0 14.68l22.066 22.066" class="cls-2" data-name="Path 31" transform="translate(1168 2541)"/>
        <path id="Path_32" d="M272.246 272.227a5.032 5.032 0 0 0-8.328 1.91 20.525 20.525 0 0 1-4.977 8.031l-.605.605a20.615 20.615 0 0 1-29.152-29.156l.6-.605a20.571 20.571 0 0 1 8.031-4.973 5.033 5.033 0 0 0 1.914-8.328l-7.227-7.227L187 278a39.6 39.6 0 0 0 0 56l40.629 40.633 12.617-12.617a5.033 5.033 0 0 1 8.418 2.2 20.5 20.5 0 0 0 5.32 9.184l.605.605a20.617 20.617 0 0 0 29.156-29.156l-.605-.605a20.5 20.5 0 0 0-9.184-5.32 5.033 5.033 0 0 1-2.2-8.418l22.044-22.045a10.383 10.383 0 0 0 0-14.684zm0 0" class="cls-3" data-name="Path 32" transform="translate(1168 2541)"/>
        <path id="Path_33" d="M362.527 181.945a5.032 5.032 0 0 1 1.91-8.328 20.48 20.48 0 0 0 8.031-4.977l.605-.6a20.617 20.617 0 0 0-29.156-29.156l-.605.605a20.485 20.485 0 0 0-4.973 8.027 5.034 5.034 0 0 1-8.332 1.914l-13.347-13.352-49.06 49.059a39.6 39.6 0 0 0 0 56l46.759 46.763 16.164-16.164a5.034 5.034 0 0 0-2.2-8.418 20.478 20.478 0 0 1-9.184-5.32l-.605-.605a20.615 20.615 0 0 1 29.152-29.156l.605.605a20.543 20.543 0 0 1 5.324 9.184 5.033 5.033 0 0 0 8.418 2.2l22.043-22.043a10.385 10.385 0 0 0 0-14.68zm0 0" class="cls-4" data-name="Path 33" transform="translate(1168 2541)"/>
        <path id="Path_34" d="M509.07 75.551a10 10 0 0 0-14.141 0 175.679 175.679 0 0 0-44.02 75.219 164.447 164.447 0 0 1-1.773 5.684 191.032 191.032 0 0 1-29.3 54.559c-.3.367-.617.723-.945 1.051a13.381 13.381 0 0 1-22.527-6.641c-.02-.07-.031-.145-.051-.211a13.373 13.373 0 0 1 2.73-11.086 164.493 164.493 0 0 0 23.887-43.746c11.891-33.937 6.723-63.332-14.949-85a52.879 52.879 0 0 0-36.125-15.664 48.533 48.533 0 0 0-50.172 51.137 13.394 13.394 0 1 1-26.762 1.176A76.082 76.082 0 0 1 316.9 44.941c20.434-20.434 50.59-27.3 78.7-17.926a41.491 41.491 0 0 0 42.734-9.945 10 10 0 0 0-14.146-14.14 21.6 21.6 0 0 1-22.266 5.113c-35.344-11.789-73.344-3.07-99.168 22.757a96.151 96.151 0 0 0-27.813 72.1 33.216 33.216 0 0 0 8.7 21.012l-13.773 13.773a30.662 30.662 0 0 0-4.781-6.2l-.605-.605a30.616 30.616 0 0 0-43.3 43.3l.605.605a30.554 30.554 0 0 0 6.2 4.781l-16.858 16.864a20.222 20.222 0 0 0-5.309 9.371 20.184 20.184 0 0 0-9.371 5.309l-16.859 16.859a30.554 30.554 0 0 0-4.781-6.2l-.605-.605a30.616 30.616 0 0 0-43.3 43.3l.605.605a30.554 30.554 0 0 0 6.2 4.781l-13.779 13.779a33.261 33.261 0 0 0-21.027-8.707 96.13 96.13 0 0 0-72.1 27.813C4.977 328.559-3.746 366.559 8.043 401.9a21.6 21.6 0 0 1-5.113 22.268 10 10 0 0 0 14.14 14.141 41.483 41.483 0 0 0 9.945-42.734c-9.375-28.109-2.5-58.266 17.93-78.7a76.07 76.07 0 0 1 57.082-21.975 13.4 13.4 0 0 1-1.176 26.766 48.6 48.6 0 0 0-36.965 14.148c-19.48 19.48-18.809 51.844 1.488 72.145 15.691 15.691 33.523 21.188 50.813 21.188 40.176 0 77.414-29.7 77.945-30.125a13.394 13.394 0 0 1 17.938 19.844 12.809 12.809 0 0 1-1.059.953 191.1 191.1 0 0 1-54.559 29.3 149.431 149.431 0 0 1-5.68 1.773 175.731 175.731 0 0 0-75.223 44.02A10 10 0 0 0 89.7 509.055a155.67 155.67 0 0 1 66.652-38.955c2.141-.621 4.3-1.3 6.422-2 34.379-11.453 59.777-31.879 60.84-32.742a33.975 33.975 0 0 0 2.594-2.336 33.3 33.3 0 0 0 2.293-44.637c-.07-.086-.148-.168-.219-.254l13.848-13.848a30.662 30.662 0 0 0 4.781 6.2l.605.6a30.616 30.616 0 0 0 43.3-43.3l-.605-.605a30.662 30.662 0 0 0-6.2-4.781l16.859-16.859a20.184 20.184 0 0 0 5.309-9.371 20.222 20.222 0 0 0 9.371-5.309l22.043-22.043a15.035 15.035 0 0 0-6.664-25.145 10.419 10.419 0 0 1-4.719-2.734l-.6-.605a10.616 10.616 0 0 1 15.012-15.016l.605.605a10.427 10.427 0 0 1 2.738 4.719 15.034 15.034 0 0 0 25.145 6.664l19.02-19.023c.09.074.176.152.266.227a33.3 33.3 0 0 0 44.641-2.293c.813-.816 1.6-1.687 2.332-2.59.863-1.062 21.285-26.453 32.742-60.848a164.935 164.935 0 0 0 2-6.418 155.707 155.707 0 0 1 38.957-66.66 10 10 0 0 0 .002-14.147zm-167.4 24.418A28.53 28.53 0 0 1 371.344 69.7a32.943 32.943 0 0 1 22.492 9.813c39.188 39.184-9.848 101.414-10.324 102.008a33.6 33.6 0 0 0-2.965 4.3l-6.047-6.047a30.731 30.731 0 0 0 5.039-4.062l.605-.605a30.617 30.617 0 0 0-43.293-43.3l-.609.609a30.551 30.551 0 0 0-4.066 5.039l-7.137-7.137a33.42 33.42 0 0 0 16.629-30.349zM79.52 393.816c-12.5-12.5-13.172-32.176-1.492-43.855a28.869 28.869 0 0 1 21.945-8.312 33.369 33.369 0 0 0 30.355-16.637l7.383 7.383a30.765 30.765 0 0 0-6.281 4.832l-.6.6a30.614 30.614 0 1 0 43.3 43.289l.6-.6a30.667 30.667 0 0 0 4.832-6.277l6.273 6.277a33.4 33.4 0 0 0-4.281 2.949c-.624.504-62.843 49.547-102.034 10.351zm207.211-92.43l-22.043 22.044a15.032 15.032 0 0 0 6.664 25.145 10.434 10.434 0 0 1 4.715 2.738l.605.605a10.616 10.616 0 1 1-15.012 15.016l-.605-.609a10.394 10.394 0 0 1-2.738-4.715 15.034 15.034 0 0 0-25.145-6.664l-22.043 22.043a.367.367 0 0 1-.246.1c-.047-.012-.09-.027-.137-.039a.323.323 0 0 1-.156-.062L188.5 354.9a15.034 15.034 0 0 0-25.16 6.723 10.6 10.6 0 0 1-2.754 4.762l-.6.6a10.616 10.616 0 1 1-15.008-15.02l.594-.6a10.455 10.455 0 0 1 4.762-2.746 15.034 15.034 0 0 0 6.723-25.16l-22.07-22.07a.377.377 0 0 1 0-.535l22.039-22.035a.014.014 0 0 1 0-.008 15.034 15.034 0 0 0-6.664-25.145 10.434 10.434 0 0 1-4.715-2.738l-.605-.605a10.615 10.615 0 1 1 15.012-15.012l.605.605a10.414 10.414 0 0 1 2.738 4.715 15.034 15.034 0 0 0 25.145 6.664l22.048-22.045a.377.377 0 0 1 .535 0l16.625 16.625a30.891 30.891 0 0 0-5.035 4.066l-.605.605a30.616 30.616 0 1 0 43.3 43.3l.605-.605a30.571 30.571 0 0 0 4.074-5.027l16.641 16.641a.374.374 0 0 1 0 .532zm73.422-73.418a30.554 30.554 0 0 0-4.781-6.2l-.605-.605a30.616 30.616 0 0 0-43.3 43.3l.605.605a30.662 30.662 0 0 0 6.2 4.781l-16.862 16.862a.389.389 0 0 1-.539 0l-21.555-21.559a15.036 15.036 0 0 0-24.887 5.82 10.467 10.467 0 0 1-2.559 4.125l-.605.6a10.615 10.615 0 1 1-15.012-15.012l.605-.605a10.467 10.467 0 0 1 4.125-2.559 15.033 15.033 0 0 0 5.816-24.887l-21.529-21.525a.382.382 0 0 1 0-.539l22.043-22.043a15.034 15.034 0 0 0-6.664-25.145 10.434 10.434 0 0 1-4.715-2.738l-.605-.605a10.615 10.615 0 1 1 15.012-15.012l.605.605a10.434 10.434 0 0 1 2.738 4.715 15.032 15.032 0 0 0 25.145 6.664l22.043-22.043a.377.377 0 0 1 .535 0l21.531 21.532a15.032 15.032 0 0 0 24.887-5.816 10.461 10.461 0 0 1 2.555-4.121l.609-.609A10.616 10.616 0 0 1 366 160.969l-.6.6a10.535 10.535 0 0 1-4.129 2.563 15.032 15.032 0 0 0-5.816 24.887l21.555 21.555a.37.37 0 0 1 .063.145c.012.051.027.1.039.152a.375.375 0 0 1-.1.238zm0 0" class="cls-5" data-name="Path 34" transform="translate(1168 2541)"/>
        <path id="Path_35" d="M113.52 127.664a10 10 0 0 0 14.14-14.144L90.387 76.246a10 10 0 0 0-14.145 14.141zm0 0" class="cls-5" data-name="Path 35" transform="translate(1168 2541)"/>
        <path id="Path_36" d="M145.738 155.738a10 10 0 1 0-7.07-2.93 10.039 10.039 0 0 0 7.07 2.93zm0 0" class="cls-5" data-name="Path 36" transform="translate(1168 2541)"/>
        <path id="Path_37" d="M65.074 184.926l29.973-.012a10 10 0 0 0 0-20l-29.973.012a10 10 0 0 0 0 20zm0 0" class="cls-5" data-name="Path 37" transform="translate(1168 2541)"/>
        <path id="Path_38" d="M174.969 106.969a10.007 10.007 0 0 0 10-10l-.016-31.891a10 10 0 0 0-10-10 10 10 0 0 0-10 10l.016 31.891a10 10 0 0 0 10 10zm0 0" class="cls-5" data-name="Path 38" transform="translate(1168 2541)"/>
        <path id="Path_39" d="M398.48 384.3a10 10 0 0 0-14.145 14.141l37.277 37.277a10 10 0 0 0 14.141-14.145zm0 0" class="cls-5" data-name="Path 39" transform="translate(1168 2541)"/>
        <path id="Path_40" d="M365.008 354.969a10 10 0 1 0 7.07 2.93 10.07 10.07 0 0 0-7.07-2.93zm0 0" class="cls-5" data-name="Path 40" transform="translate(1168 2541)"/>
        <path id="Path_41" d="M446.922 327.035l-29.969.012a10 10 0 0 0 0 20l29.973-.012a10 10 0 0 0-.008-20zm0 0" class="cls-5" data-name="Path 41" transform="translate(1168 2541)"/>
        <path id="Path_42" d="M337.031 404.992a10 10 0 0 0-10 10l.012 31.891a10 10 0 0 0 10 10 10 10 0 0 0 10-10l-.012-31.891a10 10 0 0 0-10-10zm0 0" class="cls-5" data-name="Path 42" transform="translate(1168 2541)"/>
    </g>
</svg>
