<svg xmlns="http://www.w3.org/2000/svg" width="490.841" height="490.841" viewBox="0 0 490.841 490.841">
    <defs>
        <style>
            .cls-1{fill:#d45b5b}.cls-2{fill:#fff}.cls-3{fill:#b3d5e4}.cls-4{fill:#aad45b}.cls-5{fill:#e4d9b3}.cls-6{fill:#b9dce5}.cls-7{fill:#f0b7b7}.cls-8{fill:#f7ca7b}.cls-9{fill:#b8d45b}.cls-10{fill:#bad7ff}.cls-11{fill:#e4ccb3}.cls-12{fill:#c98263}.cls-13{fill:#5b8ed4}.cls-14{fill:#5b4016}
        </style>
    </defs>
    <g id="pic_landing_page_1" data-name="pic_landing page_1" transform="translate(-715 -607)">
        <g id="Group_62" data-name="Group 62" transform="translate(869.41 635.632)">
            <path id="Path_43" d="M201.592 208.584c.651.259 1.316.488 1.967.732-.118-.044-.229-.1-.348-.14-.532-.2-1.087-.376-1.619-.592z" class="cls-1" data-name="Path 43" transform="translate(-140.968 -23.192)"/>
            <path id="Path_44" d="M177.961 195.326c-.1-.074-.192-.14-.281-.214.096.074.185.148.281.214z" class="cls-1" data-name="Path 44" transform="translate(-139.157 -22.172)"/>
            <path id="Path_45" d="M185.967 200.737c-.266-.163-.532-.318-.791-.481.259.163.524.318.791.481z" class="cls-1" data-name="Path 45" transform="translate(-139.725 -22.562)"/>
            <path id="Path_46" d="M294.767 200.256c-.266.163-.532.318-.791.481.259-.163.524-.318.791-.481z" class="cls-1" data-name="Path 46" transform="translate(-147.965 -22.562)"/>
            <path id="Path_47" d="M302.3 195.12l-.281.214c.093-.074.181-.147.281-.214z" class="cls-1" data-name="Path 47" transform="translate(-148.574 -22.173)"/>
            <path id="Path_48" d="M194.659 205.484c-.51-.244-1.02-.481-1.531-.732.51.259 1.028.488 1.531.732z" class="cls-1" data-name="Path 48" transform="translate(-140.327 -22.902)"/>
            <path id="Path_49" d="M286.739 204.752c-.5.259-1.02.488-1.531.732.51-.244 1.028-.473 1.531-.732z" class="cls-1" data-name="Path 49" transform="translate(-147.301 -22.902)"/>
            <path id="Path_50" d="M249.448 215.547c.237-.022.481-.037.717-.067-.118.015-.244.007-.362.022s-.237.037-.355.045z" class="cls-1" data-name="Path 50" transform="translate(-144.593 -23.715)"/>
            <path id="Path_51" d="M267.608 212.169c.569-.155 1.146-.3 1.715-.473-.355.1-.725.177-1.08.281-.214.059-.421.133-.635.192z" class="cls-1" data-name="Path 51" transform="translate(-145.968 -23.428)"/>
            <path id="Path_52" d="M276.272 209.316c.658-.244 1.324-.473 1.967-.732-.532.214-1.087.392-1.627.592a2.34 2.34 0 0 1-.34.14z" class="cls-1" data-name="Path 52" transform="translate(-146.624 -23.192)"/>
            <path id="Path_53" d="M258.656 214.261c.436-.081.865-.148 1.3-.237-.237.044-.481.067-.71.111-.198.037-.39.089-.59.126z" class="cls-1" data-name="Path 53" transform="translate(-145.29 -23.604)"/>
            <path id="Path_54" d="M229.776 215.48l.717.067c-.118-.007-.237-.037-.355-.044s-.244-.008-.362-.023z" class="cls-1" data-name="Path 54" transform="translate(-143.103 -23.715)"/>
            <path id="Path_55" d="M210.536 211.7c.569.17 1.146.318 1.715.473-.214-.059-.421-.133-.636-.192-.362-.108-.724-.174-1.079-.281z" class="cls-1" data-name="Path 55" transform="translate(-141.645 -23.428)"/>
            <path id="Path_56" d="M219.936 214.024c.429.089.865.155 1.3.237-.2-.037-.392-.089-.592-.126-.235-.044-.471-.067-.708-.111z" class="cls-1" data-name="Path 56" transform="translate(-142.357 -23.604)"/>
            <path id="Path_57" d="M253.336 214.99c1.649-.214 3.3-.414 4.917-.71-1.272.237-2.581.37-3.874.555-.348.044-.688.11-1.043.155z" class="cls-1" data-name="Path 57" transform="translate(-144.887 -23.624)"/>
            <path id="Path_58" d="M211.7 212c.214.059.421.133.636.192.614.17 1.25.288 1.871.451-.832-.214-1.675-.406-2.507-.643z" class="cls-1" data-name="Path 58" transform="translate(-141.734 -23.451)"/>
            <path id="Path_59" d="M254.472 214.824c1.294-.185 2.6-.318 3.874-.555.2-.037.392-.089.592-.126-1.479.275-2.98.474-4.466.681z" class="cls-1" data-name="Path 59" transform="translate(-144.973 -23.614)"/>
            <path id="Path_60" d="M221.344 214.28c1.619.3 3.268.5 4.917.71-.348-.044-.7-.111-1.043-.163-1.293-.177-2.602-.318-3.874-.547z" class="cls-1" data-name="Path 60" transform="translate(-142.464 -23.624)"/>
            <path id="Path_61" d="M265.584 212.643c.621-.155 1.257-.281 1.871-.451.214-.059.421-.133.636-.192-.829.237-1.671.429-2.507.643z" class="cls-1" data-name="Path 61" transform="translate(-145.815 -23.451)"/>
            <path id="Path_62" d="M240 215.962c2.95 0 5.856-.155 8.732-.414.118-.007.237-.037.355-.044-2.994.281-6.018.458-9.087.458z" class="cls-1" data-name="Path 62" transform="translate(-143.877 -23.717)"/>
            <path id="Path_63" d="M263.624 213.125a88.75 88.75 0 0 0 3.682-.917c-.614.17-1.25.288-1.871.451s-1.197.325-1.811.466z" class="cls-1" data-name="Path 63" transform="translate(-145.666 -23.467)"/>
            <path id="Path_64" d="M212.392 212.208c1.213.34 2.447.628 3.682.917-.606-.14-1.205-.311-1.812-.466s-1.256-.281-1.87-.451z" class="cls-1" data-name="Path 64" transform="translate(-141.786 -23.467)"/>
            <path id="Path_65" d="M275.76 209.527c.155-.059.318-.1.473-.163.118-.044.229-.1.348-.14-.274.111-.547.207-.821.303z" class="cls-1" data-name="Path 65" transform="translate(-146.586 -23.241)"/>
            <path id="Path_66" d="M197.783 206.99c-.436-.192-.85-.421-1.279-.614.429.2.843.424 1.279.614z" class="cls-1" data-name="Path 66" transform="translate(-140.583 -23.025)"/>
            <path id="Path_67" d="M273.144 210.426a90.706 90.706 0 0 0 2.891-1.05c-.155.059-.318.1-.473.163-.806.295-1.605.613-2.418.887z" class="cls-1" data-name="Path 67" transform="translate(-146.387 -23.252)"/>
            <path id="Path_68" d="M230.523 215.548c2.876.259 5.782.414 8.732.414-3.069 0-6.093-.177-9.087-.458.118.007.232.037.355.044z" class="cls-1" data-name="Path 68" transform="translate(-143.132 -23.717)"/>
            <path id="Path_69" d="M283.4 206.376c-.429.2-.85.421-1.279.614.428-.19.842-.414 1.279-.614z" class="cls-1" data-name="Path 69" transform="translate(-147.067 -23.025)"/>
            <path id="Path_70" d="M220.7 214.144c.2.037.392.089.592.126 1.272.237 2.581.37 3.874.555-1.49-.208-2.991-.407-4.466-.681z" class="cls-1" data-name="Path 70" transform="translate(-142.416 -23.614)"/>
            <path id="Path_71" d="M203.728 209.376c.961.362 1.922.717 2.891 1.05-.813-.274-1.612-.592-2.418-.887-.155-.052-.318-.104-.473-.163z" class="cls-1" data-name="Path 71" transform="translate(-141.13 -23.252)"/>
            <path id="Path_72" d="M248.732 215.552z" class="cls-1" data-name="Path 72" transform="translate(-143.877 -23.72)"/>
            <path id="Path_73" d="M203.352 209.232c.118.044.229.1.348.14.155.059.318.1.473.163-.273-.103-.547-.199-.821-.303z" class="cls-1" data-name="Path 73" transform="translate(-141.101 -23.242)"/>
            <path id="Path_74" d="M239.284 215.966z" class="cls-1" data-name="Path 74" transform="translate(-143.161 -23.72)"/>
            <path id="Path_75" d="M200.264 207.992c.414.17.806.377 1.227.547.532.214 1.087.392 1.627.592a96.87 96.87 0 0 1-2.854-1.139z" class="cls-1" data-name="Path 75" transform="translate(-140.867 -23.148)"/>
            <path id="Path_76" d="M276.648 209.139c.54-.2 1.087-.384 1.627-.592.414-.17.813-.377 1.227-.547-.946.384-1.893.769-2.854 1.139z" class="cls-1" data-name="Path 76" transform="translate(-146.653 -23.148)"/>
            <path id="Path_77" d="M278.408 208.467c1.154-.458 2.3-.924 3.423-1.427-.717.318-1.471.577-2.2.88-.41.18-.809.38-1.223.547z" class="cls-1" data-name="Path 77" transform="translate(-146.786 -23.075)"/>
            <path id="Path_78" d="M227.48 215.152c.71.089 1.4.229 2.122.3.118.015.244.007.362.022-.835-.074-1.656-.218-2.484-.322z" class="cls-1" data-name="Path 78" transform="translate(-142.929 -23.69)"/>
            <path id="Path_79" d="M197.888 207.04c1.131.5 2.277.969 3.423 1.427-.414-.17-.813-.377-1.227-.547-.725-.303-1.479-.555-2.196-.88z" class="cls-1" data-name="Path 79" transform="translate(-140.687 -23.075)"/>
            <path id="Path_80" d="M175.595 193.522v-.111c-1.678-1.316-3.357-2.632-4.947-4.059q3.128 2.806 6.492 5.331c-.148-.111-.274-.237-.421-.348-.363-.28-.762-.535-1.124-.813z" class="cls-1" data-name="Path 80" transform="translate(-138.624 -21.736)"/>
            <path id="Path_81" d="M269.464 211.606c1.146-.34 2.27-.717 3.4-1.094-.592.2-1.205.362-1.8.555-.543.17-1.064.384-1.6.539z" class="cls-1" data-name="Path 81" transform="translate(-146.109 -23.338)"/>
            <path id="Path_82" d="M206.856 210.512c1.131.377 2.255.762 3.4 1.094-.54-.163-1.057-.37-1.59-.54-.605-.192-1.218-.354-1.81-.554z" class="cls-1" data-name="Path 82" transform="translate(-141.367 -23.338)"/>
            <path id="Path_83" d="M232.123 8a96.028 96.028 0 0 0-64.1 167.616c1.59 1.427 3.268 2.743 4.947 4.059v-21.553a31.82 31.82 0 0 1 31.817-31.817h27.336c-15.683 0-44.364-19.86-44.364-44.364s7.394-51.759 44.364-51.759 44.364 27.255 44.364 51.759-28.682 44.364-44.364 44.364h27.336a31.82 31.82 0 0 1 31.817 31.817v21.554c1.678-1.316 3.357-2.632 4.947-4.059a95.774 95.774 0 0 0 7.394-135.592A95.816 95.816 0 0 0 232.123 8z" class="cls-1" data-name="Path 83" transform="translate(-136 -8)"/>
            <path id="Path_84" d="M303.873 193.4v.111c-.362.288-.762.532-1.131.813-.148.111-.274.237-.421.348q3.372-2.529 6.492-5.331c-1.583 1.43-3.262 2.746-4.94 4.059z" class="cls-1" data-name="Path 84" transform="translate(-148.597 -21.735)"/>
            <path id="Path_85" d="M300.576 196.207c.436-.311.9-.584 1.331-.909.1-.074.192-.141.281-.214.148-.111.274-.237.422-.348-.666.51-1.354.983-2.034 1.471z" class="cls-1" data-name="Path 85" transform="translate(-148.465 -22.144)"/>
            <path id="Path_86" d="M295.475 199.441c-.222.14-.421.3-.643.444a97.096 97.096 0 0 0 6.64-4.533c-.429.318-.895.592-1.331.909-1.531 1.095-3.069 2.167-4.666 3.18z" class="cls-1" data-name="Path 86" transform="translate(-148.03 -22.19)"/>
            <path id="Path_87" d="M268.3 211.933c.355-.1.725-.17 1.079-.281.54-.163 1.057-.37 1.59-.54-.884.281-1.769.562-2.669.821z" class="cls-1" data-name="Path 87" transform="translate(-146.02 -23.384)"/>
            <path id="Path_88" d="M283.5 206.314c.532-.244 1.057-.51 1.582-.762-.17.081-.355.155-.525.237-.357.162-.698.355-1.057.525z" class="cls-1" data-name="Path 88" transform="translate(-147.172 -22.963)"/>
            <path id="Path_89" d="M284.64 205.679c.17-.081.355-.148.525-.237.51-.244 1.02-.481 1.531-.732.311-.155.6-.348.909-.51a85.254 85.254 0 0 1-2.965 1.479z" class="cls-1" data-name="Path 89" transform="translate(-147.258 -22.86)"/>
            <path id="Path_90" d="M292.728 201.344c.377-.222.776-.414 1.146-.643.266-.163.532-.318.791-.481.222-.14.429-.3.643-.444-.842.54-1.708 1.05-2.58 1.568z" class="cls-1" data-name="Path 90" transform="translate(-147.871 -22.525)"/>
            <path id="Path_91" d="M287.773 203.941c-.311.163-.6.348-.909.51a96.105 96.105 0 0 0 6.566-3.675c-.37.229-.769.421-1.146.643a101.173 101.173 0 0 1-4.511 2.522z" class="cls-1" data-name="Path 91" transform="translate(-147.427 -22.601)"/>
            <path id="Path_92" d="M260.064 213.962c1.109-.214 2.2-.5 3.29-.762-.436.1-.88.192-1.316.288-.665.141-1.309.341-1.974.474z" class="cls-1" data-name="Path 92" transform="translate(-145.397 -23.542)"/>
            <path id="Path_93" d="M250.224 215.447c.969-.1 1.915-.274 2.876-.4-.251.03-.5.067-.754.1-.71.086-1.405.234-2.122.3z" class="cls-1" data-name="Path 93" transform="translate(-144.651 -23.682)"/>
            <path id="Path_94" d="M208.808 211.112c.54.17 1.05.384 1.59.54.355.1.725.177 1.08.281-.895-.259-1.778-.54-2.67-.821z" class="cls-1" data-name="Path 94" transform="translate(-141.515 -23.384)"/>
            <path id="Path_95" d="M249.832 215.477c.118-.015.244-.007.362-.022.717-.074 1.4-.214 2.122-.3-.828.101-1.648.245-2.484.322z" class="cls-1" data-name="Path 95" transform="translate(-144.622 -23.69)"/>
            <path id="Path_96" d="M194.784 205.544c.525.251 1.05.518 1.582.762-.355-.163-.7-.355-1.057-.525-.17-.081-.348-.148-.525-.237z" class="cls-1" data-name="Path 96" transform="translate(-140.452 -22.962)"/>
            <path id="Path_97" d="M216.376 213.2c1.094.259 2.181.54 3.29.762-.665-.133-1.309-.325-1.974-.473-.436-.097-.88-.189-1.316-.289z" class="cls-1" data-name="Path 97" transform="translate(-142.088 -23.542)"/>
            <path id="Path_98" d="M192.152 204.2c.311.163.6.348.909.51.5.259 1.02.488 1.531.732.17.081.355.155.525.237a85.254 85.254 0 0 1-2.965-1.479z" class="cls-1" data-name="Path 98" transform="translate(-140.253 -22.86)"/>
            <path id="Path_99" d="M187.178 201.419c-.377-.222-.776-.414-1.146-.643a96.966 96.966 0 0 0 6.566 3.675c-.311-.155-.6-.348-.909-.51a98.978 98.978 0 0 1-4.511-2.522z" class="cls-1" data-name="Path 99" transform="translate(-139.789 -22.601)"/>
            <path id="Path_100" d="M226.664 215.048c.961.126 1.908.3 2.876.4-.717-.074-1.4-.214-2.122-.3-.251-.033-.503-.063-.754-.1z" class="cls-1" data-name="Path 100" transform="translate(-142.867 -23.682)"/>
            <path id="Path_101" d="M217.8 213.512c.665.148 1.309.34 1.974.473.237.044.481.067.71.111-.902-.17-1.789-.396-2.684-.584z" class="cls-1" data-name="Path 101" transform="translate(-142.196 -23.566)"/>
            <path id="Path_102" d="M179.315 196.253c-.436-.311-.9-.584-1.331-.909a96.38 96.38 0 0 0 6.64 4.533c-.222-.14-.429-.3-.643-.444-1.598-1.006-3.136-2.078-4.666-3.18z" class="cls-1" data-name="Path 102" transform="translate(-139.18 -22.19)"/>
            <path id="Path_103" d="M177.224 194.744c.148.111.274.237.421.348l.281.214c.429.318.895.592 1.331.909-.68-.495-1.368-.968-2.033-1.471z" class="cls-1" data-name="Path 103" transform="translate(-139.122 -22.144)"/>
            <path id="Path_104" d="M259.3 214.1c.237-.044.481-.059.71-.111.665-.133 1.309-.325 1.974-.473-.899.184-1.784.41-2.684.584z" class="cls-1" data-name="Path 104" transform="translate(-145.339 -23.566)"/>
            <path id="Path_105" d="M184.472 199.776c.222.14.421.3.643.444.266.163.532.318.791.481.37.229.769.421 1.146.643-.865-.518-1.73-1.028-2.58-1.568z" class="cls-1" data-name="Path 105" transform="translate(-139.671 -22.525)"/>
            <path id="Path_106" d="M303.907 193.855v-.111c-.384.3-.739.636-1.131.932.37-.289.769-.54 1.131-.821z" class="cls-1" data-name="Path 106" transform="translate(-148.632 -22.068)"/>
            <path id="Path_107" d="M225.528 214.88c.348.052.7.111 1.043.163.251.03.5.067.754.1-.599-.078-1.191-.182-1.797-.263z" class="cls-1" data-name="Path 107" transform="translate(-142.781 -23.669)"/>
            <path id="Path_108" d="M214.416 212.7c.606.155 1.2.325 1.812.466.436.1.88.192 1.316.288-1.05-.233-2.093-.492-3.128-.754z" class="cls-1" data-name="Path 108" transform="translate(-141.939 -23.504)"/>
            <path id="Path_109" d="M300.194 196.328z" class="cls-1" data-name="Path 109" transform="translate(-148.083 -22.264)"/>
            <path id="Path_110" d="M204.24 209.552c.806.3 1.6.614 2.418.887.592.2 1.205.362 1.8.555a92.254 92.254 0 0 1-4.218-1.442z" class="cls-1" data-name="Path 110" transform="translate(-141.169 -23.266)"/>
            <path id="Path_111" d="M252.52 215.131c.251-.03.5-.067.754-.1.348-.044.7-.111 1.043-.163-.599.093-1.191.196-1.797.263z" class="cls-1" data-name="Path 111" transform="translate(-144.825 -23.669)"/>
            <path id="Path_112" d="M187.272 201.472q2.218 1.32 4.51 2.521-2.295-1.193-4.51-2.521z" class="cls-1" data-name="Path 112" transform="translate(-139.883 -22.654)"/>
            <path id="Path_113" d="M262.2 213.45c.436-.1.88-.185 1.316-.288.606-.14 1.205-.311 1.812-.466a87.407 87.407 0 0 1-3.128.754z" class="cls-1" data-name="Path 113" transform="translate(-145.559 -23.504)"/>
            <path id="Path_114" d="M292.358 201.472q-2.218 1.32-4.51 2.521a98.393 98.393 0 0 0 4.51-2.521z" class="cls-1" data-name="Path 114" transform="translate(-147.501 -22.654)"/>
        </g>
        <path id="Path_163" d="M244.467 206.822c.587-.072 1.16-.165 1.739-.251 1.446-.2 2.892-.394 4.316-.659.873-.165 1.732-.372 2.6-.565a84.49 84.49 0 0 0 3.028-.73c.809-.208 1.625-.4 2.427-.623.873-.251 1.732-.523 2.591-.795a84.394 84.394 0 0 0 4.087-1.4c.265-.1.53-.193.795-.293a90.87 90.87 0 0 0 2.756-1.1q2.223-.923 4.4-1.961a95.87 95.87 0 0 0 2.87-1.432 99.018 99.018 0 0 0 4.366-2.441c.837-.5 1.682-.995 2.505-1.518a97.475 97.475 0 0 0 4.517-3.085c.659-.472 1.324-.931 1.968-1.417.379-.286.723-.608 1.1-.9v-20.865A30.774 30.774 0 0 0 259.727 136h-26.463l14.316 35.79-14.316 14.316-14.316-14.316L233.264 136H206.8a30.8 30.8 0 0 0-30.8 30.8v20.866c.372.293.716.616 1.1.9.644.487 1.31.945 1.968 1.417a96.095 96.095 0 0 0 4.517 3.085c.823.523 1.668 1.016 2.505 1.518q2.147 1.278 4.366 2.441c.945.494 1.9.966 2.87 1.432a84.372 84.372 0 0 0 4.4 1.961c.916.379 1.832.752 2.756 1.1.265.1.53.193.795.293 1.346.5 2.713.959 4.087 1.4.859.272 1.718.544 2.591.795.8.229 1.618.415 2.427.623q1.5.387 3.028.73c.866.193 1.725.4 2.6.565 1.424.265 2.87.458 4.316.659.58.079 1.16.179 1.739.251.8.1 1.6.236 2.405.308 2.906.265 5.834.437 8.8.437s5.9-.172 8.8-.444c.8-.079 1.595-.215 2.397-.315z" class="cls-2" data-name="Path 163" transform="translate(724.088 617.23)"/>
        <path id="Path_115" d="M244.467 206.822c.587-.072 1.16-.165 1.739-.251 1.446-.2 2.892-.394 4.316-.659.873-.165 1.732-.372 2.6-.565a84.49 84.49 0 0 0 3.028-.73c.809-.208 1.625-.4 2.427-.623.873-.251 1.732-.523 2.591-.795a84.394 84.394 0 0 0 4.087-1.4c.265-.1.53-.193.795-.293a90.87 90.87 0 0 0 2.756-1.1q2.223-.923 4.4-1.961a95.87 95.87 0 0 0 2.87-1.432 99.018 99.018 0 0 0 4.366-2.441c.837-.5 1.682-.995 2.505-1.518a97.475 97.475 0 0 0 4.517-3.085c.659-.472 1.324-.931 1.968-1.417.379-.286.723-.608 1.1-.9v-20.865A30.774 30.774 0 0 0 259.727 136h-26.463l14.316 35.79-14.316 14.316-14.316-14.316L233.264 136H206.8a30.8 30.8 0 0 0-30.8 30.8v20.866c.372.293.716.616 1.1.9.644.487 1.31.945 1.968 1.417a96.095 96.095 0 0 0 4.517 3.085c.823.523 1.668 1.016 2.505 1.518q2.147 1.278 4.366 2.441c.945.494 1.9.966 2.87 1.432a84.372 84.372 0 0 0 4.4 1.961c.916.379 1.832.752 2.756 1.1.265.1.53.193.795.293 1.346.5 2.713.959 4.087 1.4.859.272 1.718.544 2.591.795.8.229 1.618.415 2.427.623q1.5.387 3.028.73c.866.193 1.725.4 2.6.565 1.424.265 2.87.458 4.316.659.58.079 1.16.179 1.739.251.8.1 1.6.236 2.405.308 2.906.265 5.834.437 8.8.437s5.9-.172 8.8-.444c.8-.079 1.595-.215 2.397-.315z" class="cls-3" data-name="Path 115" transform="translate(735.336 620.298)"/>
        <g id="Group_63" data-name="Group 63" transform="translate(894.975 805.111)">
            <path id="Path_116" d="M195.36 205.8c.393.188.769.4 1.17.581.475.221.941.466 1.415.679.794.352 1.628.638 2.438.973q-2.552-1.043-5.023-2.233z" class="cls-1" data-name="Path 116" transform="translate(-175.563 -193.464)"/>
            <path id="Path_117" d="M179.424 196.328c1.693 1.219 3.395 2.405 5.162 3.526a106.22 106.22 0 0 1-5.162-3.526z" class="cls-1" data-name="Path 117" transform="translate(-175.923 -193.677)"/>
            <path id="Path_118" d="M279.736 208.041c.81-.335 1.636-.622 2.438-.974.483-.213.941-.466 1.415-.679.393-.18.777-.393 1.17-.581q-2.479 1.179-5.023 2.234z" class="cls-1" data-name="Path 118" transform="translate(-173.657 -193.463)"/>
            <path id="Path_119" d="M271.192 211.147c.663-.213 1.342-.393 2-.614.9-.3 1.783-.654 2.675-.982a101.254 101.254 0 0 1-4.675 1.596z" class="cls-1" data-name="Path 119" transform="translate(-173.85 -193.379)"/>
            <path id="Path_120" d="M177.252 194.767c-.434-.327-.826-.7-1.252-1.031v.123c.4.319.843.597 1.252.908z" class="cls-1" data-name="Path 120" transform="translate(-176 -193.736)"/>
        </g>
        <path id="Path_162" d="M238.558 58.6l33.256 19.953c0-22.042-6.651-46.558-39.907-46.558S192 56.516 192 78.558c0 0 39.907 0 46.558-19.958z" class="cls-2" data-name="Path 162" transform="translate(720.307 610.249)"/>
        <path id="Path_121" d="M290.168 88.542L249.265 64C241.084 88.542 192 88.542 192 88.542c0 27.111 31.733 49.084 49.084 49.084s49.084-21.973 49.084-49.084z" class="cls-2" data-name="Path 121" transform="translate(719.336 608.445)"/>
        <path id="Path_122" d="M238.558 58.6l33.256 19.953c0-22.042-6.651-46.558-39.907-46.558S192 56.516 192 78.558c0 0 39.907 0 46.558-19.958z" class="cls-3" data-name="Path 122" transform="translate(737.691 618.43)"/>
        <path id="Path_164" d="M233.717 170.008l9.717-9.717L233.717 136 224 160.292z" class="cls-2" data-name="Path 164" transform="translate(726.19 631.283)"/>
        <path id="Path_123" d="M233.717 170.008l9.717-9.717L233.717 136 224 160.292z" class="cls-1" data-name="Path 123" transform="translate(733.348 633.328)"/>
        <path id="Path_124" d="M387.431 470.144c-2 .376-4.041.671-6.095.933 2.045-.27 4.082-.557 6.095-.933z" class="cls-1" data-name="Path 124" transform="translate(723.612 617.618)"/>
        <path id="Path_125" d="M325.919 463.055c-.483-.213-.941-.466-1.415-.679.474.224.933.466 1.415.679z" class="cls-1" data-name="Path 125" transform="translate(722.329 617.443)"/>
        <path id="Path_126" d="M354.8 471.069c-2.045-.262-4.082-.556-6.095-.933 2.011.385 4.048.671 6.095.933z" class="cls-1" data-name="Path 126" transform="translate(722.875 617.618)"/>
        <path id="Path_127" d="M378.054 471.5c-3.313.311-6.659.507-10.054.507 3.4.004 6.741-.192 10.054-.507z" class="cls-1" data-name="Path 127" transform="translate(723.311 617.649)"/>
        <path id="Path_128" d="M396.4 468c-1.579.442-3.166.851-4.777 1.227 1.613-.376 3.2-.777 4.777-1.227z" class="cls-1" data-name="Path 128" transform="translate(723.845 617.57)"/>
        <path id="Path_129" d="M368.222 472.011c-3.4 0-6.741-.2-10.054-.507 3.313.311 6.659.507 10.054.507z" class="cls-1" data-name="Path 129" transform="translate(723.089 617.649)"/>
        <path id="Path_130" d="M404.727 465.232c-1.194.45-2.372.908-3.583 1.309 1.211-.409 2.397-.859 3.583-1.309z" class="cls-1" data-name="Path 130" transform="translate(724.06 617.507)"/>
        <path id="Path_131" d="M334.935 466.541c-1.211-.409-2.4-.867-3.583-1.309 1.186.45 2.372.9 3.583 1.309z" class="cls-1" data-name="Path 131" transform="translate(722.483 617.507)"/>
        <path id="Path_132" d="M344.482 469.227q-2.405-.564-4.778-1.227c1.579.45 3.166.851 4.778 1.227z" class="cls-1" data-name="Path 132" transform="translate(722.672 617.57)"/>
        <path id="Path_133" d="M411.535 462.376c-.474.221-.941.466-1.415.679.475-.213.933-.455 1.415-.679z" class="cls-1" data-name="Path 133" transform="translate(724.262 617.443)"/>
        <path id="Path_134" d="M358.247 471.514c-1.211-.115-2.389-.311-3.583-.466 1.194.152 2.372.352 3.583.466z" class="cls-1" data-name="Path 134" transform="translate(723.01 617.638)"/>
        <path id="Path_135" d="M381.415 471.048c-1.194.155-2.381.352-3.583.466 1.211-.114 2.389-.314 3.583-.466z" class="cls-1" data-name="Path 135" transform="translate(723.533 617.638)"/>
        <path id="Path_136" d="M410.235 463.04c-1.824.818-3.706 1.522-5.587 2.241 1.882-.711 3.763-1.431 5.587-2.241z" class="cls-1" data-name="Path 136" transform="translate(724.139 617.458)"/>
        <path id="Path_137" d="M401.254 466.512c-1.628.556-3.289 1.047-4.957 1.522 1.668-.475 3.32-.974 4.957-1.522z" class="cls-1" data-name="Path 137" transform="translate(723.95 617.536)"/>
        <path id="Path_138" d="M391.722 469.2c-1.473.344-2.937.679-4.434.957a95.97 95.97 0 0 0 4.434-.957z" class="cls-1" data-name="Path 138" transform="translate(723.747 617.597)"/>
        <path id="Path_139" d="M339.814 468.034a100.688 100.688 0 0 1-4.957-1.522 112.38 112.38 0 0 0 4.957 1.522z" class="cls-1" data-name="Path 139" transform="translate(722.563 617.536)"/>
        <path id="Path_140" d="M348.8 470.165c-1.489-.278-2.961-.614-4.434-.957 1.475.335 2.947.671 4.434.957z" class="cls-1" data-name="Path 140" transform="translate(722.777 617.597)"/>
        <path id="Path_141" d="M331.475 465.281c-1.882-.712-3.763-1.423-5.587-2.241 1.824.81 3.706 1.53 5.587 2.241z" class="cls-1" data-name="Path 141" transform="translate(722.36 617.458)"/>
        <path id="Path_147" d="M110.3 401.344a72.277 72.277 0 0 1-9.031 3.534 74.081 74.081 0 0 0 9.031-3.534z" class="cls-1" data-name="Path 147" transform="translate(717.287 616.064)"/>
        <path id="Path_148" d="M37.11 365.885A36.392 36.392 0 0 1 73.5 329.5a21.833 21.833 0 1 1 21.83-21.835A21.831 21.831 0 0 1 73.5 329.5a36.392 36.392 0 0 1 36.388 36.388v18.063a66.9 66.9 0 0 1-7.343 4.192 65.5 65.5 0 1 0-58.089 0 65.735 65.735 0 0 1-7.343-4.192z" class="cls-4" data-name="Path 148" transform="translate(727.428 633.079)"/>
        <path id="Path_149" d="M58.927 404.878a73.055 73.055 0 0 1-9.031-3.534 74.081 74.081 0 0 0 9.031 3.534z" class="cls-1" data-name="Path 149" transform="translate(716.127 616.064)"/>
        <path id="Path_150" d="M101.431 404.808a74.148 74.148 0 0 1-9.367 2.152 72.448 72.448 0 0 0 9.367-2.152z" class="cls-1" data-name="Path 150" transform="translate(717.079 616.142)"/>
        <path id="Path_151" d="M80 408.017a73.941 73.941 0 0 0 9.948-.753 73.941 73.941 0 0 1-9.948.753z" class="cls-1" data-name="Path 151" transform="translate(716.807 616.198)"/>
        <path id="Path_152" d="M80.22 408.017a73.941 73.941 0 0 1-9.948-.753 73.941 73.941 0 0 0 9.948.753z" class="cls-1" data-name="Path 152" transform="translate(716.587 616.198)"/>
        <path id="Path_153" d="M68.143 406.96a72.443 72.443 0 0 1-9.367-2.152 72.443 72.443 0 0 0 9.367 2.152z" class="cls-1" data-name="Path 153" transform="translate(716.327 616.142)"/>
        <ellipse id="Ellipse_10" cx="18.752" cy="18.752" class="cls-2" data-name="Ellipse 10" rx="18.752" ry="18.752" transform="translate(774.191 900.482)"/>
        <path id="Path_165" d="M83.945 395.855a59.8 59.8 0 0 0 7.732-1.776.074.074 0 0 1 .034-.007 60.3 60.3 0 0 0 7.455-2.917 39.68 39.68 0 0 0 1.54-.743 61 61 0 0 0 6.813-3.889v-16.76a33.763 33.763 0 0 0-67.526 0v16.76a62.078 62.078 0 0 0 6.813 3.889c.513.257 1.02.5 1.54.743a59.664 59.664 0 0 0 7.455 2.917.073.073 0 0 0 .034.007 61.209 61.209 0 0 0 7.732 1.776c.655.108 1.31.209 1.972.3a62.523 62.523 0 0 0 8.225.615 61.019 61.019 0 0 0 8.211-.621c.66-.085 1.315-.186 1.97-.294z" class="cls-2" data-name="Path 165" transform="translate(721.818 620.635)"/>
        <circle id="Ellipse_5" cx="17.384" cy="17.384" r="17.384" class="cls-5" data-name="Ellipse 5" transform="translate(786.581 915.821)"/>
        <g id="Group_67" data-name="Group 67" transform="translate(764.158 1016.508)">
            <path id="Path_154" d="M101.273 404.8a.089.089 0 0 1-.041.008.088.088 0 0 0 .041-.008z" class="cls-1" data-name="Path 154" transform="translate(-46.871 -400.366)"/>
            <path id="Path_155" d="M92.117 406.912z" class="cls-1" data-name="Path 155" transform="translate(-47.131 -400.318)"/>
            <path id="Path_156" d="M111.969 400.464c-.622.311-1.235.605-1.865.9.63-.295 1.243-.597 1.865-.9z" class="cls-1" data-name="Path 156" transform="translate(-46.671 -400.464)"/>
            <path id="Path_157" d="M70.325 407.272z" class="cls-1" data-name="Path 157" transform="translate(-47.623 -400.319)"/>
            <path id="Path_158" d="M49.937 401.364a47.806 47.806 0 0 1-1.865-.9c.622.303 1.235.605 1.865.9z" class="cls-1" data-name="Path 158" transform="translate(-48.072 -400.464)"/>
            <path id="Path_159" d="M58.777 404.808a.089.089 0 0 0-.041-.008.061.061 0 0 0 .041.008z" class="cls-1" data-name="Path 159" transform="translate(-47.831 -400.366)"/>
        </g>
        <path id="Path_160" d="M80.737 391.487a55.438 55.438 0 0 0 7.168-1.646.068.068 0 0 1 .031-.006 55.91 55.91 0 0 0 6.911-2.7c.482-.219.958-.451 1.427-.689a56.555 56.555 0 0 0 6.316-3.606V367.3a31.3 31.3 0 0 0-62.6 0v15.537a57.547 57.547 0 0 0 6.316 3.606c.476.238.945.463 1.427.689a55.314 55.314 0 0 0 6.911 2.7.068.068 0 0 0 .031.006 56.737 56.737 0 0 0 7.168 1.646c.607.1 1.214.194 1.828.282a57.965 57.965 0 0 0 7.625.57 56.575 56.575 0 0 0 7.612-.576 51.934 51.934 0 0 0 1.829-.273z" class="cls-5" data-name="Path 160" transform="translate(735.111 631.876)"/>
        <g id="Group_68" data-name="Group 68" transform="translate(736.474 622.339)">
            <circle id="Ellipse_6" cx="11.248" cy="11.248" r="11.248" class="cls-6" data-name="Ellipse 6" transform="translate(149.297 441.757)"/>
            <circle id="Ellipse_7" cx="8.181" cy="8.181" r="8.181" class="cls-7" data-name="Ellipse 7" transform="translate(0 6.136)"/>
            <circle id="Ellipse_8" cx="23.519" cy="23.519" r="23.519" class="cls-8" data-name="Ellipse 8" transform="translate(411.079 139.072)"/>
            <circle id="Ellipse_9" cx="11.248" cy="11.248" r="11.248" class="cls-9" data-name="Ellipse 9" transform="translate(435.621)"/>
        </g>
        <g id="Group_70" data-name="Group 70" transform="translate(1000.301 896.391)">
            <g id="Group_69" data-name="Group 69">
                <path id="Path_43-2" d="M201.592 208.584c.651.259 1.316.488 1.967.732-.118-.044-.229-.1-.348-.14-.532-.2-1.087-.376-1.619-.592z" class="cls-10" data-name="Path 43" transform="translate(-140.968 -23.192)"/>
                <path id="Path_44-2" d="M177.961 195.326c-.1-.074-.192-.14-.281-.214.096.074.185.148.281.214z" class="cls-10" data-name="Path 44" transform="translate(-139.157 -22.172)"/>
                <path id="Path_45-2" d="M185.967 200.737c-.266-.163-.532-.318-.791-.481.259.163.524.318.791.481z" class="cls-10" data-name="Path 45" transform="translate(-139.725 -22.562)"/>
                <path id="Path_46-2" d="M294.767 200.256c-.266.163-.532.318-.791.481.259-.163.524-.318.791-.481z" class="cls-10" data-name="Path 46" transform="translate(-147.965 -22.562)"/>
                <path id="Path_47-2" d="M302.3 195.12l-.281.214c.093-.074.181-.147.281-.214z" class="cls-10" data-name="Path 47" transform="translate(-148.574 -22.173)"/>
                <path id="Path_48-2" d="M194.659 205.484c-.51-.244-1.02-.481-1.531-.732.51.259 1.028.488 1.531.732z" class="cls-10" data-name="Path 48" transform="translate(-140.327 -22.902)"/>
                <path id="Path_49-2" d="M286.739 204.752c-.5.259-1.02.488-1.531.732.51-.244 1.028-.473 1.531-.732z" class="cls-10" data-name="Path 49" transform="translate(-147.301 -22.902)"/>
                <path id="Path_50-2" d="M249.448 215.547c.237-.022.481-.037.717-.067-.118.015-.244.007-.362.022s-.237.037-.355.045z" class="cls-10" data-name="Path 50" transform="translate(-144.593 -23.715)"/>
                <path id="Path_51-2" d="M267.608 212.169c.569-.155 1.146-.3 1.715-.473-.355.1-.725.177-1.08.281-.214.059-.421.133-.635.192z" class="cls-10" data-name="Path 51" transform="translate(-145.968 -23.428)"/>
                <path id="Path_52-2" d="M276.272 209.316c.658-.244 1.324-.473 1.967-.732-.532.214-1.087.392-1.627.592a2.34 2.34 0 0 1-.34.14z" class="cls-10" data-name="Path 52" transform="translate(-146.624 -23.192)"/>
                <path id="Path_53-2" d="M258.656 214.261c.436-.081.865-.148 1.3-.237-.237.044-.481.067-.71.111-.198.037-.39.089-.59.126z" class="cls-10" data-name="Path 53" transform="translate(-145.29 -23.604)"/>
                <path id="Path_54-2" d="M229.776 215.48l.717.067c-.118-.007-.237-.037-.355-.044s-.244-.008-.362-.023z" class="cls-10" data-name="Path 54" transform="translate(-143.103 -23.715)"/>
                <path id="Path_55-2" d="M210.536 211.7c.569.17 1.146.318 1.715.473-.214-.059-.421-.133-.636-.192-.362-.108-.724-.174-1.079-.281z" class="cls-10" data-name="Path 55" transform="translate(-141.645 -23.428)"/>
                <path id="Path_56-2" d="M219.936 214.024c.429.089.865.155 1.3.237-.2-.037-.392-.089-.592-.126-.235-.044-.471-.067-.708-.111z" class="cls-10" data-name="Path 56" transform="translate(-142.357 -23.604)"/>
                <path id="Path_57-2" d="M253.336 214.99c1.649-.214 3.3-.414 4.917-.71-1.272.237-2.581.37-3.874.555-.348.044-.688.11-1.043.155z" class="cls-10" data-name="Path 57" transform="translate(-144.887 -23.624)"/>
                <path id="Path_58-2" d="M211.7 212c.214.059.421.133.636.192.614.17 1.25.288 1.871.451-.832-.214-1.675-.406-2.507-.643z" class="cls-10" data-name="Path 58" transform="translate(-141.734 -23.451)"/>
                <path id="Path_59-2" d="M254.472 214.824c1.294-.185 2.6-.318 3.874-.555.2-.037.392-.089.592-.126-1.479.275-2.98.474-4.466.681z" class="cls-10" data-name="Path 59" transform="translate(-144.973 -23.614)"/>
                <path id="Path_60-2" d="M221.344 214.28c1.619.3 3.268.5 4.917.71-.348-.044-.7-.111-1.043-.163-1.293-.177-2.602-.318-3.874-.547z" class="cls-10" data-name="Path 60" transform="translate(-142.464 -23.624)"/>
                <path id="Path_61-2" d="M265.584 212.643c.621-.155 1.257-.281 1.871-.451.214-.059.421-.133.636-.192-.829.237-1.671.429-2.507.643z" class="cls-10" data-name="Path 61" transform="translate(-145.815 -23.451)"/>
                <path id="Path_62-2" d="M240 215.962c2.95 0 5.856-.155 8.732-.414.118-.007.237-.037.355-.044-2.994.281-6.018.458-9.087.458z" class="cls-10" data-name="Path 62" transform="translate(-143.877 -23.717)"/>
                <path id="Path_63-2" d="M263.624 213.125a88.75 88.75 0 0 0 3.682-.917c-.614.17-1.25.288-1.871.451s-1.197.325-1.811.466z" class="cls-10" data-name="Path 63" transform="translate(-145.666 -23.467)"/>
                <path id="Path_64-2" d="M212.392 212.208c1.213.34 2.447.628 3.682.917-.606-.14-1.205-.311-1.812-.466s-1.256-.281-1.87-.451z" class="cls-10" data-name="Path 64" transform="translate(-141.786 -23.467)"/>
                <path id="Path_65-2" d="M275.76 209.527c.155-.059.318-.1.473-.163.118-.044.229-.1.348-.14-.274.111-.547.207-.821.303z" class="cls-10" data-name="Path 65" transform="translate(-146.586 -23.241)"/>
                <path id="Path_66-2" d="M197.783 206.99c-.436-.192-.85-.421-1.279-.614.429.2.843.424 1.279.614z" class="cls-10" data-name="Path 66" transform="translate(-140.583 -23.025)"/>
                <path id="Path_67-2" d="M273.144 210.426a90.706 90.706 0 0 0 2.891-1.05c-.155.059-.318.1-.473.163-.806.295-1.605.613-2.418.887z" class="cls-10" data-name="Path 67" transform="translate(-146.387 -23.252)"/>
                <path id="Path_68-2" d="M230.523 215.548c2.876.259 5.782.414 8.732.414-3.069 0-6.093-.177-9.087-.458.118.007.232.037.355.044z" class="cls-10" data-name="Path 68" transform="translate(-143.132 -23.717)"/>
                <path id="Path_69-2" d="M283.4 206.376c-.429.2-.85.421-1.279.614.428-.19.842-.414 1.279-.614z" class="cls-10" data-name="Path 69" transform="translate(-147.067 -23.025)"/>
                <path id="Path_70-2" d="M220.7 214.144c.2.037.392.089.592.126 1.272.237 2.581.37 3.874.555-1.49-.208-2.991-.407-4.466-.681z" class="cls-10" data-name="Path 70" transform="translate(-142.416 -23.614)"/>
                <path id="Path_71-2" d="M203.728 209.376c.961.362 1.922.717 2.891 1.05-.813-.274-1.612-.592-2.418-.887-.155-.052-.318-.104-.473-.163z" class="cls-10" data-name="Path 71" transform="translate(-141.13 -23.252)"/>
                <path id="Path_72-2" d="M248.732 215.552z" class="cls-10" data-name="Path 72" transform="translate(-143.877 -23.72)"/>
                <path id="Path_73-2" d="M203.352 209.232c.118.044.229.1.348.14.155.059.318.1.473.163-.273-.103-.547-.199-.821-.303z" class="cls-10" data-name="Path 73" transform="translate(-141.101 -23.242)"/>
                <path id="Path_74-2" d="M239.284 215.966z" class="cls-10" data-name="Path 74" transform="translate(-143.161 -23.72)"/>
                <path id="Path_75-2" d="M200.264 207.992c.414.17.806.377 1.227.547.532.214 1.087.392 1.627.592a96.87 96.87 0 0 1-2.854-1.139z" class="cls-10" data-name="Path 75" transform="translate(-140.867 -23.148)"/>
                <path id="Path_76-2" d="M276.648 209.139c.54-.2 1.087-.384 1.627-.592.414-.17.813-.377 1.227-.547-.946.384-1.893.769-2.854 1.139z" class="cls-10" data-name="Path 76" transform="translate(-146.653 -23.148)"/>
                <path id="Path_77-2" d="M278.408 208.467c1.154-.458 2.3-.924 3.423-1.427-.717.318-1.471.577-2.2.88-.41.18-.809.38-1.223.547z" class="cls-10" data-name="Path 77" transform="translate(-146.786 -23.075)"/>
                <path id="Path_78-2" d="M227.48 215.152c.71.089 1.4.229 2.122.3.118.015.244.007.362.022-.835-.074-1.656-.218-2.484-.322z" class="cls-10" data-name="Path 78" transform="translate(-142.929 -23.69)"/>
                <path id="Path_79-2" d="M197.888 207.04c1.131.5 2.277.969 3.423 1.427-.414-.17-.813-.377-1.227-.547-.725-.303-1.479-.555-2.196-.88z" class="cls-10" data-name="Path 79" transform="translate(-140.687 -23.075)"/>
                <path id="Path_80-2" d="M175.595 193.522v-.111c-1.678-1.316-3.357-2.632-4.947-4.059q3.128 2.806 6.492 5.331c-.148-.111-.274-.237-.421-.348-.363-.28-.762-.535-1.124-.813z" class="cls-10" data-name="Path 80" transform="translate(-138.624 -21.736)"/>
                <path id="Path_81-2" d="M269.464 211.606c1.146-.34 2.27-.717 3.4-1.094-.592.2-1.205.362-1.8.555-.543.17-1.064.384-1.6.539z" class="cls-10" data-name="Path 81" transform="translate(-146.109 -23.338)"/>
                <path id="Path_82-2" d="M206.856 210.512c1.131.377 2.255.762 3.4 1.094-.54-.163-1.057-.37-1.59-.54-.605-.192-1.218-.354-1.81-.554z" class="cls-10" data-name="Path 82" transform="translate(-141.367 -23.338)"/>
                <path id="Path_83-2" d="M232.123 8a96.028 96.028 0 0 0-64.1 167.616c1.59 1.427 3.268 2.743 4.947 4.059v-21.553a31.82 31.82 0 0 1 31.817-31.817h27.336c-15.683 0-44.364-19.86-44.364-44.364s7.394-51.759 44.364-51.759 44.364 27.255 44.364 51.759-28.682 44.364-44.364 44.364h27.336a31.82 31.82 0 0 1 31.817 31.817v21.554c1.678-1.316 3.357-2.632 4.947-4.059a95.774 95.774 0 0 0 7.394-135.592A95.816 95.816 0 0 0 232.123 8z" class="cls-10" data-name="Path 83" transform="translate(-136 -8)"/>
                <path id="Path_84-2" d="M303.873 193.4v.111c-.362.288-.762.532-1.131.813-.148.111-.274.237-.421.348q3.372-2.529 6.492-5.331c-1.583 1.43-3.262 2.746-4.94 4.059z" class="cls-10" data-name="Path 84" transform="translate(-148.597 -21.735)"/>
                <path id="Path_85-2" d="M300.576 196.207c.436-.311.9-.584 1.331-.909.1-.074.192-.141.281-.214.148-.111.274-.237.422-.348-.666.51-1.354.983-2.034 1.471z" class="cls-10" data-name="Path 85" transform="translate(-148.465 -22.144)"/>
                <path id="Path_86-2" d="M295.475 199.441c-.222.14-.421.3-.643.444a97.096 97.096 0 0 0 6.64-4.533c-.429.318-.895.592-1.331.909-1.531 1.095-3.069 2.167-4.666 3.18z" class="cls-10" data-name="Path 86" transform="translate(-148.03 -22.19)"/>
                <path id="Path_87-2" d="M268.3 211.933c.355-.1.725-.17 1.079-.281.54-.163 1.057-.37 1.59-.54-.884.281-1.769.562-2.669.821z" class="cls-10" data-name="Path 87" transform="translate(-146.02 -23.384)"/>
                <path id="Path_88-2" d="M283.5 206.314c.532-.244 1.057-.51 1.582-.762-.17.081-.355.155-.525.237-.357.162-.698.355-1.057.525z" class="cls-10" data-name="Path 88" transform="translate(-147.172 -22.963)"/>
                <path id="Path_89-2" d="M284.64 205.679c.17-.081.355-.148.525-.237.51-.244 1.02-.481 1.531-.732.311-.155.6-.348.909-.51a85.254 85.254 0 0 1-2.965 1.479z" class="cls-10" data-name="Path 89" transform="translate(-147.258 -22.86)"/>
                <path id="Path_90-2" d="M292.728 201.344c.377-.222.776-.414 1.146-.643.266-.163.532-.318.791-.481.222-.14.429-.3.643-.444-.842.54-1.708 1.05-2.58 1.568z" class="cls-10" data-name="Path 90" transform="translate(-147.871 -22.525)"/>
                <path id="Path_91-2" d="M287.773 203.941c-.311.163-.6.348-.909.51a96.105 96.105 0 0 0 6.566-3.675c-.37.229-.769.421-1.146.643a101.173 101.173 0 0 1-4.511 2.522z" class="cls-10" data-name="Path 91" transform="translate(-147.427 -22.601)"/>
                <path id="Path_92-2" d="M260.064 213.962c1.109-.214 2.2-.5 3.29-.762-.436.1-.88.192-1.316.288-.665.141-1.309.341-1.974.474z" class="cls-10" data-name="Path 92" transform="translate(-145.397 -23.542)"/>
                <path id="Path_93-2" d="M250.224 215.447c.969-.1 1.915-.274 2.876-.4-.251.03-.5.067-.754.1-.71.086-1.405.234-2.122.3z" class="cls-10" data-name="Path 93" transform="translate(-144.651 -23.682)"/>
                <path id="Path_94-2" d="M208.808 211.112c.54.17 1.05.384 1.59.54.355.1.725.177 1.08.281-.895-.259-1.778-.54-2.67-.821z" class="cls-10" data-name="Path 94" transform="translate(-141.515 -23.384)"/>
                <path id="Path_95-2" d="M249.832 215.477c.118-.015.244-.007.362-.022.717-.074 1.4-.214 2.122-.3-.828.101-1.648.245-2.484.322z" class="cls-10" data-name="Path 95" transform="translate(-144.622 -23.69)"/>
                <path id="Path_96-2" d="M194.784 205.544c.525.251 1.05.518 1.582.762-.355-.163-.7-.355-1.057-.525-.17-.081-.348-.148-.525-.237z" class="cls-10" data-name="Path 96" transform="translate(-140.452 -22.962)"/>
                <path id="Path_97-2" d="M216.376 213.2c1.094.259 2.181.54 3.29.762-.665-.133-1.309-.325-1.974-.473-.436-.097-.88-.189-1.316-.289z" class="cls-10" data-name="Path 97" transform="translate(-142.088 -23.542)"/>
                <path id="Path_98-2" d="M192.152 204.2c.311.163.6.348.909.51.5.259 1.02.488 1.531.732.17.081.355.155.525.237a85.254 85.254 0 0 1-2.965-1.479z" class="cls-10" data-name="Path 98" transform="translate(-140.253 -22.86)"/>
                <path id="Path_99-2" d="M187.178 201.419c-.377-.222-.776-.414-1.146-.643a96.966 96.966 0 0 0 6.566 3.675c-.311-.155-.6-.348-.909-.51a98.978 98.978 0 0 1-4.511-2.522z" class="cls-10" data-name="Path 99" transform="translate(-139.789 -22.601)"/>
                <path id="Path_100-2" d="M226.664 215.048c.961.126 1.908.3 2.876.4-.717-.074-1.4-.214-2.122-.3-.251-.033-.503-.063-.754-.1z" class="cls-10" data-name="Path 100" transform="translate(-142.867 -23.682)"/>
                <path id="Path_101-2" d="M217.8 213.512c.665.148 1.309.34 1.974.473.237.044.481.067.71.111-.902-.17-1.789-.396-2.684-.584z" class="cls-10" data-name="Path 101" transform="translate(-142.196 -23.566)"/>
                <path id="Path_102-2" d="M179.315 196.253c-.436-.311-.9-.584-1.331-.909a96.38 96.38 0 0 0 6.64 4.533c-.222-.14-.429-.3-.643-.444-1.598-1.006-3.136-2.078-4.666-3.18z" class="cls-10" data-name="Path 102" transform="translate(-139.18 -22.19)"/>
                <path id="Path_103-2" d="M177.224 194.744c.148.111.274.237.421.348l.281.214c.429.318.895.592 1.331.909-.68-.495-1.368-.968-2.033-1.471z" class="cls-10" data-name="Path 103" transform="translate(-139.122 -22.144)"/>
                <path id="Path_104-2" d="M259.3 214.1c.237-.044.481-.059.71-.111.665-.133 1.309-.325 1.974-.473-.899.184-1.784.41-2.684.584z" class="cls-10" data-name="Path 104" transform="translate(-145.339 -23.566)"/>
                <path id="Path_105-2" d="M184.472 199.776c.222.14.421.3.643.444.266.163.532.318.791.481.37.229.769.421 1.146.643-.865-.518-1.73-1.028-2.58-1.568z" class="cls-10" data-name="Path 105" transform="translate(-139.671 -22.525)"/>
                <path id="Path_106-2" d="M303.907 193.855v-.111c-.384.3-.739.636-1.131.932.37-.289.769-.54 1.131-.821z" class="cls-10" data-name="Path 106" transform="translate(-148.632 -22.068)"/>
                <path id="Path_107-2" d="M225.528 214.88c.348.052.7.111 1.043.163.251.03.5.067.754.1-.599-.078-1.191-.182-1.797-.263z" class="cls-10" data-name="Path 107" transform="translate(-142.781 -23.669)"/>
                <path id="Path_108-2" d="M214.416 212.7c.606.155 1.2.325 1.812.466.436.1.88.192 1.316.288-1.05-.233-2.093-.492-3.128-.754z" class="cls-10" data-name="Path 108" transform="translate(-141.939 -23.504)"/>
                <path id="Path_109-2" d="M300.194 196.328z" class="cls-10" data-name="Path 109" transform="translate(-148.083 -22.264)"/>
                <path id="Path_110-2" d="M204.24 209.552c.806.3 1.6.614 2.418.887.592.2 1.205.362 1.8.555a92.254 92.254 0 0 1-4.218-1.442z" class="cls-10" data-name="Path 110" transform="translate(-141.169 -23.266)"/>
                <path id="Path_111-2" d="M252.52 215.131c.251-.03.5-.067.754-.1.348-.044.7-.111 1.043-.163-.599.093-1.191.196-1.797.263z" class="cls-10" data-name="Path 111" transform="translate(-144.825 -23.669)"/>
                <path id="Path_112-2" d="M187.272 201.472q2.218 1.32 4.51 2.521-2.295-1.193-4.51-2.521z" class="cls-10" data-name="Path 112" transform="translate(-139.883 -22.654)"/>
                <path id="Path_113-2" d="M262.2 213.45c.436-.1.88-.185 1.316-.288.606-.14 1.205-.311 1.812-.466a87.407 87.407 0 0 1-3.128.754z" class="cls-10" data-name="Path 113" transform="translate(-145.559 -23.504)"/>
                <path id="Path_114-2" d="M292.358 201.472q-2.218 1.32-4.51 2.521a98.393 98.393 0 0 0 4.51-2.521z" class="cls-10" data-name="Path 114" transform="translate(-147.501 -22.654)"/>
            </g>
            <path id="Path_166" d="M244.467 206.822c.587-.072 1.16-.165 1.739-.251 1.446-.2 2.892-.394 4.316-.659.873-.165 1.732-.372 2.6-.565a84.49 84.49 0 0 0 3.028-.73c.809-.208 1.625-.4 2.427-.623.873-.251 1.732-.523 2.591-.795a84.394 84.394 0 0 0 4.087-1.4c.265-.1.53-.193.795-.293a90.87 90.87 0 0 0 2.756-1.1q2.223-.923 4.4-1.961a95.87 95.87 0 0 0 2.87-1.432 99.018 99.018 0 0 0 4.366-2.441c.837-.5 1.682-.995 2.505-1.518a97.475 97.475 0 0 0 4.517-3.085c.659-.472 1.324-.931 1.968-1.417.379-.286.723-.608 1.1-.9v-20.865A30.774 30.774 0 0 0 259.727 136h-26.463l14.316 35.79-14.316 14.316-14.316-14.316L233.264 136H206.8a30.8 30.8 0 0 0-30.8 30.8v20.866c.372.293.716.616 1.1.9.644.487 1.31.945 1.968 1.417a96.095 96.095 0 0 0 4.517 3.085c.823.523 1.668 1.016 2.505 1.518q2.147 1.278 4.366 2.441c.945.494 1.9.966 2.87 1.432a84.372 84.372 0 0 0 4.4 1.961c.916.379 1.832.752 2.756 1.1.265.1.53.193.795.293 1.346.5 2.713.959 4.087 1.4.859.272 1.718.544 2.591.795.8.229 1.618.415 2.427.623q1.5.387 3.028.73c.866.193 1.725.4 2.6.565 1.424.265 2.87.458 4.316.659.58.079 1.16.179 1.739.251.8.1 1.6.236 2.405.308 2.906.265 5.834.437 8.8.437s5.9-.172 8.8-.444c.8-.079 1.595-.215 2.397-.315z" class="cls-2" data-name="Path 166" transform="translate(-146.345 -18.402)"/>
            <path id="Path_167" d="M244.467 206.822c.587-.072 1.16-.165 1.739-.251 1.446-.2 2.892-.394 4.316-.659.873-.165 1.732-.372 2.6-.565a84.49 84.49 0 0 0 3.028-.73c.809-.208 1.625-.4 2.427-.623.873-.251 1.732-.523 2.591-.795a84.394 84.394 0 0 0 4.087-1.4c.265-.1.53-.193.795-.293a90.87 90.87 0 0 0 2.756-1.1q2.223-.923 4.4-1.961a95.87 95.87 0 0 0 2.87-1.432 99.018 99.018 0 0 0 4.366-2.441c.837-.5 1.682-.995 2.505-1.518a97.475 97.475 0 0 0 4.517-3.085c.659-.472 1.324-.931 1.968-1.417.379-.286.723-.608 1.1-.9v-20.865A30.774 30.774 0 0 0 259.727 136h-26.463l14.316 35.79-14.316 14.316-14.316-14.316L233.264 136H206.8a30.8 30.8 0 0 0-30.8 30.8v20.866c.372.293.716.616 1.1.9.644.487 1.31.945 1.968 1.417a96.095 96.095 0 0 0 4.517 3.085c.823.523 1.668 1.016 2.505 1.518q2.147 1.278 4.366 2.441c.945.494 1.9.966 2.87 1.432a84.372 84.372 0 0 0 4.4 1.961c.916.379 1.832.752 2.756 1.1.265.1.53.193.795.293 1.346.5 2.713.959 4.087 1.4.859.272 1.718.544 2.591.795.8.229 1.618.415 2.427.623q1.5.387 3.028.73c.866.193 1.725.4 2.6.565 1.424.265 2.87.458 4.316.659.58.079 1.16.179 1.739.251.8.1 1.6.236 2.405.308 2.906.265 5.834.437 8.8.437s5.9-.172 8.8-.444c.8-.079 1.595-.215 2.397-.315z" class="cls-11" data-name="Path 167" transform="translate(-135.097 -15.334)"/>
            <path id="Path_168" d="M238.558 58.6l33.256 19.953c0-22.042-6.651-46.558-39.907-46.558S192 56.516 192 78.558c0 0 39.907 0 46.558-19.958z" class="cls-2" data-name="Path 168" transform="translate(-150.126 -25.384)"/>
            <path id="Path_169" d="M290.168 88.542L249.265 64C241.084 88.542 192 88.542 192 88.542c0 27.111 31.733 49.084 49.084 49.084s49.084-21.973 49.084-49.084z" class="cls-2" data-name="Path 169" transform="translate(-151.097 -27.187)"/>
            <path id="Path_170" d="M238.558 58.6l33.256 19.953c0-22.042-6.651-46.558-39.907-46.558S192 56.516 192 78.558c0 0 39.907 0 46.558-19.958z" class="cls-12" data-name="Path 170" transform="translate(-132.742 -17.203)"/>
            <path id="Path_171" d="M233.717 170.008l9.717-9.717L233.717 136 224 160.292z" class="cls-2" data-name="Path 171" transform="translate(-144.243 -4.349)"/>
            <path id="Path_172" d="M233.717 170.008l9.717-9.717L233.717 136 224 160.292z" class="cls-13" data-name="Path 172" transform="translate(-135.039 -1.282)"/>
        </g>
        <path id="Path_161" d="M443.262 32.723a24.542 24.542 0 1 0 0-16.361h-99.674a8.145 8.145 0 0 0-5.784 2.4L324.593 31.97A114.055 114.055 0 0 0 245.42 0c-60.39 0-109.891 47.014-114.112 106.349H62.574L35.848 46.2a24.467 24.467 0 1 0-16.942 2.168l30.882 69.487a8.183 8.183 0 0 0 7.477 4.859h74.043a114.055 114.055 0 0 0 31.553 70.986L93.8 262.763a81.728 81.728 0 0 0-57.617 148.692c.057.041.106.1.164.139.327.221.7.368 1.031.589a80.863 80.863 0 0 0 8.083 4.581c.875.434 1.742.867 2.634 1.268a81.056 81.056 0 0 0 9.694 3.747c.4.123.818.2 1.227.319a80.96 80.96 0 0 0 9.269 2.078c.924.155 1.841.3 2.765.425.859.115 1.7.286 2.569.376V466.3a8.178 8.178 0 0 0 8.181 8.181h75.13a24.542 24.542 0 1 0 0-16.361H89.987v-33.14c.867-.09 1.71-.262 2.569-.376.933-.123 1.849-.27 2.765-.425a82.713 82.713 0 0 0 9.269-2.078c.409-.115.818-.188 1.227-.319a81.713 81.713 0 0 0 9.7-3.747c.884-.4 1.759-.834 2.634-1.268a82.57 82.57 0 0 0 8.082-4.589c.335-.213.7-.36 1.031-.589.057-.041.106-.1.164-.139a81.713 81.713 0 0 0-15.38-143.8l62.926-62.926c.81.63 1.661 1.178 2.479 1.783 1.653 1.219 3.28 2.462 5 3.591 1.685 1.121 3.428 2.111 5.162 3.133 1.6.941 3.19 1.882 4.835 2.741 2.569 1.35 5.162 2.626 7.813 3.771.884.384 1.792.7 2.691 1.055 2.4.965 4.818 1.873 7.281 2.667 1.006.327 2.029.614 3.051.916a119.741 119.741 0 0 0 10.577 2.569c2.528.483 5.08.859 7.657 1.17 1.031.123 2.045.286 3.076.385 3.575.344 7.183.556 10.823.556s7.248-.213 10.831-.548c1.039-.1 2.045-.254 3.076-.385 2.569-.311 5.129-.687 7.657-1.17q1.644-.319 3.264-.687a116.193 116.193 0 0 0 7.305-1.882c1.023-.3 2.045-.589 3.051-.916 2.462-.8 4.884-1.7 7.281-2.667.892-.36 1.808-.679 2.691-1.055 2.659-1.145 5.26-2.421 7.829-3.779 1.628-.859 3.207-1.783 4.786-2.716 1.742-1.031 3.493-2.029 5.187-3.15 1.718-1.137 3.346-2.372 5-3.591.818-.605 1.677-1.153 2.479-1.783l57.224 57.232c-61.65 1.71-111.3 52.283-111.3 114.349a114.285 114.285 0 0 0 43.9 89.971c.065.049.082.131.147.18.826.646 1.693 1.194 2.528 1.816 1.652 1.219 3.28 2.462 5 3.591 1.685 1.121 3.428 2.111 5.162 3.133 1.6.941 3.19 1.882 4.835 2.741 2.569 1.35 5.162 2.626 7.813 3.771.884.384 1.792.7 2.691 1.055 2.4.965 4.818 1.873 7.281 2.667 1.006.327 2.029.614 3.051.916a119.741 119.741 0 0 0 10.577 2.569c2.528.483 5.08.859 7.657 1.17 1.031.123 2.045.286 3.076.385 3.567.352 7.174.564 10.815.564s7.248-.213 10.831-.548c1.039-.1 2.045-.254 3.076-.385 2.569-.311 5.129-.687 7.657-1.17q1.644-.319 3.264-.687a116.193 116.193 0 0 0 7.305-1.882c1.023-.3 2.045-.589 3.051-.916 2.462-.8 4.884-1.7 7.281-2.667.892-.36 1.808-.679 2.691-1.055 2.659-1.145 5.26-2.421 7.829-3.779 1.628-.859 3.207-1.783 4.786-2.716 1.743-1.031 3.493-2.029 5.187-3.15 1.718-1.137 3.346-2.372 5-3.591.834-.622 1.7-1.17 2.528-1.816.065-.049.09-.131.147-.18a114.372 114.372 0 0 0-48.732-202.365l-70.234-70.241a114.035 114.035 0 0 0 31.553-70.994h82.224v9.007a40.9 40.9 0 1 0 16.361 0v-17.178a8.178 8.178 0 0 0-8.181-8.181h-90.4a113.741 113.741 0 0 0-23.969-62.214l11.412-11.412zM466.3 16.361a8.181 8.181 0 1 1-8.181 8.181 8.189 8.189 0 0 1 8.181-8.181zm-441.757 0a8.181 8.181 0 1 1-8.181 8.181 8.189 8.189 0 0 1 8.18-8.181zm155.432 441.757a8.181 8.181 0 1 1-8.181 8.181 8.189 8.189 0 0 1 8.181-8.181zM65.445 319.046a16.361 16.361 0 1 1 16.361 16.361 16.378 16.378 0 0 1-16.361-16.361zm16.361 32.723a32.756 32.756 0 0 1 32.723 32.723v15.691c-.254.147-.491.311-.736.45a66.361 66.361 0 0 1-63.965 0c-.254-.147-.491-.311-.744-.45v-15.691a32.756 32.756 0 0 1 32.723-32.723zm65.445-8.181a65.1 65.1 0 0 1-16.361 43.145v-2.242a49.093 49.093 0 0 0-25.417-42.973 32.723 32.723 0 1 0-47.333 0 49.093 49.093 0 0 0-25.417 42.973v2.241a65.406 65.406 0 1 1 114.529-43.145zm327.228-171.794a24.542 24.542 0 1 1-24.542-24.542 24.572 24.572 0 0 1 24.542 24.542zM256.7 76.849L285.939 94.4c-3.28 20.026-27.962 36.494-40.519 36.494-11.854 0-34.49-14.66-39.766-33.148 14.005-1.157 39.292-5.403 51.046-20.897zm-51.735 4.483C207.159 53.919 220.093 40.9 245.42 40.9c23.217 0 35.97 10.978 39.652 33.884l-27.258-16.349a8.174 8.174 0 0 0-11.968 4.426c-4.14 12.418-26.489 17.105-40.879 18.471zm40.453 79.762l6.76 16.906-6.757 6.765-6.758-6.765zm-12.083-13.842l-11.87 29.679a8.179 8.179 0 0 0 1.816 8.827l16.361 16.361a8.167 8.167 0 0 0 11.559 0l16.361-16.361a8.194 8.194 0 0 0 1.816-8.827L257.5 147.252h18.161a27.027 27.027 0 0 1 27.021 27.021v19.8a101.37 101.37 0 0 1-5.465 3.7c-.589.368-1.178.72-1.767 1.08a103.944 103.944 0 0 1-6 3.313c-.72.36-1.456.7-2.184 1.055a98.955 98.955 0 0 1-5.972 2.618c-.892.352-1.8.663-2.708.99a94.7 94.7 0 0 1-5.784 1.931c-1.145.335-2.323.605-3.485.9-1.661.417-3.33.843-5.015 1.178-.18.033-.368.074-.548.106-1.522.286-3.076.491-4.622.7-1.1.155-2.192.344-3.3.458-.425.041-.851.106-1.276.147-3.019.27-6.054.45-9.138.45s-6.119-.18-9.13-.466c-.425-.041-.851-.106-1.276-.147-1.1-.123-2.2-.3-3.3-.458-1.546-.221-3.1-.417-4.622-.7-.18-.033-.368-.074-.548-.106-1.685-.335-3.354-.753-5.015-1.178-1.17-.295-2.34-.564-3.485-.9-1.955-.573-3.878-1.235-5.784-1.931-.908-.327-1.816-.638-2.708-.99q-3.031-1.2-5.972-2.618c-.728-.344-1.464-.687-2.184-1.055q-3.056-1.546-6-3.313-.9-.528-1.767-1.08a93.37 93.37 0 0 1-5.465-3.7v-19.8a26.992 26.992 0 0 1 27.013-27h18.161zm154.257 191.379l29.238 17.548c-3.281 20.026-27.962 36.494-40.519 36.494-11.854 0-34.49-14.66-39.766-33.148 14.005-1.154 39.292-5.4 51.047-20.894zm-51.735 4.483c2.192-27.413 15.126-40.429 40.453-40.429 23.217 0 35.97 10.978 39.652 33.884L388.7 320.216a8.174 8.174 0 0 0-11.968 4.426c-4.132 12.418-26.485 17.106-40.874 18.472zm40.453 79.762l6.757 16.909-6.757 6.765-6.757-6.765zm-12.083-13.842l-11.87 29.68a8.179 8.179 0 0 0 1.816 8.827l16.363 16.359a8.167 8.167 0 0 0 11.559 0l16.361-16.361a8.194 8.194 0 0 0 1.816-8.827l-11.878-29.68h18.161a27.027 27.027 0 0 1 27.021 27.021v19.83c-.237.172-.458.352-.7.515a105.422 105.422 0 0 1-7.559 4.843 96.96 96.96 0 0 1-3.706 2.07 96.997 96.997 0 0 1-5.154 2.487c-.818.368-1.62.777-2.438 1.121a97.779 97.779 0 0 1-8.23 3.019c-.5.155-1.006.278-1.505.425q-3.522 1.055-7.15 1.841c-.834.18-1.669.335-2.5.491q-3.289.626-6.651 1.014c-.843.1-1.685.221-2.536.294-3.019.295-6.054.474-9.138.474s-6.119-.18-9.13-.466c-.851-.082-1.693-.2-2.536-.294q-3.362-.4-6.651-1.014a86.175 86.175 0 0 1-2.5-.491 98.509 98.509 0 0 1-7.15-1.841c-.5-.147-1.014-.262-1.505-.425-2.8-.884-5.538-1.9-8.23-3.019-.826-.344-1.628-.753-2.438-1.121a93.267 93.267 0 0 1-5.154-2.487 95.614 95.614 0 0 1-3.706-2.07q-1.706-.994-3.379-2.053c-1.407-.9-2.814-1.808-4.18-2.79-.237-.164-.458-.352-.7-.515v-19.83a27.045 27.045 0 0 1 27.013-27.029zm110.251-32.723a97.659 97.659 0 0 1-24.542 64.717v-4.974A43.219 43.219 0 0 0 412 393.073c12.14-10.512 21.572-25.246 21.572-41.3 0-54.091-31.144-65.445-57.265-65.445s-57.265 11.355-57.265 65.445c0 16.059 9.432 30.792 21.572 41.3a43.219 43.219 0 0 0-37.934 42.981v4.974a98.109 98.109 0 1 1 171.794-64.717zM319.046 179.247v-4.974a43.219 43.219 0 0 0-37.934-42.981c12.14-10.512 21.572-25.246 21.572-41.3 0-54.091-31.144-65.445-57.265-65.445s-57.263 11.353-57.263 65.44c0 16.059 9.432 30.792 21.572 41.3a43.219 43.219 0 0 0-37.934 42.981v4.974a98.168 98.168 0 1 1 147.252 0z" class="cls-14" data-name="Path 161" transform="translate(715 607)"/>
    </g>
</svg>
